<?xml version="1.0" encoding="UTF-8"?>
<svg xmlns="http://www.w3.org/2000/svg" xmlns:xlink="http://www.w3.org/1999/xlink" version="1.2" >
<font id="KoPubDotum_Pro Bold">
<font-face  font-family="KoPubDotum_Pro" units-per-em="1000" ascent="800" descent="-200" font-style="normal" font-weight="400" font-stretch="normal" cap-height="719" x-height="481" underline-position="-200" underline-thickness="25" />
<missing-glyph  horiz-adv-x="900" d="M100 -100 L100 700 L800 700 L800 -100 L100 -100 Z M150 -50 L750 -50 L750 650 L150 650 L150 -50 Z " />
<glyph glyph-name="NULL" d="" />
<glyph glyph-name="CR" unicode="&#xd;" horiz-adv-x="250" d="" />
<glyph glyph-name="&amp;#x20;" unicode="&#x20;" horiz-adv-x="333.333" d="" />
<glyph glyph-name="&amp;#x9;" unicode="&#x9;" horiz-adv-x="333.333" d="" />
<glyph glyph-name="cid1" unicode="&#x20;" horiz-adv-x="290" d="" />
<glyph glyph-name="cid2" unicode="&#x21;" horiz-adv-x="300" d="M196 112 L93 112 L78 750 L210 750 L196 112 Z M212 -70 L77 -70 L77 57 L212 57 L212 -70 Z " />
<glyph glyph-name="cid3" unicode="&#x22;" horiz-adv-x="320" d="M56 556 L40 795 L151 795 L148 556 L56 556 Z M180 556 L177 795 L287 795 L272 556 L180 556 Z " />
<glyph glyph-name="cid4" unicode="&#x23;" horiz-adv-x="590" d="M572 516 L559 420 L453 420 L433 262 L541 262 L528 166 L418 166 L391 -37 L287 -37 L312 166 L230 166 L200 -37 L98 -37 L127 166 L21 166 L34 262 L141 262 L161 420 L54 420 L67 516 L174 516 L204 727 L309 727 L282 516 L361 516 L391 727 L495 727 L466 516 L572 516 Z M351 424 L265 424 L240 258 L329 258 L351 424 Z " />
<glyph glyph-name="cid5" unicode="&#x24;" horiz-adv-x="590" d="M251 317 C159 348 61 395 61 521 C61 636 157 710 244 722 L244 798 L344 798 L344 725 C372 723 407 710 443 691 C494 664 532 610 533 527 L421 527 C415 604 372 628 337 630 L337 392 C340 391 342 390 350 387 C449 352 546 316 547 186 C547 114 516 53 469 19 C424 -12 381 -25 344 -27 L344 -133 L244 -133 L244 -27 C126 -18 46 62 45 200 L160 200 C158 100 204 70 251 66 L251 317 C252 317 252 316 253 316 C252 316 252 317 251 317 L251 317 Z M253 629 C213 623 171 585 171 530 C171 464 211 438 253 422 L253 629 Z M335 66 C377 71 435 108 435 178 C435 244 395 264 335 286 L335 66 Z " />
<glyph glyph-name="cid6" unicode="&#x25;" horiz-adv-x="874" d="M573 730 L683 730 L282 -32 L172 -32 L573 730 Z M215 718 C330 718 390 615 390 511 C390 407 330 306 215 306 C100 306 40 407 40 511 C40 615 100 718 215 718 L215 718 Z M640 374 C753 374 816 273 816 169 C816 65 753 -38 640 -38 C526 -38 466 65 466 169 C466 273 526 374 640 374 L640 374 Z M214 637 C162 637 146 576 146 510 C146 445 162 387 214 387 C267 387 285 446 285 510 C285 575 267 637 214 637 L214 637 Z M639 293 C588 293 572 234 572 168 C572 103 588 45 639 45 C692 45 711 104 711 168 C711 233 692 293 639 293 L639 293 Z " />
<glyph glyph-name="cid7" unicode="&#x26;" horiz-adv-x="706" d="M163 172 C163 87 237 48 308 48 C381 48 436 78 473 126 L281 342 C211 288 163 248 163 172 L163 172 Z M361 401 L525 222 C537 248 551 311 551 395 L652 395 C655 287 637 199 602 136 L755 -32 L614 -32 L543 49 C499 -3 417 -47 319 -47 C240 -47 185 -38 128 4 C78 39 47 96 47 171 C47 268 122 346 217 417 C219 419 222 422 214 416 C173 463 133 511 133 585 C133 672 195 745 305 745 C422 745 488 681 488 601 C488 507 417 446 361 401 L361 401 Z M296 471 C343 504 380 536 380 596 C380 635 361 658 306 658 C265 658 239 633 239 589 C239 543 256 518 296 471 L296 471 Z " />
<glyph glyph-name="cid8" unicode="&#x27;" horiz-adv-x="180" d="M47 556 L32 795 L153 795 L142 556 L47 556 Z " />
<glyph glyph-name="cid9" unicode="&#x28;" horiz-adv-x="310" d="M32 318 C32 495 102 680 231 796 L320 796 C190 627 155 465 155 318 C155 171 190 9 320 -160 L231 -160 C102 -44 32 141 32 318 L32 318 Z " />
<glyph glyph-name="cid10" unicode="&#x29;" horiz-adv-x="310" d="M278 318 C278 141 208 -44 79 -160 L-10 -160 C120 9 155 171 155 318 C155 465 120 627 -10 796 L79 796 C208 680 278 495 278 318 L278 318 Z " />
<glyph glyph-name="cid11" unicode="&#x2a;" horiz-adv-x="446" d="M171 736 L222 603 L271 736 L366 685 L279 574 L414 584 L414 485 L279 496 L365 382 L270 332 L222 466 L171 329 L75 383 L163 495 L29 485 L29 584 L162 574 L72 683 L171 736 Z " />
<glyph glyph-name="cid12" unicode="&#x2b;" horiz-adv-x="590" d="M243 396 L243 619 L350 619 L350 396 L562 396 L562 300 L350 300 L350 78 L243 78 L243 300 L31 300 L31 396 L243 396 Z " />
<glyph glyph-name="cid13" unicode="&#x2c;" horiz-adv-x="300" d="M212 -6 C212 -105 169 -169 84 -182 L84 -140 C119 -130 137 -99 134 -54 L74 -54 L74 69 L190 69 C204 69 212 62 212 47 L212 -6 Z " />
<glyph glyph-name="cid14" unicode="&#x2d;" horiz-adv-x="570" d="M531 395 L531 299 L46 299 L46 395 L531 395 Z " />
<glyph glyph-name="cid15" unicode="&#x2e;" horiz-adv-x="300" d="M208 -66 L73 -66 L73 61 L208 61 L208 -66 Z " />
<glyph glyph-name="cid16" unicode="&#x2f;" horiz-adv-x="446" d="M115 -155 L-5 -155 L336 798 L451 798 L115 -155 Z " />
<glyph glyph-name="cid17" unicode="0" horiz-adv-x="563" d="M283 643 C160 643 150 451 150 343 C150 235 160 45 283 45 C407 45 422 235 422 343 C422 451 407 643 283 643 L283 643 Z M283 738 C493 738 538 527 538 343 C538 158 493 -51 283 -51 C75 -51 34 158 34 343 C34 527 74 738 283 738 L283 738 Z " />
<glyph glyph-name="cid18" unicode="1" horiz-adv-x="563" d="M363 680 L363 -32 L250 -32 L250 567 C245 562 190 529 98 482 L98 587 C162 616 212 654 262 707 L336 707 C357 707 363 701 363 680 L363 680 Z " />
<glyph glyph-name="cid19" unicode="2" horiz-adv-x="563" d="M34 -5 L34 60 C130 152 381 397 381 515 C382 594 337 629 268 629 C200 629 156 581 156 488 L40 488 C40 634 141 724 268 724 C395 724 497 651 497 522 C497 350 259 144 177 63 L513 63 L513 -32 L61 -32 C40 -32 34 -26 34 -5 L34 -5 Z " />
<glyph glyph-name="cid20" unicode="3" horiz-adv-x="563" d="M200 330 L200 376 C200 397 205 402 226 402 L257 402 C331 404 391 433 391 516 C391 592 341 630 267 630 C190 630 149 592 140 500 L27 500 C29 642 129 725 269 725 C391 725 505 660 505 519 C505 433 459 371 371 352 C472 335 520 269 520 170 C520 19 393 -49 265 -49 C118 -49 21 40 18 190 L129 190 C139 89 184 46 269 46 C357 46 407 90 407 178 C407 269 340 301 264 304 L226 304 C205 304 200 309 200 330 L200 330 Z " />
<glyph glyph-name="cid21" unicode="4" horiz-adv-x="563" d="M331 527 L332 554 L127 219 L331 219 L331 527 Z M441 691 L441 219 L548 219 L548 124 L441 124 L441 -32 L329 -32 L329 124 L34 124 C13 124 7 130 7 151 L7 198 C7 209 12 222 18 231 L302 697 C308 707 323 718 332 718 L414 718 C435 718 441 712 441 691 L441 691 Z " />
<glyph glyph-name="cid22" unicode="5" horiz-adv-x="563" d="M61 293 L72 680 C72 701 78 707 99 707 L495 707 L495 613 L182 613 L171 415 C196 445 245 467 309 467 C430 467 533 379 533 210 C533 63 436 -49 289 -49 C159 -49 53 27 45 170 L157 170 C171 83 220 44 290 44 C365 44 419 103 419 209 C419 325 367 375 292 375 C236 375 191 345 175 293 C172 282 169 266 148 266 L88 266 C67 266 61 274 61 293 L61 293 Z " />
<glyph glyph-name="cid23" unicode="6" horiz-adv-x="563" d="M283 370 C206 370 151 302 151 217 C151 115 203 45 281 45 C369 45 418 112 418 208 C418 300 373 370 283 370 L283 370 Z M30 316 C30 581 141 721 291 721 C419 721 506 641 522 507 L408 507 C404 588 355 628 292 628 C170 628 136 460 130 382 C165 429 232 458 303 458 C442 458 530 354 530 206 C530 67 439 -49 290 -49 C176 -49 89 22 58 112 C38 167 30 225 30 316 L30 316 Z " />
<glyph glyph-name="cid24" unicode="7" horiz-adv-x="563" d="M485 707 C506 707 512 701 512 680 L512 641 C512 631 507 613 503 605 L244 -32 L120 -32 L387 612 L35 612 L35 707 L485 707 Z " />
<glyph glyph-name="cid25" unicode="8" horiz-adv-x="563" d="M282 400 C357 400 412 439 412 516 C412 589 357 631 282 631 C208 631 152 589 152 516 C152 439 205 400 282 400 L282 400 Z M282 46 C370 46 421 93 421 173 C421 262 353 302 282 302 C210 302 143 262 143 173 C143 93 194 46 282 46 L282 46 Z M412 346 C471 328 534 271 534 175 C533 35 429 -48 282 -48 C134 -48 31 35 30 175 C30 256 89 330 153 347 C91 364 38 421 38 517 C38 646 141 724 282 724 C422 724 526 646 526 517 C526 433 467 363 412 346 L412 346 Z " />
<glyph glyph-name="cid26" unicode="9" horiz-adv-x="563" d="M279 305 C356 305 411 373 411 458 C411 560 359 630 281 630 C193 630 144 563 144 467 C144 375 189 305 279 305 L279 305 Z M532 360 C532 95 421 -48 271 -48 C143 -48 56 32 40 166 L154 166 C158 85 207 45 270 45 C392 45 426 215 432 293 C397 246 330 217 259 217 C120 217 32 321 32 469 C32 608 123 724 272 724 C386 724 473 654 504 564 C524 509 532 451 532 360 L532 360 Z " />
<glyph glyph-name="cid27" unicode="&#x3a;" horiz-adv-x="316" d="M230 467 L95 467 L95 595 L230 595 L230 467 Z M230 68 L95 68 L95 196 L230 196 L230 68 Z " />
<glyph glyph-name="cid28" unicode="&#x3b;" horiz-adv-x="316" d="M91 594 L226 594 L226 465 L91 465 L91 594 Z M229 121 C229 22 186 -42 101 -55 L101 -13 C136 -3 154 28 151 73 L91 73 L91 196 L207 196 C221 196 229 189 229 174 L229 121 Z " />
<glyph glyph-name="cid29" unicode="&#x3c;" horiz-adv-x="425" d="M404 -120 L310 -166 L20 316 L310 805 L404 759 L154 317 L404 -120 Z " />
<glyph glyph-name="cid30" unicode="&#x3d;" horiz-adv-x="590" d="M530 483 L530 386 L57 386 L57 483 L530 483 Z M530 288 L530 191 L57 191 L57 288 L530 288 Z " />
<glyph glyph-name="cid31" unicode="&#x3e;" horiz-adv-x="425" d="M14 -120 L264 317 L14 759 L108 805 L398 316 L108 -166 L14 -120 Z " />
<glyph glyph-name="cid32" unicode="&#x3f;" horiz-adv-x="486" d="M152 62 L281 62 L281 -59 L152 -59 L152 62 Z M252 751 C377 751 448 663 448 556 C448 477 394 407 340 362 C295 327 268 288 268 208 L268 144 L161 144 C157 185 155 216 155 246 C155 318 195 364 243 405 C293 447 330 493 330 551 C330 618 299 655 234 655 C186 655 134 630 89 587 L36 663 C93 721 160 751 252 751 L252 751 Z " />
<glyph glyph-name="cid33" unicode="&#x40;" horiz-adv-x="882" d="M559 482 L571 539 L669 539 L577 252 C562 206 562 189 588 189 C645 189 711 280 721 408 C734 573 642 662 489 662 C299 662 178 502 169 316 C159 105 274 17 444 17 C569 17 672 58 724 154 L811 154 C749 16 600 -68 442 -68 C191 -68 53 66 66 325 C77 542 248 746 489 746 C715 746 826 604 812 403 C800 238 685 106 564 106 C514 106 487 139 494 182 C465 129 423 107 373 107 C275 107 236 182 236 268 C236 409 324 554 460 554 C513 554 548 531 559 482 L559 482 Z M330 273 C330 218 345 196 388 196 C463 196 509 317 509 404 C509 446 489 468 454 468 C391 468 330 364 330 273 L330 273 Z " />
<glyph glyph-name="cid34" unicode="A" horiz-adv-x="662" d="M216 252 L446 252 L346 531 L331 579 L316 531 L216 252 Z M394 698 L669 -37 L551 -37 L480 157 L182 157 L111 -37 L-7 -37 L268 698 C272 711 281 719 293 719 L368 719 C381 719 390 711 394 698 L394 698 Z " />
<glyph glyph-name="cid35" unicode="B" horiz-adv-x="664" d="M195 307 L195 58 L322 58 C433 56 485 80 485 182 C485 292 411 307 295 307 L195 307 Z M195 400 L324 400 C393 400 456 426 456 514 C456 608 392 622 317 624 L195 624 L195 400 Z M84 -10 L84 691 C84 712 90 718 111 718 L355 718 C466 718 572 643 572 521 C572 446 526 376 457 356 C545 333 600 263 600 174 C600 74 536 -37 373 -37 L111 -37 C90 -37 84 -31 84 -10 L84 -10 Z " />
<glyph glyph-name="cid36" unicode="C" horiz-adv-x="664" d="M633 515 L516 515 C503 603 444 638 367 638 C211 638 162 488 162 341 C162 194 211 44 367 44 C444 44 499 74 520 175 L637 175 C620 25 501 -52 365 -52 C140 -52 45 135 45 341 C45 543 141 736 365 736 C494 736 617 670 633 515 L633 515 Z " />
<glyph glyph-name="cid37" unicode="D" horiz-adv-x="713" d="M186 58 L303 58 C472 58 547 162 547 340 C547 548 438 630 253 624 L186 624 L186 58 Z M101 719 L275 719 C519 719 662 587 662 341 C662 94 519 -37 275 -37 L101 -37 C80 -37 74 -31 74 -10 L74 692 C74 713 80 719 101 719 L101 719 Z " />
<glyph glyph-name="cid38" unicode="E" horiz-adv-x="609" d="M112 -37 C91 -37 85 -31 85 -10 L85 692 C85 713 91 719 112 719 L541 719 L541 624 L197 624 L197 400 L539 400 L539 305 L197 305 L197 58 L557 58 L557 -37 L112 -37 Z " />
<glyph glyph-name="cid39" unicode="F" horiz-adv-x="555" d="M104 718 L518 718 L518 624 L189 624 L189 404 L515 404 L515 309 L189 309 L189 -37 L77 -37 L77 691 C77 712 83 718 104 718 L104 718 Z " />
<glyph glyph-name="cid40" unicode="G" horiz-adv-x="712" d="M608 365 C629 365 635 359 635 338 L635 63 C635 47 630 35 616 25 C552 -20 474 -52 384 -52 C166 -52 46 103 46 341 C46 567 167 734 368 734 C503 734 627 660 636 504 L523 504 C509 605 441 638 367 638 C220 638 163 504 163 341 C163 175 228 44 396 44 C452 44 494 64 519 80 C522 82 525 82 525 90 L525 271 L363 271 L363 365 L608 365 Z " />
<glyph glyph-name="cid41" unicode="H" horiz-adv-x="718" d="M194 -37 L82 -37 L82 719 L194 719 L194 402 L521 402 L521 719 L634 719 L634 -37 L521 -37 L521 307 L194 307 L194 -37 Z " />
<glyph glyph-name="cid42" unicode="I" horiz-adv-x="283" d="M197 -37 L86 -37 L86 722 L197 722 L197 -37 Z " />
<glyph glyph-name="cid43" unicode="J" horiz-adv-x="500" d="M429 188 C429 21 348 -53 212 -53 C78 -53 6 31 -5 178 L114 178 C115 94 144 43 215 43 C288 43 316 85 316 211 L316 719 L429 719 L429 188 Z " />
<glyph glyph-name="cid44" unicode="K" horiz-adv-x="609" d="M200 -45 L94 -45 L94 711 L200 711 L200 436 L464 711 L608 711 L269 368 L638 -45 L496 -45 L200 290 L200 -45 Z " />
<glyph glyph-name="cid45" unicode="L" horiz-adv-x="555" d="M110 -37 C89 -37 83 -31 83 -10 L83 719 L196 719 L196 58 L542 58 L542 -37 L110 -37 Z " />
<glyph glyph-name="cid46" unicode="M" horiz-adv-x="872" d="M647 696 C652 710 660 719 679 719 L765 719 C786 719 791 713 791 692 L791 -37 L687 -37 L687 566 L674 508 L496 -16 C491 -30 483 -37 469 -37 L406 -37 C392 -37 384 -31 380 -16 L201 507 L189 565 L189 -37 L85 -37 L85 692 C85 713 90 719 111 719 L197 719 C216 719 224 710 229 696 L414 167 L438 83 L462 167 L647 696 Z " />
<glyph glyph-name="cid47" unicode="N" horiz-adv-x="718" d="M503 195 L536 121 L533 198 L533 719 L644 719 L644 -8 C644 -29 639 -35 618 -35 L538 -35 C519 -35 511 -26 506 -12 L217 489 L184 563 L187 486 L187 -37 L76 -37 L76 692 C76 713 81 719 102 719 L179 719 C198 719 206 710 211 696 L503 195 Z " />
<glyph glyph-name="cid48" unicode="O" horiz-adv-x="758" d="M163 341 C163 184 224 44 378 44 C531 44 594 184 594 341 C594 496 531 638 378 638 C224 638 163 496 163 341 L163 341 Z M712 341 C712 109 589 -52 377 -52 C163 -52 46 109 46 341 C46 572 163 734 377 734 C589 734 712 572 712 341 L712 341 Z " />
<glyph glyph-name="cid49" unicode="P" horiz-adv-x="609" d="M475 494 C475 588 420 624 322 624 L194 624 L194 366 L322 366 C420 366 475 400 475 494 L475 494 Z M84 692 C84 713 90 719 111 719 L332 719 C473 719 589 644 589 494 C589 344 473 271 342 271 L195 271 L195 -37 L84 -37 L84 692 Z " />
<glyph glyph-name="cid50" unicode="Q" horiz-adv-x="758" d="M163 338 C163 182 224 40 378 40 C531 40 594 182 594 338 C594 495 531 637 378 637 C224 637 163 495 163 338 L163 338 Z M712 338 C712 129 609 -21 431 -46 C446 -80 474 -90 515 -90 C541 -90 565 -86 612 -73 L612 -161 C572 -175 535 -178 504 -178 C412 -178 341 -143 306 -44 C137 -13 46 134 46 338 C46 571 163 733 377 733 C589 733 712 571 712 338 L712 338 Z " />
<glyph glyph-name="cid51" unicode="R" horiz-adv-x="664" d="M469 515 C469 597 425 624 323 624 L195 624 L195 402 L317 402 C414 402 469 433 469 515 L469 515 Z M112 720 L332 720 C477 720 584 650 584 514 C584 435 530 380 458 360 C540 340 565 279 574 196 C587 78 581 29 617 -36 L489 -36 C472 15 471 80 467 131 C452 295 445 307 341 307 L196 307 L196 -36 L84 -36 L84 692 C84 713 91 720 112 720 L112 720 Z " />
<glyph glyph-name="cid52" unicode="S" horiz-adv-x="601" d="M256 309 C158 342 55 388 55 520 C55 657 182 734 300 734 C363 734 407 723 453 698 C508 669 547 613 548 526 L432 526 C426 615 370 638 305 638 C228 638 171 596 171 531 C171 438 246 421 357 381 C461 343 560 308 561 171 C561 96 531 34 481 -1 C424 -43 368 -52 290 -52 C133 -52 37 33 36 186 L155 186 C153 69 216 44 299 44 C371 44 445 81 445 164 C445 245 387 261 256 309 L256 309 Z " />
<glyph glyph-name="cid53" unicode="T" horiz-adv-x="555" d="M223 -37 L223 624 L0 624 L0 719 L555 719 L555 624 L334 624 L334 -37 L223 -37 Z " />
<glyph glyph-name="cid54" unicode="U" horiz-adv-x="718" d="M80 719 L192 719 L192 230 C197 104 257 43 357 43 C457 43 517 104 523 230 L523 719 L636 719 L636 230 C633 69 541 -53 357 -53 C173 -53 81 69 80 230 L80 719 Z " />
<glyph glyph-name="cid55" unicode="V" horiz-adv-x="621" d="M310 126 L510 719 L633 719 L374 -14 C369 -27 362 -37 347 -37 L273 -37 C259 -37 251 -27 246 -14 L-13 719 L110 719 L310 126 Z " />
<glyph glyph-name="cid56" unicode="W" horiz-adv-x="990" d="M783 -13 C779 -27 771 -37 756 -37 L680 -37 C666 -37 658 -27 654 -14 L493 547 L332 -13 C328 -27 320 -37 305 -37 L229 -37 C215 -37 207 -27 203 -14 L-5 719 L114 719 L268 138 L429 696 C433 709 439 716 454 716 L530 716 C543 716 553 707 556 695 L717 138 L872 719 L993 719 L783 -13 Z " />
<glyph glyph-name="cid57" unicode="X" horiz-adv-x="609" d="M306 262 L120 -37 L-16 -37 L238 351 L-10 719 L128 719 L306 439 L484 719 L622 719 L374 351 L628 -37 L492 -37 L306 262 Z " />
<glyph glyph-name="cid58" unicode="Y" horiz-adv-x="609" d="M362 288 L362 -37 L251 -37 L251 288 L-10 721 L122 721 L308 394 L492 721 L624 721 L362 288 Z " />
<glyph glyph-name="cid59" unicode="Z" horiz-adv-x="555" d="M158 58 L546 58 L546 -37 L48 -37 C30 -37 22 -29 22 -9 L22 26 C22 37 27 49 33 58 L353 561 L397 624 L36 624 L36 719 L507 719 C524 719 533 711 533 691 L533 656 C533 645 529 633 523 624 L203 123 L158 58 Z " />
<glyph glyph-name="cid60" unicode="&#x5b;" horiz-adv-x="310" d="M105 -155 C84 -155 78 -149 78 -128 L78 772 C78 793 84 799 105 799 L289 799 L289 707 L195 707 L195 -65 L289 -65 L289 -155 L105 -155 Z " />
<glyph glyph-name="cid61" unicode="&#x5c;" horiz-adv-x="446" d="M331 -155 L-5 798 L110 798 L451 -155 L331 -155 Z " />
<glyph glyph-name="cid62" unicode="&#x5d;" horiz-adv-x="310" d="M196 -155 L12 -155 L12 -65 L106 -65 L106 707 L12 707 L12 799 L196 799 C217 799 223 793 223 772 L223 -128 C223 -149 217 -155 196 -155 L196 -155 Z " />
<glyph glyph-name="cid63" unicode="&#x5e;" horiz-adv-x="434" d="M269 795 L431 416 L322 416 L219 677 L116 416 L7 416 L167 795 C170 807 186 814 196 814 L238 814 C250 814 267 807 269 795 L269 795 Z " />
<glyph glyph-name="cid64" unicode="&#x5f;" horiz-adv-x="490" d="M494 -190 L-4 -190 L-4 -98 L494 -98 L494 -190 Z " />
<glyph glyph-name="cid65" unicode="&#x60;" horiz-adv-x="291" d="M238 549 L141 549 L25 811 L163 811 L238 549 Z " />
<glyph glyph-name="cid66" unicode="a" horiz-adv-x="506" d="M135 110 C135 51 162 36 218 36 C324 36 343 119 343 206 C286 206 135 219 135 110 L135 110 Z M340 296 L340 319 C335 393 305 411 244 411 C192 411 160 398 153 322 L37 322 C43 449 146 501 246 501 C366 501 448 439 446 316 L446 50 C446 27 447 -5 454 -39 L345 -39 L344 11 C329 -18 273 -55 207 -55 C79 -55 20 6 20 112 C20 185 64 243 129 270 C200 302 297 296 340 296 L340 296 Z " />
<glyph glyph-name="cid67" unicode="b" horiz-adv-x="562" d="M290 413 C198 413 161 337 161 236 C161 123 194 39 296 39 C389 39 416 141 416 233 C416 332 382 413 290 413 L290 413 Z M160 1 L158 -37 L47 -37 C55 1 57 40 57 66 L57 726 L163 726 L163 438 C192 474 241 503 303 503 C468 503 532 367 532 228 C532 85 464 -53 302 -53 C217 -53 169 -19 160 1 L160 1 Z " />
<glyph glyph-name="cid68" unicode="c" horiz-adv-x="506" d="M486 295 L370 295 C365 383 330 411 262 411 C190 411 143 335 143 223 C143 113 190 36 261 36 C324 36 361 65 370 154 L488 154 C468 14 380 -55 264 -55 C105 -55 27 81 27 223 C27 364 111 501 270 501 C382 501 479 427 486 295 L486 295 Z " />
<glyph glyph-name="cid69" unicode="d" horiz-adv-x="562" d="M275 413 C183 413 150 332 150 233 C150 141 176 39 269 39 C371 39 405 123 405 236 C405 336 368 413 275 413 L275 413 Z M406 2 C396 -16 349 -53 263 -53 C102 -53 34 85 34 228 C34 367 97 503 262 503 C326 503 380 476 403 446 L403 726 L508 726 L508 66 C508 40 510 1 518 -37 L408 -37 L406 2 Z " />
<glyph glyph-name="cid70" unicode="e" horiz-adv-x="562" d="M152 281 L407 281 C402 357 361 411 278 411 C199 411 158 348 152 281 L152 281 Z M522 220 C522 202 515 192 498 192 L149 192 C150 106 188 36 287 36 C345 36 384 74 404 154 L522 154 C485 7 399 -55 270 -55 C109 -55 33 81 33 223 C33 364 114 501 275 501 C448 501 522 377 522 220 L522 220 Z " />
<glyph glyph-name="cid71" unicode="f" horiz-adv-x="341" d="M210 -37 L104 -37 L104 399 L4 399 L4 488 L104 488 L104 607 C104 708 167 739 244 739 C266 739 300 733 326 724 L326 638 C303 646 274 650 255 650 C223 650 210 631 210 595 L210 488 L320 488 L320 399 L210 399 L210 -37 Z " />
<glyph glyph-name="cid72" unicode="g" horiz-adv-x="562" d="M272 34 C367 34 404 112 404 211 C404 324 369 408 268 408 C174 408 149 306 149 214 C149 116 182 34 272 34 L272 34 Z M276 -233 C154 -233 63 -185 48 -63 L167 -63 C171 -129 226 -145 279 -145 C362 -145 402 -105 402 -7 L402 9 C377 -25 325 -57 261 -57 C96 -57 33 80 33 219 C33 362 101 499 262 499 C324 499 371 480 400 441 L399 483 L507 483 L507 -20 C507 -153 419 -233 276 -233 L276 -233 Z " />
<glyph glyph-name="cid73" unicode="h" horiz-adv-x="562" d="M174 726 L174 438 C213 479 260 502 317 502 C436 502 509 429 509 306 L509 -37 L398 -37 L398 279 C398 377 366 412 291 412 C234 412 174 365 174 257 L174 -37 L68 -37 L68 726 L174 726 Z " />
<glyph glyph-name="cid74" unicode="i" horiz-adv-x="232" d="M64 498 L173 498 L173 -37 L64 -37 L64 498 Z M177 720 L177 609 L60 609 L60 720 L177 720 Z " />
<glyph glyph-name="cid75" unicode="j" horiz-adv-x="232" d="M-13 -231 L-13 -141 C65 -142 64 -136 64 -2 L64 496 L172 496 L172 -41 C172 -173 164 -235 -13 -231 L-13 -231 Z M177 718 L177 607 L61 607 L61 718 L177 718 Z " />
<glyph glyph-name="cid76" unicode="k" horiz-adv-x="506" d="M179 726 L179 322 L370 488 L517 488 L250 259 L530 -37 L389 -37 L179 190 L179 -37 L73 -37 L73 726 L179 726 Z " />
<glyph glyph-name="cid77" unicode="l" horiz-adv-x="232" d="M173 -37 L64 -37 L64 729 L173 729 L173 -37 Z " />
<glyph glyph-name="cid78" unicode="m" horiz-adv-x="891" d="M379 278 C379 377 355 411 286 411 C231 411 175 364 175 255 L175 -39 L69 -39 L69 485 L177 485 L177 439 C206 480 250 501 310 501 C380 501 430 469 454 412 C488 469 547 501 618 501 C733 501 793 427 793 303 L793 -39 L684 -39 L684 278 C684 378 662 411 592 411 C543 411 494 375 484 293 L484 -39 L379 -39 L379 278 Z " />
<glyph glyph-name="cid79" unicode="n" horiz-adv-x="562" d="M176 485 L176 439 C206 479 253 501 316 501 C435 501 497 427 497 303 L497 -39 L386 -39 L386 278 C386 377 362 411 289 411 C233 411 174 364 174 255 L174 -39 L68 -39 L68 485 L176 485 Z " />
<glyph glyph-name="cid80" unicode="o" horiz-adv-x="549" d="M412 223 C412 314 371 411 275 411 C178 411 138 314 138 223 C138 131 178 36 275 36 C371 36 412 131 412 223 L412 223 Z M275 501 C447 501 527 360 527 223 C527 86 447 -55 275 -55 C102 -55 24 86 24 223 C24 360 102 501 275 501 L275 501 Z " />
<glyph glyph-name="cid81" unicode="p" horiz-adv-x="562" d="M292 409 C198 409 161 331 161 231 C161 119 195 35 296 35 C390 35 416 135 416 228 C416 327 382 409 292 409 L292 409 Z M166 449 C202 479 254 499 303 499 C468 499 532 363 532 223 C532 81 464 -57 302 -57 C245 -57 199 -36 166 0 L166 -233 L57 -233 L57 484 L167 484 L166 449 Z " />
<glyph glyph-name="cid82" unicode="q" horiz-adv-x="562" d="M268 409 C178 409 145 327 145 228 C145 135 170 35 264 35 C365 35 400 119 400 231 C400 330 363 409 268 409 L268 409 Z M503 -233 L395 -233 L395 1 C368 -39 317 -57 258 -57 C96 -57 29 81 29 223 C29 363 92 499 257 499 C321 499 369 477 395 447 L394 484 L503 484 L503 -233 Z " />
<glyph glyph-name="cid83" unicode="r" horiz-adv-x="341" d="M287 398 C227 398 171 363 171 254 L171 -39 L62 -39 L62 485 L173 485 L171 429 C195 461 228 501 283 501 C301 501 324 500 348 491 L348 384 C322 396 303 398 287 398 L287 398 Z " />
<glyph glyph-name="cid84" unicode="s" horiz-adv-x="506" d="M47 343 C47 460 157 501 248 501 C346 501 440 470 454 334 L338 334 C328 387 296 411 244 411 C196 411 160 397 160 352 C160 294 224 306 361 255 C438 230 468 183 468 125 C468 1 355 -55 238 -55 C148 -55 34 -11 27 130 L143 130 C148 49 192 36 249 36 C306 36 352 55 352 113 C352 173 295 177 217 197 C141 216 47 237 47 343 L47 343 Z " />
<glyph glyph-name="cid85" unicode="t" horiz-adv-x="341" d="M212 631 L212 488 L322 488 L322 397 L212 397 L212 101 C212 44 225 35 257 35 C276 35 302 36 328 50 L328 -40 C306 -49 268 -54 246 -54 C169 -54 105 -23 105 80 L105 397 L8 397 L8 488 L105 488 L105 631 L212 631 Z " />
<glyph glyph-name="cid86" unicode="u" horiz-adv-x="562" d="M391 -39 L393 8 C367 -27 320 -55 251 -55 C132 -55 69 19 69 143 L69 485 L180 485 L180 168 C180 69 204 35 277 35 C334 35 393 82 393 191 L393 485 L498 485 L498 -39 L391 -39 Z " />
<glyph glyph-name="cid87" unicode="v" horiz-adv-x="504" d="M192 -20 L-11 486 L107 486 L253 103 L397 486 L516 486 L311 -20 C306 -32 298 -39 283 -39 L218 -39 C202 -39 196 -30 192 -20 L192 -20 Z " />
<glyph glyph-name="cid88" unicode="w" horiz-adv-x="802" d="M293 -19 C289 -31 279 -39 265 -39 L199 -39 C185 -39 178 -30 174 -19 L-8 486 L109 486 L233 110 L341 466 C345 478 353 486 366 486 L432 486 C448 486 455 479 459 466 L567 109 L697 486 L814 486 L625 -19 C620 -33 612 -39 598 -39 L532 -39 C519 -39 511 -32 506 -19 L401 335 L293 -19 Z " />
<glyph glyph-name="cid89" unicode="x" horiz-adv-x="506" d="M-13 -39 L184 233 L-3 486 L122 486 L251 305 L380 486 L505 486 L317 233 L515 -39 L387 -39 L251 164 L114 -39 L-13 -39 Z " />
<glyph glyph-name="cid90" unicode="y" horiz-adv-x="504" d="M-12 484 L108 484 L253 104 L398 484 L515 484 L228 -233 L113 -233 L195 -23 L-12 484 Z " />
<glyph glyph-name="cid91" unicode="z" horiz-adv-x="451" d="M161 51 L425 51 L425 -39 L53 -39 C34 -39 27 -33 27 -12 L27 19 C27 29 31 42 37 52 L256 353 L287 396 L27 396 L27 486 L394 486 C415 486 421 480 421 459 L421 428 C421 418 416 405 410 395 L191 94 L161 51 Z " />
<glyph glyph-name="cid92" unicode="&#x7b;" horiz-adv-x="310" d="M16 297 L16 363 C86 372 101 396 101 462 L101 693 C101 777 138 799 234 799 L301 799 L301 715 L258 713 C226 711 212 708 211 671 L211 437 C211 377 184 343 129 328 C184 313 210 279 210 219 L210 -28 C211 -65 225 -68 257 -70 L300 -72 L300 -156 L233 -156 C137 -156 100 -134 100 -50 L100 198 C100 264 86 288 16 297 L16 297 Z " />
<glyph glyph-name="cid93" unicode="&#x7c;" horiz-adv-x="386" d="M149 -150 L149 796 L257 796 L257 -150 L149 -150 Z " />
<glyph glyph-name="cid94" unicode="&#x7d;" horiz-adv-x="310" d="M294 297 C224 288 210 264 210 198 L210 -50 C210 -134 173 -156 77 -156 L10 -156 L10 -72 L53 -70 C85 -68 99 -65 100 -28 L100 219 C100 279 126 313 181 328 C126 343 99 377 99 437 L99 671 C98 708 84 711 52 713 L9 715 L9 799 L76 799 C172 799 209 777 209 693 L209 462 C209 396 224 372 294 363 L294 297 Z " />
<glyph glyph-name="cid95" unicode="&#x7e;" horiz-adv-x="527" d="M245 290 C210 319 194 331 172 331 C143 331 127 313 100 248 L27 291 C48 363 102 420 172 420 C216 420 249 405 281 379 C316 350 332 339 354 339 C385 339 400 360 428 429 L501 386 C480 304 427 249 353 249 C310 249 277 264 245 290 L245 290 Z " />
<glyph glyph-name="cid208" unicode="&#xa1;" horiz-adv-x="300" d="M196 537 L210 -101 L78 -101 L93 537 L196 537 Z M212 719 L212 592 L77 592 L77 719 L212 719 Z " />
<glyph glyph-name="cid214" unicode="&#xa4;" horiz-adv-x="900" d="M450 554 C310 554 196 440 196 300 C196 160 310 46 450 46 C590 46 705 160 705 300 C705 440 590 554 450 554 L450 554 Z M128 -74 L75 -20 L190 94 C145 151 119 222 119 300 C119 378 146 450 191 507 L75 624 L128 677 L245 560 C301 605 372 632 450 632 C527 632 599 605 654 561 L771 677 L825 623 C820 618 725 530 706 511 C752 454 781 380 781 300 C781 222 755 151 709 94 L824 -20 L771 -74 L656 40 C600 -5 527 -32 450 -32 C372 -32 300 -4 243 41 L128 -74 Z " />
<glyph glyph-name="cid155" unicode="&#xa7;" horiz-adv-x="450" d="M405 272 C405 211 365 160 309 150 C356 113 415 66 415 -1 C415 -76 342 -128 254 -128 C158 -128 64 -68 64 12 C64 47 89 74 124 74 C155 74 179 47 179 15 C179 0 172 -13 172 -27 C172 -46 199 -71 243 -71 C292 -71 325 -40 325 -13 C325 0 323 9 318 16 C308 30 267 66 222 99 C155 148 103 195 77 227 C55 253 44 284 44 316 C44 377 89 432 145 438 C88 491 55 542 55 590 C55 671 132 737 218 737 C312 737 390 673 390 590 C390 555 369 526 334 526 C298 526 277 555 277 590 C277 604 286 617 286 631 C286 649 259 674 216 674 C164 674 138 648 138 610 C138 575 164 539 267 458 C370 376 405 334 405 272 L405 272 Z M315 247 C315 270 307 288 285 314 C262 339 235 360 208 378 C199 384 200 382 190 382 C153 382 127 358 127 330 C127 303 146 273 195 235 C231 207 247 200 271 200 C298 200 315 216 315 247 L315 247 Z " />
<glyph glyph-name="cid107" unicode="&#xa8;" horiz-adv-x="900" d="M609 661 C569 661 538 691 538 732 C538 773 569 801 612 801 C653 801 682 771 682 732 C682 690 653 661 609 661 L609 661 Z M287 661 C247 661 217 691 217 732 C217 773 247 801 291 801 C330 801 361 771 361 732 C361 690 330 661 287 661 L287 661 Z " />
<glyph glyph-name="cid98" unicode="&#xa9;" d="" />
<glyph glyph-name="cid176" unicode="&#xab;" horiz-adv-x="900" d="M865 -28 L817 -85 L310 270 C301 277 290 286 290 300 C290 315 306 327 317 334 L818 685 L862 625 L393 300 L865 -28 Z M626 -28 L578 -85 L70 270 C61 277 50 286 50 300 C50 315 66 327 77 334 L579 685 L623 625 L154 300 L626 -28 Z " />
<glyph glyph-name="cid18276" unicode="&#xae;" horiz-adv-x="900" d="M293 64 L293 539 L501 539 C574 539 624 487 624 408 C624 358 603 320 563 297 C599 279 610 257 612 197 C616 128 621 106 641 64 L569 64 C555 104 551 117 545 189 C541 252 526 270 477 270 L364 270 L364 64 L293 64 Z M364 334 L488 334 C532 334 561 364 561 410 C561 452 533 476 489 476 L364 476 L364 334 Z M50 301 C50 522 229 701 450 701 C671 701 850 523 850 301 C850 80 671 -99 450 -99 C229 -99 50 80 50 301 L50 301 Z M108 301 C108 113 262 -41 450 -41 C637 -41 791 113 791 301 C791 489 637 643 450 643 C262 643 108 490 108 301 L108 301 Z " />
<glyph glyph-name="cid138" unicode="&#xb0;" horiz-adv-x="450" d="M221 777 C285 777 338 725 338 660 C338 595 285 543 221 543 C156 543 104 595 104 660 C104 725 156 777 221 777 L221 777 Z M221 602 C251 602 276 629 276 660 C276 691 251 718 221 718 C191 718 164 691 164 660 C164 629 191 602 221 602 L221 602 Z " />
<glyph glyph-name="cid130" unicode="&#xb1;" horiz-adv-x="900" d="M734 335 L500 335 L500 143 L399 143 L399 335 L166 335 L166 427 L399 427 L399 623 L500 623 L500 427 L734 427 L734 335 Z M734 -16 L166 -16 L166 67 L734 67 L734 -16 Z " />
<glyph glyph-name="cid843" unicode="&#xb2;" horiz-adv-x="450" d="M225 537 L225 494 L20 494 C20 541 38 578 95 615 L140 645 C161 658 174 675 174 695 C174 723 158 740 127 740 C87 740 76 716 76 684 L29 684 C29 732 61 782 127 782 C192 782 223 740 223 695 C223 648 188 625 165 610 C138 592 92 568 78 537 L225 537 Z " />
<glyph glyph-name="cid844" unicode="&#xb3;" horiz-adv-x="450" d="M127 530 C160 530 180 555 180 581 C180 601 165 614 146 620 C131 624 116 622 101 622 L101 665 C114 665 133 663 145 668 C164 676 173 688 173 706 C173 724 157 740 125 740 C88 740 75 717 77 692 L29 692 C27 752 75 782 126 782 C176 782 221 752 221 706 C221 677 205 656 192 646 C215 633 230 611 230 579 C230 529 189 487 127 487 C67 487 19 527 22 585 L71 585 C70 557 86 530 127 530 L127 530 Z " />
<glyph glyph-name="cid199" unicode="&#xb4;" horiz-adv-x="900" d="M554 784 C569 763 568 739 553 727 C506 686 367 629 347 626 C331 624 328 636 339 647 C381 688 443 749 485 784 C499 796 539 805 554 784 L554 784 Z " />
<glyph glyph-name="cid244" unicode="&#xb6;" horiz-adv-x="900" d="M658 730 L735 730 L735 -149 L658 -149 L658 730 Z M473 310 L410 309 C266 307 169 389 169 519 C169 643 248 715 392 726 C455 730 460 730 485 730 L552 728 L552 -149 L474 -149 L473 310 Z M473 657 L436 657 C317 657 248 605 248 521 C248 439 320 382 420 386 L473 387 L473 657 Z " />
<glyph glyph-name="cid206" unicode="&#xb8;" horiz-adv-x="450" d="M123 -177 L136 -140 C160 -145 171 -145 181 -145 C206 -145 222 -129 222 -111 C222 -90 209 -75 156 -73 L215 51 L313 51 L277 -27 C300 -45 312 -66 312 -93 C312 -149 254 -195 196 -195 C180 -195 162 -190 123 -177 L123 -177 Z " />
<glyph glyph-name="cid842" unicode="&#xb9;" horiz-adv-x="450" d="M55 699 L55 733 C76 733 94 737 106 746 C113 752 120 763 120 781 L157 781 L157 490 L114 490 L114 699 L55 699 Z " />
<glyph glyph-name="cid177" unicode="&#xbb;" horiz-adv-x="900" d="M847 300 C847 288 838 280 833 276 C829 272 824 269 819 266 L319 -85 L271 -28 L743 300 L274 625 L318 685 L819 334 C830 327 847 315 847 300 L847 300 Z M608 300 C608 288 599 280 593 276 C590 272 584 269 580 266 L79 -85 L31 -28 L502 300 L34 625 L78 685 L580 334 C590 327 608 315 608 300 L608 300 Z " />
<glyph glyph-name="cid751" unicode="&#xbc;" horiz-adv-x="900" d="M274 329 L198 329 L198 616 L105 616 L105 678 C134 678 162 684 182 697 C197 707 211 728 211 751 L274 751 L274 329 Z M791 671 L123 -147 L62 -103 L732 713 L791 671 Z M811 -95 L752 -95 L752 -160 L676 -160 L676 -95 L474 -95 L474 -23 L679 263 L752 263 L752 -29 L811 -29 L811 -95 Z M676 -32 L676 146 L554 -32 L676 -32 Z " />
<glyph glyph-name="cid748" unicode="&#xbd;" horiz-adv-x="900" d="M274 330 L198 330 L198 616 L104 616 L104 678 C134 678 161 684 181 697 C197 707 210 728 210 751 L274 751 L274 330 Z M814 -169 L505 -169 C505 -109 525 -43 605 9 L681 59 C708 77 734 100 735 137 C736 175 712 205 665 205 C611 205 588 168 589 123 L512 123 C511 194 564 268 665 268 C761 268 812 206 812 137 C812 70 767 35 728 9 C724 6 647 -45 638 -52 C616 -69 599 -90 594 -108 L814 -108 L814 -169 Z M789 671 L120 -147 L59 -103 L728 713 L789 671 Z " />
<glyph glyph-name="cid752" unicode="&#xbe;" horiz-adv-x="900" d="M309 551 C347 535 379 497 379 452 C379 378 312 320 221 320 C132 320 61 378 64 461 L140 461 C136 418 167 386 221 386 C270 386 299 414 302 453 C302 482 281 505 250 513 C230 519 207 517 187 517 L187 582 C211 582 236 583 253 591 C274 601 287 619 289 645 C291 673 267 703 220 703 C170 703 149 671 151 635 L75 635 C72 712 138 764 221 764 C305 764 365 709 365 646 C365 594 332 563 309 551 L309 551 Z M810 671 L141 -147 L80 -103 L750 713 L810 671 Z M810 -96 L751 -96 L751 -161 L675 -161 L675 -96 L473 -96 L473 -24 L678 262 L751 262 L751 -30 L810 -30 L810 -96 Z M675 -33 L675 145 L554 -33 L675 -33 Z " />
<glyph glyph-name="cid209" unicode="&#xbf;" horiz-adv-x="486" d="M338 596 L209 596 L209 717 L338 717 L338 596 Z M238 -93 C113 -93 42 -5 42 102 C42 181 96 251 150 296 C195 331 222 370 222 450 L222 514 L329 514 C333 473 335 442 335 412 C335 340 295 294 247 253 C197 211 160 165 160 107 C160 40 191 3 256 3 C304 3 356 28 401 71 L454 -5 C397 -63 330 -93 238 -93 L238 -93 Z " />
<glyph glyph-name="cid131" unicode="&#xd7;" horiz-adv-x="900" d="M735 89 L669 17 L452 231 L248 25 L176 92 L386 297 L183 499 L255 567 L452 365 L652 563 L717 500 L521 299 L735 89 Z " />
<glyph glyph-name="cid768" unicode="&#xdf;" horiz-adv-x="600" d="M409 353 C515 317 551 242 551 142 C551 5 468 -74 322 -74 C282 -74 257 -70 188 -53 L188 -156 L86 -156 L86 465 C86 589 180 681 302 681 C420 681 508 603 508 502 C508 442 486 390 409 353 L409 353 Z M387 37 C426 57 450 111 450 164 C450 236 405 290 333 299 C321 301 312 301 285 302 L285 394 C373 404 405 430 405 500 C405 555 365 595 306 595 C234 595 188 547 188 476 L188 41 C242 22 261 18 297 18 C333 18 365 24 387 37 L387 37 Z " />
<glyph glyph-name="cid757" unicode="&#xe6;" horiz-adv-x="900" d="M784 173 L498 173 C499 101 535 15 602 15 C647 15 676 52 680 88 L777 88 C757 4 713 -73 604 -73 C563 -73 531 -60 503 -39 C479 -21 461 -4 444 23 C400 -53 315 -74 261 -75 C189 -76 131 -38 114 46 C98 130 142 198 208 227 C257 248 334 254 395 258 L395 321 C395 362 361 407 298 407 C242 407 204 360 203 306 L117 306 C115 415 203 490 299 490 C361 490 426 464 460 406 C494 459 548 489 602 489 C663 489 724 454 758 380 C780 330 792 261 784 173 L784 173 Z M501 260 L688 260 C695 335 661 401 602 401 C543 401 504 333 501 260 L501 260 Z M395 121 L397 173 C355 173 299 172 268 156 C228 135 197 114 207 61 C215 20 259 16 294 21 C325 25 392 46 395 121 L395 121 Z " />
<glyph glyph-name="cid759" unicode="&#xf0;" horiz-adv-x="900" d="M526 538 C636 410 672 307 672 177 C672 10 588 -85 448 -85 C311 -85 220 4 220 135 C220 269 313 364 445 364 C465 364 506 358 530 346 C519 376 508 395 493 416 C480 436 464 456 445 479 L336 409 L286 465 L389 532 C373 543 343 567 333 573 C317 582 306 586 303 589 C297 592 294 593 289 597 L336 676 C388 652 431 626 477 594 L556 651 L605 594 L526 538 Z M445 4 C523 4 567 60 567 149 C567 224 520 272 443 272 C365 272 318 217 318 134 C318 57 367 4 445 4 L445 4 Z " />
<glyph glyph-name="cid132" unicode="&#xf7;" horiz-adv-x="900" d="M449 645 C500 645 529 608 529 565 C529 524 494 489 452 489 C408 489 372 520 372 565 C372 608 405 645 449 645 L449 645 Z M774 257 L129 257 L129 346 L774 346 L774 257 Z M372 38 C372 78 404 116 449 116 C500 116 530 80 530 38 C530 -3 494 -41 453 -40 C408 -40 372 -8 372 38 L372 38 Z " />
<glyph glyph-name="cid766" unicode="&#xf8;" horiz-adv-x="900" d="M720 221 C720 40 612 -81 450 -81 C400 -81 362 -72 319 -45 L253 -138 L189 -82 L254 10 C203 75 181 137 181 211 C181 292 214 372 268 428 C318 470 381 493 455 493 C495 493 536 485 575 465 L639 556 L709 504 L646 414 C699 351 720 297 720 221 L720 221 Z M591 336 L367 23 C389 10 410 6 444 6 C553 6 633 90 633 207 C633 258 622 297 591 336 L591 336 Z M526 396 C504 406 482 410 449 410 C347 410 274 326 274 207 C274 167 285 125 308 89 L526 396 Z " />
<glyph glyph-name="cid769" unicode="&#xfe;" horiz-adv-x="900" d="M338 681 L338 520 C453 546 550 534 617 493 C685 453 724 385 724 301 C724 213 685 143 623 98 C552 45 447 26 338 49 L338 -71 L231 -71 L231 681 L338 681 Z M338 430 L338 134 C408 122 476 124 527 147 C583 172 619 221 617 305 C617 370 581 411 532 430 C477 453 404 451 338 430 L338 430 Z " />
<glyph glyph-name="cid758" unicode="&#x111;" horiz-adv-x="900" d="M702 474 L626 474 L626 -70 L525 -70 L525 -31 C473 -78 426 -90 374 -90 C239 -90 143 12 143 163 C143 312 239 415 374 415 C434 415 482 402 527 356 L527 474 L284 474 L284 547 L527 547 L527 680 L626 680 L626 547 L702 547 L702 474 Z M389 -4 C480 -4 529 67 529 162 C529 256 480 326 389 326 C299 326 248 256 248 162 C248 68 299 -4 389 -4 L389 -4 Z " />
<glyph glyph-name="cid760" unicode="&#x127;" horiz-adv-x="900" d="M679 268 L679 -74 L576 -74 L576 181 C576 274 544 321 479 321 C395 321 358 243 358 161 L358 -74 L256 -74 L256 474 L155 474 L155 548 L256 548 L256 683 L358 683 L358 548 L572 548 L572 474 L358 474 L358 348 C400 403 462 420 536 414 C624 405 679 324 679 268 L679 268 Z " />
<glyph glyph-name="cid761" unicode="&#x131;" horiz-adv-x="900" d="M501 -78 L397 -78 L397 477 L501 477 L501 -78 Z " />
<glyph glyph-name="cid762" unicode="&#x133;" horiz-adv-x="900" d="M659 569 L550 569 L550 680 L659 680 L659 569 Z M351 569 L242 569 L242 680 L351 680 L351 569 Z M657 478 L657 -70 C657 -121 646 -155 626 -175 C605 -198 574 -211 534 -211 L471 -211 L471 -117 C495 -116 518 -116 530 -105 C550 -92 550 -74 550 -47 L550 478 L657 478 Z M351 -71 L242 -71 L242 481 L351 481 L351 -71 Z " />
<glyph glyph-name="cid763" unicode="&#x138;" horiz-adv-x="900" d="M712 -73 L588 -73 L409 170 C382 144 369 131 352 117 L352 -74 L249 -74 L249 474 L352 474 L352 250 C419 313 513 417 555 473 L680 473 C641 417 554 321 476 240 C476 240 690 -46 712 -73 L712 -73 Z " />
<glyph glyph-name="cid764" unicode="&#x140;" horiz-adv-x="900" d="M516 323 C516 362 550 395 588 395 C627 395 662 362 662 323 C662 283 627 250 588 250 C550 250 516 283 516 323 L516 323 Z M428 -72 L323 -72 L323 681 L428 681 L428 -72 Z " />
<glyph glyph-name="cid765" unicode="&#x142;" horiz-adv-x="900" d="M677 464 L504 317 L504 -71 L397 -71 L397 225 L277 124 L231 180 L397 321 L397 682 L504 682 L504 412 L632 519 L677 464 Z " />
<glyph glyph-name="cid772" unicode="&#x149;" horiz-adv-x="900" d="M724 -74 L625 -74 L625 268 C625 368 572 398 513 398 C432 398 380 336 380 247 L380 -74 L281 -74 L281 469 L380 469 L380 413 C424 470 487 497 572 487 C679 475 724 378 724 303 L724 -74 Z M239 599 C275 577 262 540 237 504 C209 464 173 428 142 390 C121 363 92 389 102 412 L169 571 C179 596 212 612 239 599 L239 599 Z " />
<glyph glyph-name="cid771" unicode="&#x14b;" horiz-adv-x="900" d="M662 305 L662 -49 C662 -108 647 -147 632 -167 C617 -188 581 -210 535 -210 L485 -210 L485 -118 C503 -117 527 -116 542 -100 C555 -88 560 -75 562 -60 C563 -50 563 -38 563 -26 L563 261 C563 363 520 399 464 399 C389 399 337 335 337 242 L337 -46 L238 -46 L238 472 L337 472 L337 411 C367 466 431 502 520 490 C617 479 662 379 662 305 L662 305 Z " />
<glyph glyph-name="cid767" unicode="&#x153;" horiz-adv-x="900" d="M810 172 L512 172 C515 101 550 17 613 17 C654 17 684 53 689 80 L796 80 C771 2 721 -76 615 -76 C550 -76 488 -39 453 44 C419 -36 360 -77 293 -77 C173 -77 96 50 96 210 C96 370 173 497 293 497 C359 497 416 459 452 381 C487 456 548 496 613 496 C716 496 818 394 810 172 L810 172 Z M516 263 L707 263 C705 331 668 403 613 403 C557 403 519 336 516 263 L516 263 Z M293 12 C358 12 395 108 395 210 C395 312 358 408 293 408 C229 408 190 312 190 210 C190 108 229 12 293 12 L293 12 Z " />
<glyph glyph-name="cid770" unicode="&#x167;" horiz-adv-x="900" d="M611 248 L489 248 L489 78 C489 38 500 30 537 30 L609 30 L609 -69 L491 -69 C412 -69 387 -31 387 49 L387 248 L261 248 L261 321 L387 321 L387 464 L290 436 L265 500 L387 537 L387 641 L489 641 L489 568 L577 593 L600 528 L489 495 L489 321 L611 321 L611 248 Z " />
<glyph glyph-name="cid8275" unicode="&#x2bc;" d="" />
<glyph glyph-name="cid201" unicode="&#x2c7;" horiz-adv-x="900" d="M656 752 L465 599 C456 592 444 592 435 599 L246 751 C212 778 237 807 275 787 L450 698 L626 788 C664 808 689 779 656 752 L656 752 Z " />
<glyph glyph-name="cid202" unicode="&#x2d8;" horiz-adv-x="900" d="M668 775 C609 681 547 644 457 640 C360 635 288 673 225 769 L278 801 C329 728 379 702 451 704 C518 706 561 730 608 796 L668 775 Z " />
<glyph glyph-name="cid205" unicode="&#x2d9;" horiz-adv-x="900" d="M525 725 C525 685 489 652 451 652 C410 652 379 689 379 727 C379 766 415 798 452 798 C491 798 525 764 525 725 L525 725 Z " />
<glyph glyph-name="cid204" unicode="&#x2da;" horiz-adv-x="900" d="M561 701 C561 643 512 597 452 597 C393 597 345 643 345 701 C345 759 393 805 452 805 C512 805 561 759 561 701 L561 701 Z M506 701 C506 728 482 752 452 752 C423 752 400 728 400 701 C400 674 423 650 452 650 C482 650 506 674 506 701 L506 701 Z " />
<glyph glyph-name="cid207" unicode="&#x2db;" horiz-adv-x="450" d="M174 -109 C174 -74 193 -36 226 -7 C233 -1 239 3 245 3 C254 3 260 -3 260 -12 C260 -18 257 -25 255 -30 C238 -57 235 -71 235 -93 C235 -114 246 -126 260 -126 C270 -126 279 -119 287 -110 L292 -103 C298 -98 303 -91 311 -91 C324 -91 327 -102 327 -111 C327 -155 293 -198 252 -198 C208 -198 174 -157 174 -109 L174 -109 Z " />
<glyph glyph-name="cid200" unicode="&#x2dc;" horiz-adv-x="900" d="M714 758 C700 731 644 654 581 657 C542 659 514 677 491 693 C475 706 455 725 434 729 C385 739 352 719 309 669 C301 659 263 662 277 692 C291 723 353 801 418 797 C458 795 486 775 509 757 C531 742 553 724 579 722 C621 718 664 757 682 782 C696 803 725 784 714 758 L714 758 Z " />
<glyph glyph-name="cid203" unicode="&#x2dd;" horiz-adv-x="900" d="M493 788 C507 767 506 743 492 731 C447 690 315 633 296 630 C281 628 278 640 288 651 C328 692 387 753 427 788 C441 800 479 809 493 788 L493 788 Z M661 788 C675 767 674 743 660 731 C615 690 483 633 464 630 C449 628 446 640 456 651 C496 692 555 753 595 788 C609 800 647 809 661 788 L661 788 Z " />
<glyph glyph-name="cid471" unicode="&#x391;" horiz-adv-x="900" d="M617 205 L582 572 L368 206 L617 205 Z M761 -75 L644 -75 L627 104 L304 104 L191 -75 L69 -75 L553 683 L680 683 L761 -75 Z " />
<glyph glyph-name="cid472" unicode="&#x392;" horiz-adv-x="900" d="M536 684 C608 683 654 668 691 624 C724 589 737 551 737 503 C737 413 690 359 601 318 C671 288 711 225 711 137 C711 74 688 15 644 -22 C604 -59 550 -76 478 -76 L97 -76 L316 685 L536 684 Z M483 372 C569 372 636 429 636 494 C636 552 593 594 528 594 L390 594 L327 372 L483 372 Z M226 15 L478 15 C563 15 617 63 617 138 C617 218 556 280 483 280 L302 280 L226 15 Z " />
<glyph glyph-name="cid473" unicode="&#x393;" horiz-adv-x="900" d="M704 684 L764 522 L668 488 L625 585 L392 585 L203 -75 L90 -75 L308 684 L704 684 Z " />
<glyph glyph-name="cid474" unicode="&#x394;" horiz-adv-x="900" d="M725 -75 L42 -75 L614 683 L726 683 L725 -75 Z M633 23 L635 550 L230 23 L633 23 Z " />
<glyph glyph-name="cid475" unicode="&#x395;" horiz-adv-x="900" d="M668 363 L636 270 L328 270 L249 16 L591 16 L568 -75 L107 -75 L354 683 L779 683 L752 590 L434 590 L359 363 L668 363 Z " />
<glyph glyph-name="cid476" unicode="&#x396;" horiz-adv-x="900" d="M774 684 L751 563 L258 28 L645 28 L627 -74 L117 -74 L139 40 L635 581 L278 581 L295 684 L774 684 Z " />
<glyph glyph-name="cid477" unicode="&#x397;" horiz-adv-x="900" d="M734 683 L842 683 L629 -75 L519 -75 L617 273 L270 273 L172 -75 L59 -75 L277 683 L388 683 L302 374 L646 374 L734 683 Z " />
<glyph glyph-name="cid478" unicode="&#x398;" horiz-adv-x="900" d="M509 690 C678 690 786 589 786 428 C786 304 736 137 674 53 C621 -26 510 -81 401 -81 C339 -81 279 -64 230 -33 C155 10 115 88 115 190 C115 324 172 493 249 586 C302 648 399 690 509 690 L509 690 Z M505 603 C382 603 313 550 257 420 C229 346 212 261 212 192 C212 79 283 8 397 8 C532 8 590 57 644 207 C673 294 690 388 690 451 C690 553 625 603 505 603 L505 603 Z M361 337 L546 337 L559 392 L609 392 L569 213 L518 213 L532 267 L348 267 L334 213 L283 213 L324 392 L374 392 L361 337 Z " />
<glyph glyph-name="cid479" unicode="&#x399;" horiz-adv-x="900" d="M605 684 L399 -74 L288 -74 L491 684 L605 684 Z " />
<glyph glyph-name="cid480" unicode="&#x39a;" horiz-adv-x="900" d="M386 682 L325 359 L652 682 L782 682 L404 309 L689 -73 L563 -73 L310 274 L248 -73 L151 -73 L281 682 L386 682 Z " />
<glyph glyph-name="cid481" unicode="&#x39b;" horiz-adv-x="900" d="M658 -73 L547 -73 L548 566 L217 -73 L105 -73 L500 683 L658 683 L658 -73 Z " />
<glyph glyph-name="cid482" unicode="&#x39c;" horiz-adv-x="900" d="M842 682 L713 -73 L611 -73 L716 524 L415 -73 L357 -73 L264 564 L160 -73 L62 -73 L192 682 L328 682 L416 116 L698 682 L842 682 Z " />
<glyph glyph-name="cid483" unicode="&#x39d;" horiz-adv-x="900" d="M788 683 L642 -74 L524 -74 L330 556 L219 -74 L110 -74 L257 683 L389 683 L573 80 L682 683 L788 683 Z " />
<glyph glyph-name="cid484" unicode="&#x39e;" horiz-adv-x="900" d="M653 535 L662 590 L388 590 L372 535 L296 535 L331 682 L761 682 L724 535 L653 535 Z M257 264 L281 357 L662 357 L640 264 L257 264 Z M670 74 L632 -73 L149 -73 L186 74 L262 74 L249 19 L578 19 L594 74 L670 74 Z " />
<glyph glyph-name="cid485" unicode="&#x39f;" horiz-adv-x="900" d="M486 692 C658 692 760 583 760 399 C760 256 724 132 651 38 C590 -38 510 -81 411 -81 C236 -81 133 29 133 221 C133 358 177 491 255 583 C313 653 392 692 486 692 L486 692 Z M487 612 C419 612 355 575 312 508 C267 437 235 306 235 202 C235 85 300 9 406 9 C502 9 563 64 612 179 C640 256 653 324 653 390 C653 526 593 612 487 612 L487 612 Z " />
<glyph glyph-name="cid486" unicode="&#x3a0;" horiz-adv-x="900" d="M786 682 L765 589 L717 589 L607 -73 L504 -73 L617 589 L338 589 L217 -73 L117 -73 L235 589 L187 589 L206 682 L786 682 Z " />
<glyph glyph-name="cid487" unicode="&#x3a1;" horiz-adv-x="900" d="M293 682 L522 682 C659 682 735 612 735 492 C735 332 650 242 496 242 L309 242 L244 -72 L144 -72 L293 682 Z M328 334 L495 334 C586 334 635 390 635 488 C635 557 597 587 519 587 L367 587 L328 334 Z " />
<glyph glyph-name="cid488" unicode="&#x3a3;" horiz-adv-x="900" d="M280 20 L653 20 L634 -72 L131 -72 L154 31 L425 329 L260 581 L281 682 L752 682 L734 588 L382 588 L551 324 L280 20 Z " />
<glyph glyph-name="cid489" unicode="&#x3a4;" horiz-adv-x="900" d="M194 587 L216 684 L732 684 L708 587 L512 587 L393 -75 L290 -75 L408 587 L194 587 Z " />
<glyph glyph-name="cid490" unicode="&#x3a5;" horiz-adv-x="900" d="M421 517 C451 579 483 611 540 642 C594 674 627 681 728 686 L704 581 C606 572 545 538 499 470 C469 430 441 352 428 274 L371 -76 L275 -76 L338 310 C342 344 345 376 345 399 C345 500 310 558 208 602 L241 692 C329 662 365 634 396 580 C410 558 416 544 421 517 L421 517 Z " />
<glyph glyph-name="cid491" unicode="&#x3a6;" horiz-adv-x="900" d="M573 684 L560 620 C731 590 799 506 799 350 C799 216 737 93 642 37 C590 8 540 -3 437 -3 L421 -75 L326 -75 L343 4 C274 15 240 25 212 41 C140 82 100 161 100 264 C100 393 156 504 251 570 C311 606 365 623 463 627 L473 684 L573 684 Z M455 95 C511 92 545 100 575 117 C657 163 698 246 698 359 C698 422 667 483 618 512 C601 520 590 525 543 530 L455 95 Z M358 105 L449 540 C365 533 340 526 302 497 C232 446 197 371 197 279 C197 182 247 124 358 105 L358 105 Z " />
<glyph glyph-name="cid492" unicode="&#x3a7;" horiz-adv-x="900" d="M797 682 L535 322 L695 -72 L579 -72 L457 241 L228 -72 L104 -72 L403 336 L267 682 L381 682 L485 421 L680 682 L797 682 Z " />
<glyph glyph-name="cid493" unicode="&#x3a8;" horiz-adv-x="900" d="M307 -72 L350 151 C176 160 114 211 114 326 C114 358 125 418 142 506 C150 544 156 581 156 604 C156 637 150 662 138 682 L254 682 C259 668 261 656 261 635 C261 611 251 548 236 486 C216 412 209 373 209 338 C209 321 212 311 225 290 C243 259 275 249 362 246 L436 682 L540 682 L463 242 C631 246 641 267 678 529 C694 627 702 660 715 682 L834 682 C824 671 816 660 811 643 C799 616 784 546 774 481 C755 357 738 298 713 252 C676 182 606 146 494 146 L446 146 L407 -72 L307 -72 Z " />
<glyph glyph-name="cid494" unicode="&#x3a9;" horiz-adv-x="900" d="M116 22 L295 22 C225 94 209 124 189 191 C174 231 168 273 168 320 C168 534 303 688 485 688 C655 688 771 576 771 410 C771 313 743 220 694 155 C671 123 635 92 545 22 L704 22 L686 -73 L424 -73 L453 64 C604 161 668 257 668 393 C668 510 595 593 488 593 C353 593 270 477 270 305 C270 201 300 136 379 61 L345 -73 L92 -73 L116 22 Z " />
<glyph glyph-name="cid495" unicode="&#x3b1;" horiz-adv-x="650" d="M537 465 L628 432 C582 285 540 210 429 74 C443 34 466 21 503 18 L461 -72 C396 -71 377 -59 348 -6 C286 -60 247 -74 189 -74 C88 -74 17 4 17 121 C17 203 47 297 97 370 C148 445 223 488 301 488 C388 488 438 441 438 361 C438 334 433 287 419 194 L421 193 C492 308 511 356 537 465 L537 465 Z M330 83 C331 121 332 132 339 204 C341 223 342 246 345 278 C345 288 345 297 346 300 L346 326 C346 367 324 395 288 395 C207 395 125 249 125 131 C125 65 159 16 215 16 C243 16 271 27 293 44 C296 47 301 51 306 57 C320 69 324 76 330 83 L330 83 Z " />
<glyph glyph-name="cid496" unicode="&#x3b2;" horiz-adv-x="650" d="M56 -154 L163 428 C192 596 277 683 398 683 C497 683 560 622 560 531 C560 447 517 388 414 351 C505 308 540 249 540 153 C540 16 452 -75 326 -75 C269 -75 232 -59 181 -4 L152 -154 L56 -154 Z M295 384 L331 384 C401 384 454 443 454 516 C454 563 432 593 389 593 C327 593 287 536 268 444 L201 118 C200 107 208 78 216 66 C234 33 273 13 315 13 C389 13 433 72 433 158 C433 240 382 298 306 296 L282 295 L295 384 Z " />
<glyph glyph-name="cid497" unicode="&#x3b3;" horiz-adv-x="650" d="M188 -154 L280 255 C293 322 255 372 207 372 C156 372 110 340 73 270 L48 374 C74 418 131 471 211 472 C288 472 335 437 358 381 C388 415 424 456 471 477 L631 477 C542 427 446 338 422 302 C405 277 385 233 375 174 L300 -154 L188 -154 Z " />
<glyph glyph-name="cid498" unicode="&#x3b4;" horiz-adv-x="650" d="M574 665 L559 567 C495 581 478 585 458 588 C435 592 398 594 380 594 C354 594 336 584 334 572 C333 567 349 543 365 530 L378 519 C495 419 534 346 534 234 C534 170 516 104 487 47 C442 -36 376 -79 291 -79 C167 -79 83 11 83 152 C83 239 111 322 156 371 C192 409 232 429 322 445 C196 562 192 568 192 603 C192 656 251 689 390 689 C450 689 492 683 574 665 L574 665 Z M331 360 C255 360 191 250 191 143 C191 69 228 13 291 13 C369 13 432 113 432 221 C432 301 392 360 331 360 L331 360 Z " />
<glyph glyph-name="cid499" unicode="&#x3b5;" horiz-adv-x="650" d="M560 81 L542 -32 C472 -63 390 -78 309 -78 C160 -78 90 -22 90 78 C90 151 118 194 206 224 C161 276 150 300 150 336 C150 426 228 485 367 485 C459 485 515 471 588 427 L567 337 C504 371 434 390 372 390 C308 390 262 373 262 327 C262 290 298 278 346 278 L429 278 L409 180 L342 180 C254 180 207 158 207 97 C207 41 253 19 329 19 C408 19 475 37 560 81 L560 81 Z " />
<glyph glyph-name="cid500" unicode="&#x3b6;" horiz-adv-x="650" d="M178 643 L445 643 C450 649 452 650 454 655 C475 680 484 684 488 684 C492 684 498 682 501 681 L517 666 C544 642 557 631 562 626 C567 622 568 621 569 619 C571 618 572 615 575 612 C575 612 578 605 578 603 C578 598 568 585 554 582 C539 579 531 577 521 567 C466 517 448 498 403 442 C352 380 279 279 245 228 C217 181 204 155 204 133 C204 100 235 88 296 81 C398 65 438 51 466 20 C488 -2 498 -33 498 -70 C498 -165 443 -221 350 -221 C326 -221 290 -219 251 -211 L263 -117 C290 -125 305 -128 326 -128 C366 -128 399 -112 397 -79 C395 -47 368 -30 327 -21 C265 -9 242 -5 233 -3 C230 -2 229 -2 227 -2 C227 -2 226 -2 226 -1 C225 -1 225 -1 223 0 C136 18 99 59 99 124 C99 158 114 195 154 261 C188 310 241 385 276 429 C280 434 305 464 341 505 C347 512 353 521 381 552 L156 552 L178 643 Z " />
<glyph glyph-name="cid501" unicode="&#x3b7;" horiz-adv-x="650" d="M261 410 C320 472 354 487 406 487 C507 487 571 423 571 319 C571 289 567 253 560 216 L494 -153 L381 -153 L445 216 C452 256 456 286 456 302 C456 360 425 397 372 397 C308 397 252 338 241 265 L193 -8 L78 -8 L161 475 L270 475 L261 410 Z " />
<glyph glyph-name="cid502" unicode="&#x3b8;" horiz-adv-x="650" d="M398 686 C506 686 577 600 577 457 C577 320 540 163 485 64 C431 -33 364 -78 275 -78 C157 -78 85 8 85 159 C85 301 126 462 188 562 C238 644 310 686 398 686 L398 686 Z M222 357 L470 357 C471 401 474 437 474 452 C474 545 449 601 386 601 C310 601 266 529 222 357 L222 357 Z M449 272 L197 272 C190 220 187 185 187 157 C187 69 217 10 279 10 C347 10 396 75 432 193 C438 212 439 224 449 272 L449 272 Z " />
<glyph glyph-name="cid503" unicode="&#x3b9;" horiz-adv-x="420" d="M307 476 L238 103 C235 87 235 77 235 66 C235 44 253 26 274 26 C275 26 278 26 281 27 L288 28 C316 34 325 35 334 37 L339 40 L318 -59 C268 -72 239 -77 200 -77 C132 -77 114 -60 114 -8 C114 14 117 35 120 58 L194 476 L307 476 Z " />
<glyph glyph-name="cid504" unicode="&#x3ba;" horiz-adv-x="650" d="M620 477 L296 203 L490 -76 L364 -76 L209 152 L165 -76 L55 -76 L166 477 L273 477 L233 263 L470 477 L620 477 Z " />
<glyph glyph-name="cid505" unicode="&#x3bb;" horiz-adv-x="650" d="M194 594 L243 688 C331 656 378 615 416 534 C436 489 463 407 494 294 C509 232 515 212 523 188 C552 96 579 52 634 1 L542 -77 C485 -8 470 15 445 84 C425 146 407 209 377 345 C347 324 341 316 327 293 C312 265 304 245 263 151 C209 21 166 -29 71 -79 L8 16 C86 42 130 101 195 240 C252 367 275 404 321 453 L325 457 C290 544 262 571 194 594 L194 594 Z " />
<glyph glyph-name="cid506" unicode="&#x3bc;" horiz-adv-x="650" d="M290 475 L244 197 C239 171 236 143 236 120 C236 58 264 13 312 13 C345 13 382 41 403 80 C412 99 422 137 431 187 L480 475 L590 475 L527 114 C522 91 521 77 521 65 C521 42 540 34 566 34 L587 34 L570 -63 C469 -63 458 -57 437 -9 C392 -64 366 -76 315 -76 C265 -76 239 -59 202 13 L171 -161 L58 -161 L178 475 L290 475 Z " />
<glyph glyph-name="cid507" unicode="&#x3bd;" horiz-adv-x="650" d="M641 476 L614 377 C581 376 559 368 541 345 C512 314 500 281 477 188 C469 153 454 95 449 71 C435 22 426 -1 412 -23 C388 -59 351 -78 304 -78 C222 -78 178 -17 170 121 C167 181 164 225 163 239 C157 339 145 379 92 379 C79 379 61 376 28 368 L14 460 C51 473 73 476 105 476 C177 476 216 450 242 390 C259 349 260 334 266 216 C269 157 271 135 271 127 C272 123 272 121 272 120 L272 118 C274 88 275 77 280 66 C287 51 299 35 313 35 C324 35 342 57 352 89 L365 142 C392 238 401 273 402 286 C403 294 403 296 403 297 C404 298 404 299 406 306 C448 437 496 476 626 476 L641 476 Z " />
<glyph glyph-name="cid508" unicode="&#x3be;" horiz-adv-x="650" d="M304 573 L174 573 L197 662 L462 663 C483 664 496 667 505 672 C530 683 541 684 549 684 C556 684 565 679 577 642 C584 623 586 612 586 604 C586 587 584 580 552 580 L524 580 C514 580 497 577 471 574 C398 553 365 538 336 509 C313 485 299 463 299 439 C299 391 363 364 444 364 L467 364 L450 267 C386 267 360 265 325 256 C250 239 198 191 198 129 C198 81 224 68 297 56 C366 46 386 37 411 22 C439 2 459 -37 459 -83 C459 -142 430 -189 384 -207 C362 -217 336 -220 293 -220 C272 -220 256 -220 227 -217 L238 -123 C260 -126 275 -126 286 -126 C326 -126 360 -114 360 -84 C360 -58 345 -45 275 -37 C243 -33 217 -26 197 -20 C130 -1 91 50 91 114 C91 184 129 249 193 287 C212 299 226 304 281 324 C210 362 192 389 192 434 C192 480 217 522 304 573 L304 573 Z " />
<glyph glyph-name="cid509" unicode="&#x3bf;" horiz-adv-x="650" d="M359 493 C483 493 568 403 568 268 C568 182 541 87 498 22 C452 -45 390 -78 304 -78 C170 -78 86 12 86 160 C86 251 120 348 178 416 C220 469 281 493 359 493 L359 493 Z M351 398 C308 398 275 375 250 330 C218 275 198 200 198 135 C198 59 236 13 307 13 C362 13 399 50 427 129 C444 177 456 238 456 287 C456 353 416 398 351 398 L351 398 Z " />
<glyph glyph-name="cid510" unicode="&#x3c0;" horiz-adv-x="650" d="M591 382 L540 382 L529 311 C517 251 510 205 505 181 C502 157 500 130 500 106 C500 60 519 14 561 -18 L467 -80 C404 -35 390 23 390 78 C390 150 404 257 431 382 L236 382 C204 77 185 1 126 -74 L29 -31 C55 3 68 29 80 68 C97 133 103 177 127 377 C97 374 86 372 65 364 L75 461 C100 472 114 474 155 474 L609 474 L591 382 Z " />
<glyph glyph-name="cid511" unicode="&#x3c1;" horiz-adv-x="650" d="M138 -219 L32 -219 L116 156 C163 399 250 497 398 497 C526 497 604 414 604 278 C604 181 564 68 506 7 C464 -42 405 -69 342 -69 C285 -69 250 -54 190 2 L138 -219 Z M392 395 C307 395 235 278 235 162 C235 89 277 31 338 31 C422 31 494 144 494 259 C494 338 453 395 392 395 L392 395 Z " />
<glyph glyph-name="cid512" unicode="&#x3c3;" horiz-adv-x="650" d="M595 582 L616 488 C541 474 513 464 435 429 C515 381 538 338 538 251 C538 187 521 116 491 59 C442 -33 371 -77 271 -77 C139 -77 57 10 57 152 C57 278 127 389 253 464 C324 506 424 544 524 567 C541 571 565 576 595 582 L595 582 Z M323 369 C235 369 168 261 168 141 C168 65 207 17 271 17 C324 17 365 46 392 103 C414 145 430 204 430 243 C430 317 389 369 323 369 L323 369 Z " />
<glyph glyph-name="cid513" unicode="&#x3c4;" horiz-adv-x="650" d="M566 477 L547 370 C509 363 488 360 457 360 C442 360 413 363 372 366 L323 62 C317 22 327 12 413 22 L433 24 L411 -70 C358 -76 322 -79 290 -79 C233 -79 195 -51 203 -6 L208 36 L264 373 C240 375 229 376 222 376 C186 376 138 367 98 355 L109 458 C157 472 185 476 239 476 C262 476 299 474 331 470 L357 468 C396 463 413 461 424 461 C434 460 439 460 450 460 C486 460 514 465 566 477 L566 477 Z " />
<glyph glyph-name="cid514" unicode="&#x3c5;" horiz-adv-x="650" d="M402 399 L437 480 C495 464 511 458 533 441 C562 423 572 405 572 379 C572 373 568 349 564 323 L525 97 C503 -39 455 -78 306 -78 C164 -78 108 -30 108 76 C108 102 113 138 120 173 L148 322 C151 335 153 345 153 347 C153 362 143 376 95 395 L136 480 C237 451 264 424 264 367 C264 356 262 339 260 324 L223 131 C221 119 220 109 220 94 C220 46 254 23 308 23 C373 23 402 55 416 131 L453 322 C455 334 455 341 457 345 C458 370 442 381 402 399 L402 399 Z " />
<glyph glyph-name="cid515" unicode="&#x3c6;" horiz-adv-x="650" d="M247 24 L289 296 C308 423 370 490 460 490 C559 490 624 411 624 285 C624 165 577 46 512 -11 C466 -50 421 -65 328 -74 L307 -204 L211 -204 L231 -72 C163 -62 134 -53 105 -32 C52 7 19 77 19 159 C19 284 91 410 194 461 C216 473 232 478 283 486 L267 380 C229 369 207 356 179 321 C141 274 124 226 124 158 C124 73 154 40 247 24 L247 24 Z M394 305 L344 29 C416 34 451 60 483 119 C503 160 519 229 519 285 C519 348 506 392 465 392 C430 392 401 350 394 305 L394 305 Z " />
<glyph glyph-name="cid516" unicode="&#x3c7;" horiz-adv-x="650" d="M600 477 L396 214 L466 46 C481 10 499 2 542 2 L559 2 L544 -76 L492 -77 C418 -78 391 -60 368 -8 L315 115 L174 -77 L45 -76 L275 215 L215 353 C205 376 182 389 154 389 L130 389 L116 477 L216 477 C266 477 291 460 311 414 L354 315 L475 477 L600 477 Z " />
<glyph glyph-name="cid517" unicode="&#x3c8;" horiz-adv-x="650" d="M428 530 L339 21 C437 23 466 31 497 70 C530 109 546 196 546 315 C546 374 538 403 508 438 L606 478 C643 434 654 389 654 300 C654 213 642 127 622 71 C587 -34 508 -75 321 -74 L299 -196 L201 -196 L224 -66 C62 -55 0 -1 0 100 C0 186 28 328 61 400 C79 439 92 456 123 477 L205 426 C170 392 158 367 142 311 C135 287 124 238 114 172 C110 155 107 139 107 126 C107 59 149 33 241 28 L331 530 L428 530 Z " />
<glyph glyph-name="cid518" unicode="&#x3c9;" horiz-adv-x="650" d="M445 389 L467 483 C521 468 540 459 563 439 C606 397 630 335 630 253 C630 159 597 48 553 -10 C523 -53 477 -77 430 -77 C373 -77 335 -52 298 35 C253 -54 222 -75 164 -75 C76 -75 15 4 15 138 C15 260 66 376 140 432 C187 468 234 481 288 485 L276 389 C232 379 209 366 185 333 C145 286 121 203 121 134 C121 71 135 30 177 30 C221 30 249 82 259 145 L282 293 L389 293 L367 155 C364 137 362 122 362 117 C362 68 384 25 421 25 C485 25 522 126 522 240 C522 334 505 373 445 389 L445 389 Z " />
<glyph glyph-name="cid97" unicode="&#x2010;" d="" />
<glyph glyph-name="cid109" unicode="&#x2013;" horiz-adv-x="900" d="M639 158 L261 158 L261 259 L639 259 L639 158 Z " />
<glyph glyph-name="cid110" unicode="&#x2014;" horiz-adv-x="900" d="M1 339 L901 339 L901 286 L1 286 L1 339 Z " />
<glyph glyph-name="cid111" unicode="&#x2016;" horiz-adv-x="900" d="M585 -192 L520 -192 L520 788 L585 788 L585 -192 Z M378 -192 L314 -192 L314 788 L378 788 L378 -192 Z " />
<glyph glyph-name="cid114" unicode="&#x2018;" horiz-adv-x="290" d="M118 618 C118 717 161 781 246 794 L246 752 C211 742 193 711 196 666 L256 666 L256 543 L140 543 C126 543 118 550 118 565 L118 618 Z " />
<glyph glyph-name="cid115" unicode="&#x2019;" horiz-adv-x="290" d="M180 699 C180 600 137 536 52 523 L52 565 C87 575 105 606 102 651 L42 651 L42 774 L158 774 C172 774 180 767 180 752 L180 699 Z " />
<glyph glyph-name="cid8238" unicode="&#x201b;" d="" />
<glyph glyph-name="cid116" unicode="&#x201c;" horiz-adv-x="410" d="M246 618 C246 717 284 777 369 790 L369 748 C334 738 316 707 319 662 L379 662 L379 543 L268 543 C254 543 246 550 246 565 L246 618 Z M86 618 C86 717 124 777 209 790 L209 748 C174 738 156 707 159 662 L219 662 L219 543 L108 543 C94 543 86 550 86 565 L86 618 Z " />
<glyph glyph-name="cid117" unicode="&#x201d;" horiz-adv-x="410" d="M172 699 C172 600 134 540 49 527 L49 569 C84 579 102 610 99 655 L39 655 L39 774 L150 774 C164 774 172 767 172 752 L172 699 Z M332 699 C332 600 294 540 209 527 L209 569 C244 579 262 610 259 655 L199 655 L199 774 L310 774 C324 774 332 767 332 752 L332 699 Z " />
<glyph glyph-name="cid8237" unicode="&#x201f;" d="" />
<glyph glyph-name="cid245" unicode="&#x2020;" horiz-adv-x="900" d="M702 412 L495 412 L495 -136 L407 -136 L407 412 L198 412 L198 498 L407 498 L407 733 L495 733 L495 498 L702 498 L702 412 Z " />
<glyph glyph-name="cid246" unicode="&#x2021;" horiz-adv-x="900" d="M707 524 L495 524 L495 451 L689 451 L689 365 L495 365 L495 -133 L407 -133 L407 365 L215 365 L215 451 L407 451 L407 524 L197 524 L197 610 L407 610 L407 736 L495 736 L495 610 L707 610 L707 524 Z " />
<glyph glyph-name="cid8607" unicode="&#x2022;" d="" />
<glyph glyph-name="cid105" unicode="&#x2025;" horiz-adv-x="900" d="M301 271 L166 271 L166 398 L301 398 L301 271 Z M736 270 L601 270 L601 397 L736 397 L736 270 Z " />
<glyph glyph-name="&amp;#x2026;" unicode="&#x2026;" horiz-adv-x="900" d="M226 271 L91 271 L91 398 L226 398 L226 271 Z M518 270 L383 270 L383 397 L518 397 L518 270 Z M806 270 L671 270 L671 397 L806 397 L806 270 Z " />
<glyph glyph-name="&amp;#x22ef;" unicode="&#x22ef;" horiz-adv-x="900" d="M226 271 L91 271 L91 398 L226 398 L226 271 Z M518 270 L383 270 L383 397 L518 397 L518 270 Z M806 270 L671 270 L671 397 L806 397 L806 270 Z " />
<glyph glyph-name="cid216" unicode="&#x2030;" horiz-adv-x="900" d="M636 176 C692 255 788 298 853 253 C918 207 911 100 855 21 C800 -60 702 -101 637 -55 C573 -10 580 96 636 176 L636 176 Z M92 569 C148 649 245 691 309 646 C374 600 366 494 311 414 C257 334 158 292 95 338 C30 383 37 489 92 569 L92 569 Z M644 675 L85 -79 L-1 -79 L557 675 L644 675 Z M320 177 C374 256 472 299 536 253 C600 207 593 101 538 22 C483 -58 385 -101 321 -55 C257 -10 264 97 320 177 L320 177 Z M792 66 C834 127 833 180 811 194 C791 209 743 193 699 131 C655 69 657 15 679 1 C698 -13 747 2 792 66 L792 66 Z M248 460 C290 521 288 573 267 588 C248 601 199 586 155 524 C112 462 114 412 135 395 C154 379 203 395 248 460 L248 460 Z M475 67 C518 128 516 180 494 196 C475 209 426 194 383 132 C339 70 342 16 363 2 C383 -12 430 3 475 67 L475 67 Z " />
<glyph glyph-name="cid139" unicode="&#x2032;" horiz-adv-x="450" d="M147 587 L205 738 C215 761 244 778 266 764 C300 744 287 709 266 675 C241 637 210 603 183 566 C166 544 137 560 147 587 L147 587 Z " />
<glyph glyph-name="cid140" unicode="&#x2033;" horiz-adv-x="450" d="M357 680 L248 540 C232 517 201 535 210 559 L278 726 C289 752 323 767 345 752 C371 737 375 701 357 680 L357 680 Z M221 699 L115 559 C99 536 68 554 77 578 L144 745 C155 771 189 787 212 771 C238 757 241 721 221 699 L221 699 Z " />
<glyph glyph-name="cid8582" unicode="&#x2034;" d="" />
<glyph glyph-name="cid9326" unicode="&#x2035;" d="" />
<glyph glyph-name="cid9324" unicode="&#x2036;" d="" />
<glyph glyph-name="cid8612" unicode="&#x2039;" d="" />
<glyph glyph-name="cid8613" unicode="&#x203a;" d="" />
<glyph glyph-name="cid156" unicode="&#x203b;" horiz-adv-x="900" d="M682 319 C682 358 712 391 753 391 C793 391 825 360 825 320 C825 280 794 249 753 249 C714 249 682 280 682 319 L682 319 Z M75 319 C75 358 105 391 146 391 C185 391 217 360 217 320 C217 280 187 249 146 249 C106 249 75 280 75 319 L75 319 Z M378 625 C378 664 408 696 450 696 C489 696 521 664 521 625 C521 584 491 553 450 553 C410 553 378 584 378 625 L378 625 Z M378 15 C378 54 408 86 450 86 C489 86 521 56 521 16 C521 -25 491 -55 450 -55 C410 -55 378 -25 378 15 L378 15 Z M817 634 L505 320 L817 6 L763 -48 L450 265 L136 -48 L82 6 L394 320 L82 634 L136 688 L450 375 L763 688 L817 634 Z " />
<glyph glyph-name="cid8763" unicode="&#x203c;" d="" />
<glyph glyph-name="cid8599" unicode="&#x2042;" d="" />
<glyph glyph-name="cid845" unicode="&#x2074;" horiz-adv-x="450" d="M158 781 L200 781 L200 593 L243 593 L243 551 L200 551 L200 500 L155 500 L155 551 L25 551 L25 596 L158 781 Z M155 593 L155 707 L73 593 L155 593 Z " />
<glyph glyph-name="cid8239" unicode="&#x207a;" d="" />
<glyph glyph-name="cid8240" unicode="&#x207b;" d="" />
<glyph glyph-name="cid8248" unicode="&#x207c;" d="" />
<glyph glyph-name="cid8250" unicode="&#x207d;" d="" />
<glyph glyph-name="cid8251" unicode="&#x207e;" d="" />
<glyph glyph-name="cid846" unicode="&#x207f;" horiz-adv-x="450" d="M65 731 C86 754 118 768 151 768 C210 768 237 711 237 671 L237 489 L193 489 L193 650 C193 694 188 725 140 725 C111 725 67 689 67 646 L67 489 L22 489 L22 759 L65 759 L65 731 Z " />
<glyph glyph-name="cid847" unicode="&#x2081;" horiz-adv-x="450" d="M55 119 L55 153 C76 153 94 157 106 166 C113 172 120 183 120 201 L157 201 L157 -90 L114 -90 L114 119 L55 119 Z " />
<glyph glyph-name="cid848" unicode="&#x2082;" horiz-adv-x="450" d="M225 -43 L225 -86 L20 -86 C20 -39 38 -2 95 35 L140 65 C161 78 174 95 174 115 C174 143 158 160 127 160 C87 160 76 136 76 104 L29 104 C29 152 61 202 127 202 C192 202 223 160 223 115 C223 68 188 45 165 30 C138 12 92 -12 78 -43 L225 -43 Z " />
<glyph glyph-name="cid849" unicode="&#x2083;" horiz-adv-x="450" d="M127 -50 C160 -50 180 -25 180 1 C180 21 165 34 146 40 C131 44 116 42 101 42 L101 85 C114 85 133 83 145 88 C164 96 173 108 173 126 C173 144 157 160 125 160 C88 160 75 137 77 112 L29 112 C27 172 75 202 126 202 C176 202 221 172 221 126 C221 97 205 76 192 66 C215 53 230 31 230 -1 C230 -52 189 -93 127 -93 C67 -93 19 -53 22 5 L71 5 C70 -23 86 -50 127 -50 L127 -50 Z " />
<glyph glyph-name="cid850" unicode="&#x2084;" horiz-adv-x="450" d="M158 201 L200 201 L200 13 L243 13 L243 -29 L200 -29 L200 -80 L155 -80 L155 -29 L25 -29 L25 16 L158 201 Z M155 13 L155 127 L73 13 L155 13 Z " />
<glyph glyph-name="cid96" unicode="&#x20a9;" d="" />
<glyph glyph-name="cid18277" unicode="&#x20ac;" horiz-adv-x="900" d="M202 209 C200 230 199 251 199 273 C199 297 200 320 203 342 L122 342 L129 425 L219 425 C236 483 261 531 294 570 C353 640 436 678 528 678 C603 678 670 657 709 624 L660 554 C623 579 583 592 529 592 C465 592 412 568 376 518 C358 494 344 463 334 425 L549 425 L549 342 L321 342 C320 325 319 306 319 286 C319 259 320 233 322 209 L519 209 L519 126 L340 126 C348 98 360 73 375 53 C411 1 465 -24 537 -24 C595 -24 637 -9 675 19 L725 -48 C674 -86 601 -109 525 -109 C433 -109 352 -75 294 -10 C261 26 235 71 219 126 L109 126 L109 209 L202 209 Z " />
<glyph glyph-name="cid141" unicode="&#x2103;" horiz-adv-x="900" d="M781 441 L672 441 C660 521 608 552 540 552 C400 552 357 419 357 286 C357 154 400 21 540 21 C608 21 657 47 676 139 L785 139 C770 1 661 -69 538 -69 C335 -69 248 101 248 286 C248 468 335 644 537 644 C654 644 767 584 781 441 L781 441 Z M172 741 C235 741 288 688 288 625 C288 562 235 509 172 509 C109 509 56 562 56 625 C56 688 109 741 172 741 L172 741 Z M172 569 C204 569 228 593 228 625 C228 657 204 681 172 681 C140 681 116 657 116 625 C116 593 140 569 172 569 L172 569 Z " />
<glyph glyph-name="cid215" unicode="&#x2109;" horiz-adv-x="900" d="M352 628 L728 628 L728 539 L432 539 L432 345 L725 345 L725 256 L432 256 L432 -56 L327 -56 L327 601 C327 621 333 628 352 628 L352 628 Z M172 741 C235 741 288 688 288 625 C288 562 235 509 172 509 C109 509 56 562 56 625 C56 688 109 741 172 741 L172 741 Z M172 569 C204 569 228 593 228 625 C228 657 204 681 172 681 C140 681 116 657 116 625 C116 593 140 569 172 569 L172 569 Z " />
<glyph glyph-name="cid258" unicode="&#x2116;" horiz-adv-x="900" d="M838 53 C868 53 893 24 893 -7 C893 -39 868 -65 838 -65 C809 -65 783 -39 783 -7 C783 24 809 53 838 53 L838 53 Z M629 431 C741 431 806 322 806 191 C806 60 741 -48 629 -48 C517 -48 451 60 451 191 C451 322 517 431 629 431 L629 431 Z M422 -39 L328 -39 L109 498 L109 -39 L32 -39 L32 650 L127 650 L346 114 L346 650 L422 650 L422 -39 Z M629 30 C694 30 731 99 731 191 C731 281 694 353 629 353 C563 353 527 281 527 191 C527 100 563 30 629 30 L629 30 Z " />
<glyph glyph-name="cid263" unicode="&#x2121;" horiz-adv-x="900" d="M846 -55 L766 -55 L766 593 L846 593 L846 -55 Z M718 132 L411 132 C415 54 470 -1 526 -1 C585 -1 614 30 624 64 L706 64 C685 0 635 -68 526 -68 C411 -68 332 33 332 157 C332 281 408 383 525 383 C630 383 723 301 718 132 L718 132 Z M457 520 L282 520 L282 -56 L202 -56 L202 519 L163 520 L26 520 L26 592 L457 592 L457 520 Z M414 198 L636 198 C632 265 589 317 525 317 C466 317 421 271 414 198 L414 198 Z " />
<glyph glyph-name="cid260" unicode="&#x2122;" horiz-adv-x="900" d="M626 278 L581 278 L483 542 L482 541 L482 278 L428 278 L428 642 L506 642 L603 378 L695 642 L778 642 L778 278 L723 278 L723 548 L722 549 L626 278 Z M214 593 L92 593 L92 642 L393 642 L393 593 L273 593 L273 278 L214 278 L214 593 Z " />
<glyph glyph-name="cid142" unicode="&#x212b;" horiz-adv-x="900" d="M329 665 C329 728 383 781 446 781 C509 781 562 728 562 665 C562 602 509 550 446 550 C383 550 329 602 329 665 L329 665 Z M743 -102 L644 -102 L585 44 L301 44 L243 -102 L145 -102 L391 523 L498 523 L743 -102 Z M500 665 C500 697 476 720 446 720 C415 720 391 697 391 665 C391 634 415 610 446 610 C476 610 500 634 500 665 L500 665 Z M554 126 L445 413 L333 126 L554 126 Z " />
<glyph glyph-name="cid749" unicode="&#x2153;" horiz-adv-x="900" d="M281 329 L205 329 L205 616 L111 616 L111 678 C140 678 167 684 188 697 C203 707 217 728 217 751 L281 751 L281 329 Z M761 57 C799 41 832 3 832 -42 C832 -116 765 -174 673 -174 C582 -174 511 -116 515 -33 L591 -33 C588 -76 619 -108 672 -108 C723 -108 752 -80 753 -41 C755 -13 734 11 701 20 C681 25 658 24 638 24 L638 88 C663 88 688 89 705 97 C725 107 739 124 742 151 C743 179 720 209 672 209 C621 209 600 177 601 141 L527 140 C524 218 590 270 672 270 C757 270 817 216 817 152 C817 100 784 69 761 57 L761 57 Z M789 671 L120 -147 L59 -103 L728 713 L789 671 Z " />
<glyph glyph-name="cid750" unicode="&#x2154;" horiz-adv-x="900" d="M356 327 L50 327 C50 387 70 453 150 505 L226 555 C254 573 279 596 280 633 C281 671 257 702 210 702 C157 702 133 664 134 620 L58 620 C57 690 110 764 210 764 C306 764 356 702 356 633 C356 566 311 532 273 506 C267 502 193 451 183 443 C161 427 145 406 140 388 L356 388 L356 327 Z M801 671 L133 -147 L72 -103 L742 713 L801 671 Z M748 55 C788 39 818 1 818 -44 C818 -118 752 -176 662 -176 C571 -176 500 -118 502 -35 L579 -35 C575 -78 607 -110 661 -110 C709 -110 739 -82 742 -43 C743 -15 720 9 689 17 C670 23 646 22 626 22 L626 85 C651 85 675 87 692 95 C714 105 726 122 728 149 C730 176 707 207 660 207 C608 207 588 174 590 138 L514 138 C510 216 578 268 661 268 C745 268 805 214 805 150 C805 98 772 67 748 55 L748 55 Z " />
<glyph glyph-name="cid753" unicode="&#x215b;" horiz-adv-x="900" d="M278 329 L202 329 L202 615 L108 615 L108 677 C137 677 165 683 185 696 C200 706 214 727 214 750 L278 750 L278 329 Z M810 671 L141 -147 L80 -103 L750 713 L810 671 Z M764 59 C808 36 836 -2 836 -48 C836 -121 761 -178 667 -178 C574 -178 500 -121 500 -48 C500 -2 527 37 572 58 C537 79 515 113 515 150 C515 218 582 268 667 268 C752 268 820 218 820 150 C820 113 799 79 764 59 L764 59 Z M667 89 C717 89 743 115 743 147 C743 179 717 205 667 205 C617 205 593 179 593 147 C593 115 617 89 667 89 L667 89 Z M667 -115 C725 -115 757 -84 757 -46 C757 -6 725 24 667 24 C611 24 579 -6 579 -46 C579 -84 611 -115 667 -115 L667 -115 Z " />
<glyph glyph-name="cid754" unicode="&#x215c;" horiz-adv-x="900" d="M311 550 C350 533 381 495 381 450 C381 376 315 319 224 319 C134 319 63 376 66 459 L142 459 C139 416 170 384 223 384 C272 384 302 412 303 451 C305 480 283 504 252 512 C232 517 209 516 189 516 L189 580 C214 580 238 582 255 589 C275 599 289 617 291 643 C293 671 271 702 223 702 C172 702 151 669 153 633 L78 633 C75 711 140 762 223 762 C308 762 366 708 366 644 C366 592 335 561 311 550 L311 550 Z M810 671 L141 -147 L80 -103 L750 713 L810 671 Z M764 59 C808 36 836 -2 836 -48 C836 -121 761 -178 667 -178 C574 -178 500 -121 500 -48 C500 -2 527 37 572 58 C537 79 515 113 515 150 C515 218 582 268 667 268 C752 268 820 218 820 150 C820 113 799 79 764 59 L764 59 Z M667 89 C717 89 743 115 743 147 C743 179 717 205 667 205 C617 205 593 179 593 147 C593 115 617 89 667 89 L667 89 Z M667 -115 C725 -115 757 -84 757 -46 C757 -6 725 24 667 24 C611 24 579 -6 579 -46 C579 -84 611 -115 667 -115 L667 -115 Z " />
<glyph glyph-name="cid755" unicode="&#x215d;" horiz-adv-x="900" d="M255 614 C303 603 365 566 365 477 C365 383 284 328 210 328 C117 328 60 394 54 456 L130 454 C134 419 164 392 209 392 C254 392 285 425 289 474 C293 525 258 560 212 560 C181 560 157 549 144 531 L63 531 L100 756 L347 756 L347 691 L163 691 L147 600 C175 615 220 622 255 614 L255 614 Z M810 671 L141 -147 L80 -103 L750 713 L810 671 Z M764 59 C808 36 836 -2 836 -48 C836 -121 761 -178 667 -178 C574 -178 500 -121 500 -48 C500 -2 527 37 572 58 C537 79 515 113 515 150 C515 218 582 268 667 268 C752 268 820 218 820 150 C820 113 799 79 764 59 L764 59 Z M667 89 C717 89 743 115 743 147 C743 179 717 205 667 205 C617 205 593 179 593 147 C593 115 617 89 667 89 L667 89 Z M667 -115 C725 -115 757 -84 757 -46 C757 -6 725 24 667 24 C611 24 579 -6 579 -46 C579 -84 611 -115 667 -115 L667 -115 Z " />
<glyph glyph-name="cid756" unicode="&#x215e;" horiz-adv-x="900" d="M393 740 L393 673 C373 652 330 604 296 531 C258 457 239 373 239 327 L158 327 C160 367 176 438 216 517 C252 588 302 650 320 671 L89 671 L89 740 L393 740 Z M764 59 C808 36 836 -2 836 -48 C836 -121 761 -178 667 -178 C574 -178 500 -121 500 -48 C500 -2 527 37 572 58 C537 79 515 113 515 150 C515 218 582 268 667 268 C752 268 820 218 820 150 C820 113 799 79 764 59 L764 59 Z M789 671 L120 -147 L59 -103 L728 713 L789 671 Z M667 89 C717 89 743 115 743 147 C743 179 717 205 667 205 C617 205 593 179 593 147 C593 115 617 89 667 89 L667 89 Z M667 -115 C725 -115 757 -84 757 -46 C757 -6 725 24 667 24 C611 24 579 -6 579 -46 C579 -84 611 -115 667 -115 L667 -115 Z " />
<glyph glyph-name="cid171" unicode="&#x2190;" horiz-adv-x="900" d="M304 268 L334 174 L2 303 L334 427 L304 333 L883 333 L883 268 L304 268 Z " />
<glyph glyph-name="cid172" unicode="&#x2191;" horiz-adv-x="900" d="M482 478 L482 -153 L418 -153 L418 478 L323 448 L450 780 L576 448 L482 478 Z " />
<glyph glyph-name="cid170" unicode="&#x2192;" horiz-adv-x="900" d="M570 174 L600 267 L20 267 L20 332 L600 332 L570 427 L901 303 L570 174 Z " />
<glyph glyph-name="cid173" unicode="&#x2193;" horiz-adv-x="900" d="M450 -179 L323 153 L417 123 L417 755 L482 755 L482 124 L576 154 L450 -179 Z " />
<glyph glyph-name="cid174" unicode="&#x2194;" horiz-adv-x="900" d="M619 135 L649 267 L249 267 L279 135 L-9 300 L279 464 L249 333 L649 333 L619 464 L908 300 L619 135 Z " />
<glyph glyph-name="cid247" unicode="&#x2195;" horiz-adv-x="900" d="M448 -189 L285 99 L417 69 L417 530 L285 500 L448 788 L614 500 L482 530 L482 69 L614 99 L448 -189 Z " />
<glyph glyph-name="cid250" unicode="&#x2196;" horiz-adv-x="900" d="M833 -128 L193 512 L164 422 L12 740 L329 587 L239 558 L878 -82 L833 -128 Z " />
<glyph glyph-name="cid248" unicode="&#x2197;" horiz-adv-x="900" d="M738 422 L709 512 L70 -128 L24 -82 L663 558 L573 587 L890 740 L738 422 Z " />
<glyph glyph-name="cid251" unicode="&#x2198;" horiz-adv-x="900" d="M569 18 L657 47 L19 686 L65 732 L703 93 L734 182 L885 -135 L569 18 Z " />
<glyph glyph-name="cid249" unicode="&#x2199;" horiz-adv-x="900" d="M244 47 L334 18 L17 -135 L169 182 L198 93 L837 732 L883 686 L244 47 Z " />
<glyph glyph-name="cid8868" unicode="&#x21b0;" d="" />
<glyph glyph-name="cid8865" unicode="&#x21b1;" d="" />
<glyph glyph-name="cid8864" unicode="&#x21b2;" d="" />
<glyph glyph-name="cid8869" unicode="&#x21b3;" d="" />
<glyph glyph-name="cid8867" unicode="&#x21b4;" d="" />
<glyph glyph-name="cid8884" unicode="&#x21bc;" d="" />
<glyph glyph-name="cid8885" unicode="&#x21c0;" d="" />
<glyph glyph-name="cid8896" unicode="&#x21c4;" d="" />
<glyph glyph-name="cid8897" unicode="&#x21c5;" d="" />
<glyph glyph-name="cid8816" unicode="&#x21cd;" d="" />
<glyph glyph-name="cid8815" unicode="&#x21cf;" d="" />
<glyph glyph-name="cid8814" unicode="&#x21d0;" d="" />
<glyph glyph-name="cid8854" unicode="&#x21d1;" d="" />
<glyph glyph-name="cid195" unicode="&#x21d2;" horiz-adv-x="900" d="M679 177 L49 177 L49 235 L737 235 L803 299 L737 363 L49 363 L49 421 L679 421 L566 531 L611 573 L887 299 L611 25 L566 67 L679 177 Z " />
<glyph glyph-name="cid8855" unicode="&#x21d3;" d="" />
<glyph glyph-name="cid196" unicode="&#x21d4;" horiz-adv-x="900" d="M678 177 L222 177 L335 67 L291 25 L13 299 L291 573 L335 531 L222 421 L678 421 L565 531 L608 573 L886 299 L608 25 L565 67 L678 177 Z M98 299 L165 235 L735 235 L801 299 L735 363 L165 363 L98 299 Z " />
<glyph glyph-name="cid9190" unicode="&#x21e0;" d="" />
<glyph glyph-name="cid9192" unicode="&#x21e1;" d="" />
<glyph glyph-name="cid9191" unicode="&#x21e2;" d="" />
<glyph glyph-name="cid9193" unicode="&#x21e3;" d="" />
<glyph glyph-name="cid9198" unicode="&#x21e6;" d="" />
<glyph glyph-name="cid9200" unicode="&#x21e7;" d="" />
<glyph glyph-name="cid9199" unicode="&#x21e8;" d="" />
<glyph glyph-name="cid9201" unicode="&#x21e9;" d="" />
<glyph glyph-name="cid197" unicode="&#x2200;" horiz-adv-x="900" d="M778 682 L510 -75 L391 -75 L124 683 L227 683 L292 500 L608 500 L673 682 L778 682 Z M575 403 L325 403 L451 48 L575 403 Z " />
<glyph glyph-name="cid151" unicode="&#x2202;" horiz-adv-x="450" d="M270 719 C370 719 441 634 441 508 C441 406 392 232 335 124 C294 48 234 5 172 5 C120 5 70 30 42 67 C24 91 14 124 14 166 C14 320 111 446 220 447 C265 448 300 428 333 379 C350 456 353 483 353 519 C353 581 323 627 273 627 C237 627 210 600 184 542 L96 588 C112 623 126 645 142 661 C179 698 225 719 270 719 L270 719 Z M246 152 C267 191 282 235 282 271 C282 319 255 361 218 361 C192 361 167 342 146 312 C115 271 101 230 101 178 C101 129 127 94 169 94 C200 94 225 113 246 152 L246 152 Z " />
<glyph glyph-name="cid198" unicode="&#x2203;" horiz-adv-x="900" d="M706 -74 L230 -74 L230 23 L607 23 L607 245 L246 245 L246 342 L607 342 L607 583 L219 583 L219 682 L706 682 L706 -74 Z " />
<glyph glyph-name="cid8715" unicode="&#x2206;" d="" />
<glyph glyph-name="cid152" unicode="&#x2207;" horiz-adv-x="900" d="M893 675 L450 -91 L6 675 L893 675 Z M788 616 L111 616 L450 31 L788 616 Z " />
<glyph glyph-name="cid184" unicode="&#x2208;" horiz-adv-x="900" d="M806 264 L147 264 C152 192 221 80 374 80 L807 80 L807 10 L385 10 C191 10 72 136 72 300 C72 463 191 590 385 590 L807 590 L807 520 L374 520 C221 520 152 407 147 336 L806 336 L806 264 Z " />
<glyph glyph-name="cid8749" unicode="&#x2209;" d="" />
<glyph glyph-name="cid185" unicode="&#x220b;" horiz-adv-x="900" d="M93 264 L93 336 L752 336 C747 407 679 520 525 520 L92 520 L92 590 L514 590 C708 590 827 463 827 300 C827 136 708 10 514 10 L92 10 L92 80 L525 80 C679 80 747 192 752 264 L93 264 Z " />
<glyph glyph-name="cid8750" unicode="&#x220c;" d="" />
<glyph glyph-name="cid213" unicode="&#x220f;" horiz-adv-x="900" d="M787 551 L642 551 L642 -49 L547 -49 L547 551 L355 551 L355 -49 L261 -49 L261 551 L118 551 L118 652 L787 652 L787 551 Z " />
<glyph glyph-name="cid212" unicode="&#x2211;" horiz-adv-x="900" d="M772 693 L758 596 L378 596 L558 354 L276 83 L688 83 L664 -13 L131 -13 L150 71 L444 365 L265 609 L290 693 L772 693 Z " />
<glyph glyph-name="cid8726" unicode="&#x2213;" d="" />
<glyph glyph-name="cid178" unicode="&#x221a;" horiz-adv-x="900" d="M543 724 L275 -114 L114 299 L62 242 L36 285 L158 414 L284 93 L498 781 L843 781 L843 724 L543 724 Z " />
<glyph glyph-name="cid180" unicode="&#x221d;" horiz-adv-x="900" d="M826 140 C771 105 738 93 689 93 C583 93 523 163 494 208 C465 164 403 93 302 93 C185 93 90 185 90 300 C90 415 185 507 302 507 C403 507 465 435 494 391 C524 435 585 507 689 507 C736 507 774 495 824 459 L779 393 C742 420 723 425 689 425 C590 425 548 328 539 300 C548 272 590 175 689 175 C721 175 743 182 778 206 L826 140 Z M451 300 C438 329 392 425 302 425 C230 425 172 370 172 300 C172 230 230 175 302 175 C392 175 438 271 451 300 L451 300 Z " />
<glyph glyph-name="cid136" unicode="&#x221e;" horiz-adv-x="900" d="M816 300 C816 200 730 119 627 119 C532 119 473 191 450 229 C427 191 370 119 272 119 C169 119 83 200 83 300 C83 400 169 481 272 481 C370 481 427 409 450 371 C473 409 530 481 627 481 C730 481 816 400 816 300 L816 300 Z M403 300 C393 323 352 412 272 412 C208 412 156 362 156 300 C156 238 208 188 272 188 C352 188 393 277 403 300 L403 300 Z M496 300 C506 277 547 188 627 188 C691 188 744 238 744 300 C744 362 691 412 627 412 C547 412 506 323 496 300 L496 300 Z " />
<glyph glyph-name="cid8717" unicode="&#x221f;" d="" />
<glyph glyph-name="cid148" unicode="&#x2220;" horiz-adv-x="900" d="M824 -38 L117 -38 C84 -38 69 -11 88 15 C93 21 99 27 104 32 L714 648 L772 593 L220 38 L824 38 L824 -38 Z " />
<glyph glyph-name="cid8738" unicode="&#x2222;" d="" />
<glyph glyph-name="cid8719" unicode="&#x2225;" d="" />
<glyph glyph-name="cid8720" unicode="&#x2226;" d="" />
<glyph glyph-name="cid192" unicode="&#x2227;" horiz-adv-x="900" d="M450 519 L165 -65 L91 -25 L410 627 C415 637 432 659 450 659 C470 659 482 640 490 627 L808 -25 L734 -65 L450 519 Z " />
<glyph glyph-name="cid193" unicode="&#x2228;" horiz-adv-x="900" d="M490 -25 C482 -38 470 -58 450 -58 C432 -58 415 -35 410 -25 L91 627 L165 667 L450 83 L734 667 L808 627 L490 -25 Z " />
<glyph glyph-name="cid191" unicode="&#x2229;" horiz-adv-x="900" d="M664 -70 L664 376 C664 535 545 601 455 601 L445 601 C354 601 236 536 236 376 L236 -70 L149 -70 L149 365 C149 564 280 690 450 690 C618 690 751 564 751 365 L751 -70 L664 -70 Z " />
<glyph glyph-name="cid190" unicode="&#x222a;" horiz-adv-x="900" d="M736 235 C736 36 605 -90 436 -90 C266 -90 135 36 135 235 L135 670 L221 670 L221 224 C221 64 339 -1 430 -1 L441 -1 C530 -1 650 64 650 224 L650 670 L736 670 L736 235 Z " />
<glyph glyph-name="cid182" unicode="&#x222b;" horiz-adv-x="900" d="M583 730 C645 730 685 702 685 662 C685 630 662 606 629 606 C598 606 579 625 579 657 L579 677 C579 690 574 696 563 696 C543 696 529 682 516 652 C499 618 492 586 492 535 C492 507 496 446 500 392 C503 330 506 281 506 231 C506 153 498 84 484 44 C457 -40 383 -94 296 -94 C242 -94 208 -65 208 -23 C208 5 230 27 263 27 C293 27 315 5 317 -31 C318 -48 320 -53 334 -53 C385 -53 432 40 432 134 C432 145 429 167 429 178 L428 212 C427 234 426 235 424 255 C424 262 423 269 423 278 C418 340 415 398 415 447 C415 545 432 625 460 666 C489 707 534 730 583 730 L583 730 Z " />
<glyph glyph-name="cid183" unicode="&#x222c;" horiz-adv-x="900" d="M691 730 C728 730 757 704 757 672 C757 646 736 626 707 626 C682 626 664 640 654 664 C650 678 644 686 642 686 C639 686 634 678 627 667 C610 629 611 630 608 618 C607 614 606 610 605 605 C600 585 598 560 598 542 L601 356 C603 264 603 259 603 255 C603 233 605 223 603 219 C602 126 588 55 558 -2 C532 -56 475 -95 427 -95 C390 -95 365 -73 365 -42 C365 -18 383 1 408 1 C428 1 442 -8 450 -32 C455 -46 461 -53 465 -53 C479 -52 490 -40 498 -19 C511 13 520 48 527 90 C529 105 532 117 534 138 C535 158 536 167 536 172 L534 282 L530 392 L528 501 C526 623 606 730 691 730 L691 730 Z M476 730 C510 730 538 704 538 672 C538 645 519 626 491 626 C470 626 448 641 439 664 C436 678 429 686 428 686 C425 686 409 660 400 636 C390 609 383 574 383 543 L385 451 C391 237 389 266 389 256 L389 233 C389 134 374 56 344 -1 C317 -53 256 -94 207 -94 C174 -94 150 -71 150 -42 C150 -18 170 4 193 4 C214 4 228 -7 235 -32 C239 -47 246 -54 252 -54 C262 -54 275 -37 283 -20 C307 36 321 125 320 199 L317 363 C317 364 315 421 315 446 C311 545 321 588 345 634 C374 692 428 730 476 730 L476 730 Z " />
<glyph glyph-name="cid211" unicode="&#x222e;" horiz-adv-x="900" d="M684 648 C684 616 665 598 634 598 C602 598 591 615 589 631 C584 646 585 670 569 668 C557 667 550 660 538 637 C520 598 515 576 508 516 C506 503 505 481 499 435 C573 412 610 364 610 292 C610 215 563 162 480 146 C474 65 466 23 452 -13 C424 -83 373 -116 302 -116 C248 -116 215 -94 215 -52 C215 -21 236 1 266 1 C296 1 317 -15 321 -43 C325 -62 325 -75 337 -75 C355 -75 383 -47 394 -1 C401 21 406 52 409 80 C409 92 410 115 412 151 C342 172 301 220 301 291 C301 366 346 414 427 438 C434 496 439 532 450 565 C479 659 534 714 608 714 C654 714 684 691 684 648 L684 648 Z M572 294 C572 340 555 365 497 397 C493 376 494 364 493 356 L488 273 C484 232 483 216 483 207 L483 184 C544 203 572 240 572 294 L572 294 Z M424 399 C369 375 341 341 341 292 C341 246 365 217 414 193 C416 284 418 325 424 399 L424 399 Z " />
<glyph glyph-name="cid137" unicode="&#x2234;" horiz-adv-x="900" d="M454 598 C493 598 527 565 527 522 C527 478 493 446 454 446 C410 446 378 478 378 522 C378 565 410 598 454 598 L454 598 Z M719 160 C760 160 793 127 793 84 C793 40 760 8 719 8 C676 8 644 40 644 84 C644 127 676 160 719 160 L719 160 Z M182 160 C221 160 256 127 256 84 C256 40 221 8 182 8 C139 8 106 40 106 84 C106 127 139 160 182 160 L182 160 Z " />
<glyph glyph-name="cid181" unicode="&#x2235;" horiz-adv-x="900" d="M446 9 C406 9 372 42 372 85 C372 129 406 161 446 161 C489 161 521 129 521 85 C521 42 489 9 446 9 L446 9 Z M180 447 C140 447 106 480 106 523 C106 567 140 599 180 599 C223 599 256 567 256 523 C256 480 223 447 180 447 L180 447 Z M717 447 C678 447 644 480 644 523 C644 567 678 599 717 599 C761 599 793 567 793 523 C793 480 761 447 717 447 L717 447 Z " />
<glyph glyph-name="cid210" unicode="&#x2236;" horiz-adv-x="450" d="M225 401 L117 585 L328 585 L225 401 Z M117 111 L225 295 L328 111 L117 111 Z " />
<glyph glyph-name="cid8321" unicode="&#x2237;" d="" />
<glyph glyph-name="cid179" unicode="&#x223d;" horiz-adv-x="900" d="M852 291 C850 187 772 99 651 99 C575 99 529 133 512 146 L552 218 C561 212 608 181 655 181 C720 181 769 232 770 285 C770 361 725 416 651 419 C563 423 520 348 484 276 C462 229 392 92 245 101 C147 107 44 178 47 310 C49 407 127 502 248 502 C324 502 370 468 387 454 L348 387 C346 389 293 422 245 422 C93 422 85 188 250 179 C346 174 396 290 437 358 C484 439 545 503 654 500 C752 497 856 427 852 291 L852 291 Z " />
<glyph glyph-name="cid8500" unicode="&#x2243;" d="" />
<glyph glyph-name="cid8499" unicode="&#x2245;" d="" />
<glyph glyph-name="cid8501" unicode="&#x2248;" d="" />
<glyph glyph-name="cid8739" unicode="&#x2250;" d="" />
<glyph glyph-name="cid8723" unicode="&#x2251;" d="" />
<glyph glyph-name="cid154" unicode="&#x2252;" horiz-adv-x="900" d="M105 421 L795 421 L795 344 L105 344 L105 421 Z M105 256 L795 256 L795 179 L105 179 L105 256 Z M196 559 C196 603 229 637 273 637 C317 637 349 603 349 559 C349 516 317 481 273 481 C229 481 196 516 196 559 L196 559 Z M551 42 C551 84 585 120 627 120 C670 120 705 84 705 42 C705 -1 670 -36 627 -36 C585 -36 551 -1 551 42 L551 42 Z " />
<glyph glyph-name="cid8722" unicode="&#x2253;" d="" />
<glyph glyph-name="cid8753" unicode="&#x225a;" d="" />
<glyph glyph-name="cid133" unicode="&#x2260;" horiz-adv-x="900" d="M170 21 L282 165 L106 165 L106 242 L342 242 L455 387 L106 387 L106 464 L515 464 L647 635 L710 584 L617 464 L791 464 L791 387 L557 387 L446 242 L791 242 L791 165 L386 165 L234 -30 L170 21 Z " />
<glyph glyph-name="cid153" unicode="&#x2261;" horiz-adv-x="900" d="M104 432 L104 502 L796 502 L796 432 L104 432 Z M103 265 L103 335 L796 335 L796 265 L103 265 Z M103 98 L103 168 L796 168 L796 98 L103 98 Z " />
<glyph glyph-name="cid8734" unicode="&#x2262;" d="" />
<glyph glyph-name="cid134" unicode="&#x2264;" horiz-adv-x="900" d="M729 226 L685 144 L161 413 C156 416 140 426 140 431 C140 437 154 446 161 449 L672 716 L715 633 L345 432 L729 226 Z M753 -12 L137 -12 L137 80 L753 80 L753 -12 Z " />
<glyph glyph-name="cid135" unicode="&#x2265;" horiz-adv-x="900" d="M727 449 C735 446 750 437 750 431 C750 426 734 416 727 413 L203 144 L158 226 L545 432 L175 633 L217 716 L727 449 Z M752 -12 L136 -12 L136 80 L752 80 L752 -12 Z " />
<glyph glyph-name="cid8724" unicode="&#x2266;" d="" />
<glyph glyph-name="cid8725" unicode="&#x2267;" d="" />
<glyph glyph-name="cid8745" unicode="&#x226e;" d="" />
<glyph glyph-name="cid8746" unicode="&#x226f;" d="" />
<glyph glyph-name="cid8481" unicode="&#x2270;" d="" />
<glyph glyph-name="cid8482" unicode="&#x2271;" d="" />
<glyph glyph-name="cid8483" unicode="&#x2272;" d="" />
<glyph glyph-name="cid8484" unicode="&#x2273;" d="" />
<glyph glyph-name="cid8489" unicode="&#x2276;" d="" />
<glyph glyph-name="cid8490" unicode="&#x2277;" d="" />
<glyph glyph-name="cid8491" unicode="&#x2279;" d="" />
<glyph glyph-name="cid8475" unicode="&#x227a;" d="" />
<glyph glyph-name="cid8476" unicode="&#x227b;" d="" />
<glyph glyph-name="cid8479" unicode="&#x2280;" d="" />
<glyph glyph-name="cid8480" unicode="&#x2281;" d="" />
<glyph glyph-name="cid188" unicode="&#x2282;" horiz-adv-x="900" d="M391 0 L391 -1 C185 -1 60 130 60 300 C60 469 185 601 384 601 L819 601 L819 515 L374 515 C215 515 149 395 149 305 L149 295 C149 204 214 86 374 86 L819 86 L819 0 L391 0 Z " />
<glyph glyph-name="cid189" unicode="&#x2283;" horiz-adv-x="900" d="M515 0 L80 -1 L80 85 L526 85 C685 85 751 204 751 295 L751 305 C751 395 685 514 526 514 L80 514 L80 601 L515 601 C714 601 839 469 839 300 C839 130 714 0 515 0 L515 0 Z " />
<glyph glyph-name="cid8748" unicode="&#x2284;" d="" />
<glyph glyph-name="cid8747" unicode="&#x2285;" d="" />
<glyph glyph-name="cid186" unicode="&#x2286;" horiz-adv-x="900" d="M391 119 L391 118 C166 118 60 234 60 379 C60 525 167 641 384 641 L819 641 L819 554 L373 554 C208 554 148 464 148 379 C148 292 208 205 373 205 L819 205 L819 119 L391 119 Z M60 -41 L60 47 L839 47 L839 -41 L60 -41 Z " />
<glyph glyph-name="cid187" unicode="&#x2287;" horiz-adv-x="900" d="M515 119 L80 118 L80 204 L527 204 C691 204 752 292 752 379 C752 464 691 553 527 553 L80 553 L80 641 L515 641 C732 641 839 525 839 379 C839 234 734 119 515 119 L515 119 Z M60 -41 L60 47 L839 47 L839 -41 L60 -41 Z " />
<glyph glyph-name="cid8486" unicode="&#x228a;" d="" />
<glyph glyph-name="cid8488" unicode="&#x228b;" d="" />
<glyph glyph-name="cid8727" unicode="&#x2295;" d="" />
<glyph glyph-name="cid8728" unicode="&#x2296;" d="" />
<glyph glyph-name="cid8729" unicode="&#x2297;" d="" />
<glyph glyph-name="cid8742" unicode="&#x22a3;" d="" />
<glyph glyph-name="cid8503" unicode="&#x22a4;" d="" />
<glyph glyph-name="cid149" unicode="&#x22a5;" horiz-adv-x="900" d="M408 42 L408 608 L492 608 L492 42 L797 42 L797 -25 L103 -25 L103 42 L408 42 Z " />
<glyph glyph-name="cid8751" unicode="&#x22bb;" d="" />
<glyph glyph-name="cid8752" unicode="&#x22bc;" d="" />
<glyph glyph-name="cid8477" unicode="&#x22ce;" d="" />
<glyph glyph-name="cid8478" unicode="&#x22cf;" d="" />
<glyph glyph-name="cid8492" unicode="&#x22da;" d="" />
<glyph glyph-name="cid8493" unicode="&#x22db;" d="" />
<glyph glyph-name="cid8320" unicode="&#x22ee;" d="" />
<glyph glyph-name="cid8754" unicode="&#x2306;" d="" />
<glyph glyph-name="cid150" unicode="&#x2312;" horiz-adv-x="900" d="M156 551 L81 551 C111 696 261 797 443 797 C625 797 775 696 805 551 L730 551 C705 666 583 738 443 738 C301 738 183 667 156 551 L156 551 Z " />
<glyph glyph-name="cid8731" unicode="&#x2314;" d="" />
<glyph glyph-name="cid733" unicode="&#x2460;" horiz-adv-x="900" d="M450 736 C689 736 886 544 886 301 C886 60 691 -135 450 -135 C209 -135 14 60 14 301 C14 544 211 736 450 736 L450 736 Z M450 703 C231 703 48 525 48 301 C48 80 229 -101 450 -101 C672 -101 852 80 852 301 C852 525 669 703 450 703 L450 703 Z M498 40 L419 40 L419 419 L338 419 L338 476 C392 485 420 499 438 562 L498 562 L498 40 Z " />
<glyph glyph-name="cid734" unicode="&#x2461;" horiz-adv-x="900" d="M450 737 C689 737 886 544 886 301 C886 60 691 -135 450 -135 C209 -135 14 60 14 301 C14 544 211 737 450 737 L450 737 Z M600 106 L600 40 L296 40 C302 121 328 171 404 249 C473 321 526 335 526 419 C526 478 492 508 461 508 C391 508 385 413 384 382 L307 382 C312 473 342 575 460 575 C531 575 600 529 600 422 C600 345 569 303 497 242 C415 169 404 141 393 106 L600 106 Z M450 703 C231 703 48 525 48 301 C48 80 229 -101 450 -101 C672 -101 852 80 852 301 C852 525 669 703 450 703 L450 703 Z " />
<glyph glyph-name="cid735" unicode="&#x2462;" horiz-adv-x="900" d="M450 737 C689 737 886 544 886 301 C886 60 691 -135 450 -135 C209 -135 14 60 14 301 C14 544 211 737 450 737 L450 737 Z M447 287 L419 287 L419 345 C475 345 516 359 516 427 C516 473 490 508 454 508 C405 508 391 458 386 413 L311 413 C317 526 377 575 455 575 C532 575 592 525 592 438 C592 352 544 330 527 321 C550 312 603 291 603 196 C603 97 543 26 449 26 C345 26 301 108 296 207 L372 207 C375 163 379 93 450 93 C490 93 528 127 528 193 C528 247 505 287 447 287 L447 287 Z M450 703 C231 703 48 525 48 301 C48 80 229 -101 450 -101 C672 -101 852 80 852 301 C852 525 669 703 450 703 L450 703 Z " />
<glyph glyph-name="cid736" unicode="&#x2463;" horiz-adv-x="900" d="M450 737 C689 737 886 544 886 301 C886 60 691 -135 450 -135 C209 -135 14 60 14 301 C14 544 211 737 450 737 L450 737 Z M275 236 L461 570 L533 570 L533 236 L584 236 L584 169 L533 169 L533 48 L458 48 L458 169 L275 169 L275 236 Z M341 236 L459 236 L459 443 L341 236 Z M450 703 C231 703 48 525 48 301 C48 80 229 -101 450 -101 C672 -101 852 80 852 301 C852 525 669 703 450 703 L450 703 Z " />
<glyph glyph-name="cid737" unicode="&#x2464;" horiz-adv-x="900" d="M886 301 C886 60 691 -135 450 -135 C209 -135 14 60 14 301 C14 544 211 737 450 737 C689 737 886 544 886 301 L886 301 Z M852 301 C852 525 669 703 450 703 C231 703 48 525 48 301 C48 80 229 -101 450 -101 C672 -101 852 80 852 301 L852 301 Z M603 211 C603 106 544 26 445 26 C335 26 303 122 298 180 L374 180 C380 148 391 93 445 93 C501 93 526 155 526 214 C526 251 509 324 454 324 C440 324 408 312 392 279 L313 279 L350 562 L579 562 L579 495 L418 495 L401 353 C408 361 428 384 473 384 C550 384 603 314 603 211 L603 211 Z " />
<glyph glyph-name="cid738" unicode="&#x2465;" horiz-adv-x="900" d="M450 737 C689 737 886 544 886 301 C886 60 691 -135 450 -135 C209 -135 14 60 14 301 C14 544 211 737 450 737 L450 737 Z M596 439 L519 439 C513 483 492 508 460 508 C380 508 374 377 372 320 C383 341 405 383 468 383 C520 383 603 345 603 213 C603 101 540 26 456 26 C322 26 296 198 296 293 C296 364 309 442 337 495 C371 557 422 575 461 575 C544 575 588 501 596 439 L596 439 Z M452 93 C494 93 525 135 525 209 C525 259 508 320 454 320 C413 320 380 277 380 211 C380 175 392 93 452 93 L452 93 Z M450 703 C231 703 48 525 48 301 C48 80 229 -101 450 -101 C672 -101 852 80 852 301 C852 525 669 703 450 703 L450 703 Z " />
<glyph glyph-name="cid739" unicode="&#x2466;" horiz-adv-x="900" d="M886 301 C886 60 691 -135 450 -135 C209 -135 14 60 14 301 C14 544 211 737 450 737 C689 737 886 544 886 301 L886 301 Z M852 301 C852 525 669 703 450 703 C231 703 48 525 48 301 C48 80 229 -101 450 -101 C672 -101 852 80 852 301 L852 301 Z M605 476 C499 325 458 180 447 23 L369 23 C377 154 423 318 526 476 L308 476 L308 543 L605 543 L605 476 Z " />
<glyph glyph-name="cid740" unicode="&#x2467;" horiz-adv-x="900" d="M603 185 C603 94 549 26 450 26 C350 26 297 94 297 185 C297 266 343 302 376 320 C325 346 312 400 312 435 C312 512 361 576 450 576 C538 576 588 513 588 435 C588 401 575 346 525 320 C548 308 603 278 603 185 L603 185 Z M512 425 C511 471 493 509 450 509 C399 509 388 458 388 426 C388 381 407 343 450 343 C507 343 512 403 512 425 L512 425 Z M526 190 C526 239 504 290 450 290 C399 290 374 241 374 190 C374 149 390 93 450 93 C510 93 526 151 526 190 L526 190 Z M886 301 C886 60 691 -135 450 -135 C209 -135 14 60 14 301 C14 544 211 737 450 737 C689 737 886 544 886 301 L886 301 Z M852 301 C852 525 669 703 450 703 C231 703 48 525 48 301 C48 80 229 -101 450 -101 C672 -101 852 80 852 301 L852 301 Z " />
<glyph glyph-name="cid741" unicode="&#x2468;" horiz-adv-x="900" d="M450 737 C689 737 886 544 886 301 C886 60 691 -135 450 -135 C209 -135 14 60 14 301 C14 544 211 737 450 737 L450 737 Z M303 163 L381 163 C387 117 407 94 439 94 C519 94 524 222 527 281 C517 262 494 218 432 218 C378 218 296 257 296 388 C296 500 358 575 443 575 C576 575 603 404 603 309 C603 236 590 157 562 106 C528 44 475 26 439 26 C355 26 312 100 303 163 L303 163 Z M447 508 C405 508 374 466 374 393 C374 331 399 281 444 281 C489 281 519 328 519 390 C519 427 507 508 447 508 L447 508 Z M450 703 C231 703 48 525 48 301 C48 80 229 -101 450 -101 C672 -101 852 80 852 301 C852 525 669 703 450 703 L450 703 Z " />
<glyph glyph-name="cid742" unicode="&#x2469;" horiz-adv-x="900" d="M584 565 C709 565 732 409 732 301 C732 191 709 37 584 37 C459 37 438 193 438 301 C438 410 459 565 584 565 L584 565 Z M584 500 C521 500 510 390 510 301 C510 247 510 101 584 101 C649 101 658 217 658 301 C658 385 649 500 584 500 L584 500 Z M450 737 C689 737 886 544 886 301 C886 60 691 -135 450 -135 C209 -135 14 60 14 301 C14 544 211 737 450 737 L450 737 Z M331 551 L331 50 L255 50 L255 415 L176 415 L176 469 C220 474 256 488 272 551 L331 551 Z M450 703 C231 703 48 525 48 301 C48 80 229 -101 450 -101 C672 -101 852 80 852 301 C852 525 669 703 450 703 L450 703 Z " />
<glyph glyph-name="cid743" unicode="&#x246a;" horiz-adv-x="900" d="M450 737 C689 737 886 544 886 301 C886 60 691 -135 450 -135 C209 -135 14 60 14 301 C14 544 211 737 450 737 L450 737 Z M333 50 L256 50 L256 415 L178 415 L178 469 C229 476 256 491 274 551 L333 551 L333 50 Z M663 50 L586 50 L586 415 L507 415 L507 469 C559 476 587 491 603 551 L663 551 L663 50 Z M450 703 C231 703 48 525 48 301 C48 80 229 -101 450 -101 C672 -101 852 80 852 301 C852 525 669 703 450 703 L450 703 Z " />
<glyph glyph-name="cid744" unicode="&#x246b;" horiz-adv-x="900" d="M450 737 C689 737 886 544 886 301 C886 60 691 -135 450 -135 C209 -135 14 60 14 301 C14 544 211 737 450 737 L450 737 Z M322 50 L245 50 L245 415 L167 415 L167 469 C218 476 245 491 263 551 L322 551 L322 50 Z M720 115 L720 50 L427 50 C434 128 457 176 530 252 C598 320 647 335 647 415 C647 470 615 500 586 500 C517 500 512 406 510 379 L438 379 C441 465 471 565 585 565 C655 565 720 519 720 417 C720 343 689 302 621 244 C540 175 531 148 519 115 L720 115 Z M450 703 C231 703 48 525 48 301 C48 80 229 -101 450 -101 C672 -101 852 80 852 301 C852 525 669 703 450 703 L450 703 Z " />
<glyph glyph-name="cid745" unicode="&#x246c;" horiz-adv-x="900" d="M450 737 C689 737 886 544 886 301 C886 60 691 -135 450 -135 C209 -135 14 60 14 301 C14 544 211 737 450 737 L450 737 Z M322 50 L245 50 L245 415 L167 415 L167 469 C218 476 245 491 263 551 L322 551 L322 50 Z M573 288 L546 288 L546 343 C598 343 640 356 640 424 C640 466 633 500 580 500 C532 500 518 451 514 408 L442 408 C449 515 504 565 581 565 C657 565 713 515 713 432 C713 350 670 331 650 320 C671 312 723 292 723 199 C723 106 667 37 574 37 C473 37 433 117 428 210 L500 210 C503 163 507 101 575 101 C608 101 651 123 651 197 C651 250 628 288 573 288 L573 288 Z M450 703 C231 703 48 525 48 301 C48 80 229 -101 450 -101 C672 -101 852 80 852 301 C852 525 669 703 450 703 L450 703 Z " />
<glyph glyph-name="cid746" unicode="&#x246d;" horiz-adv-x="900" d="M427 231 L606 551 L675 551 L675 231 L724 231 L724 165 L675 165 L675 50 L603 50 L603 165 L427 165 L427 231 Z M490 231 L603 231 L603 428 L490 231 Z M450 737 C689 737 886 544 886 301 C886 60 691 -135 450 -135 C209 -135 14 60 14 301 C14 544 211 737 450 737 L450 737 Z M322 50 L245 50 L245 415 L167 415 L167 469 C218 476 245 491 263 551 L322 551 L322 50 Z M450 703 C231 703 48 525 48 301 C48 80 229 -101 450 -101 C672 -101 852 80 852 301 C852 525 669 703 450 703 L450 703 Z " />
<glyph glyph-name="cid747" unicode="&#x246e;" horiz-adv-x="900" d="M322 50 L245 50 L245 415 L167 415 L167 469 C218 476 245 491 263 551 L322 551 L322 50 Z M700 551 L700 487 L544 487 C539 441 532 395 527 350 C534 359 554 381 597 381 C673 381 723 312 723 215 C723 115 668 37 569 37 C444 37 430 156 429 184 L501 184 C508 145 521 101 570 101 C626 101 649 162 649 217 C649 255 621 323 580 323 C565 323 535 312 519 279 L445 279 C455 370 467 461 478 551 L700 551 Z M450 737 C689 737 886 544 886 301 C886 60 691 -135 450 -135 C209 -135 14 60 14 301 C14 544 211 737 450 737 L450 737 Z M450 703 C231 703 48 525 48 301 C48 80 229 -101 450 -101 C672 -101 852 80 852 301 C852 525 669 703 450 703 L450 703 Z " />
<glyph glyph-name="cid8791" unicode="&#x246f;" horiz-adv-x="805" d="M780 287 C780 80 612 -87 405 -87 C195 -87 23 80 23 287 C23 498 195 665 405 665 C612 665 780 498 780 287 L780 287 Z M249 57 L249 443 L183 396 L183 463 L261 517 L315 517 L315 57 L249 57 Z M565 213 C565 256 557 303 507 303 C456 303 448 248 448 205 C448 158 456 100 510 100 C557 100 565 151 565 213 L565 213 Z M522 357 C581 357 631 322 631 201 C631 119 596 45 507 45 C409 45 390 119 386 197 C386 197 382 283 382 283 C382 283 386 373 386 373 C390 451 409 525 507 525 C577 525 627 482 624 408 L557 408 C557 443 538 474 507 474 C464 474 448 439 448 322 C464 346 491 357 522 357 L522 357 Z M717 291 C717 463 577 607 401 607 C230 607 85 463 85 291 C85 115 230 -29 401 -29 C577 -29 717 115 717 291 L717 291 Z " />
<glyph glyph-name="cid8792" unicode="&#x2470;" horiz-adv-x="805" d="M780 287 C780 80 612 -87 405 -87 C195 -87 23 80 23 287 C23 498 195 665 405 665 C612 665 780 498 780 287 L780 287 Z M249 57 L249 443 L183 396 L183 463 L261 517 L315 517 L315 57 L249 57 Z M608 521 L608 463 L487 57 L413 57 L538 459 L366 459 L366 521 L608 521 Z M717 291 C717 463 577 607 401 607 C230 607 85 463 85 291 C85 115 230 -29 401 -29 C577 -29 717 115 717 291 L717 291 Z " />
<glyph glyph-name="cid8793" unicode="&#x2471;" horiz-adv-x="805" d="M780 287 C780 80 612 -87 405 -87 C195 -87 23 80 23 287 C23 498 195 665 405 665 C612 665 780 498 780 287 L780 287 Z M249 57 L249 443 L183 396 L183 463 L261 517 L315 517 L315 57 L249 57 Z M503 271 C448 271 444 221 444 182 C444 143 460 100 503 100 C546 100 561 143 561 182 C561 221 557 271 503 271 L503 271 Z M542 299 C608 291 627 236 627 182 C627 96 585 45 503 45 C421 45 378 96 378 182 C378 236 393 287 452 299 C405 314 386 357 386 408 C386 482 429 525 503 525 C577 525 620 482 620 408 C620 357 596 310 542 299 L542 299 Z M503 474 C468 474 448 443 448 408 C448 377 460 330 503 330 C546 330 557 377 557 408 C557 443 538 474 503 474 L503 474 Z M717 291 C717 463 577 607 401 607 C230 607 85 463 85 291 C85 115 230 -29 401 -29 C577 -29 717 115 717 291 L717 291 Z " />
<glyph glyph-name="cid8794" unicode="&#x2472;" horiz-adv-x="805" d="M780 287 C780 80 612 -87 405 -87 C195 -87 23 80 23 287 C23 498 195 665 405 665 C612 665 780 498 780 287 L780 287 Z M249 57 L249 443 L183 396 L183 463 L261 517 L315 517 L315 57 L249 57 Z M503 291 C553 291 561 338 561 385 C561 424 549 474 503 474 C452 474 444 424 444 385 C444 338 452 291 503 291 L503 291 Z M487 236 C448 236 378 256 378 381 C378 486 440 525 503 525 C600 525 620 451 627 373 L627 197 C620 119 600 45 503 45 C432 45 386 92 390 170 L452 170 C452 135 468 100 503 100 C557 100 561 158 561 271 C546 244 518 236 487 236 L487 236 Z M717 291 C717 463 577 607 401 607 C230 607 85 463 85 291 C85 115 230 -29 401 -29 C577 -29 717 115 717 291 L717 291 Z " />
<glyph glyph-name="cid8795" unicode="&#x2473;" horiz-adv-x="805" d="M780 287 C780 80 612 -87 405 -87 C195 -87 23 80 23 287 C23 498 195 665 405 665 C612 665 780 498 780 287 L780 287 Z M659 377 L659 213 C655 143 635 73 546 73 C452 73 432 143 429 213 C429 213 425 295 425 295 C425 295 429 377 429 377 C432 451 448 521 546 521 C635 521 655 451 659 377 L659 377 Z M495 178 C503 147 514 127 546 127 C569 127 585 147 592 178 L596 229 L596 283 C596 400 596 463 546 463 C491 463 491 400 491 283 L491 229 L495 178 Z M296 314 C319 353 327 377 327 416 C327 447 312 466 280 466 C241 466 234 435 234 396 L171 396 C163 470 206 521 276 521 C354 521 393 486 393 408 C393 357 378 326 354 287 L241 143 L401 143 L401 84 L167 84 L167 139 L296 314 Z M717 291 C717 463 577 607 401 607 C230 607 85 463 85 291 C85 115 230 -29 401 -29 C577 -29 717 115 717 291 L717 291 Z " />
<glyph glyph-name="cid827" unicode="&#x2474;" horiz-adv-x="900" d="M503 12 L417 12 L417 432 L328 432 L328 495 C383 503 417 519 438 589 L503 589 L503 12 Z M888 301 C888 150 843 8 758 -116 L721 -116 C756 -59 844 94 844 301 C844 508 753 661 718 718 L758 718 C843 594 888 451 888 301 L888 301 Z M183 -116 L143 -116 C58 8 13 150 13 301 C13 451 58 594 143 718 L183 718 C148 661 57 508 57 301 C57 94 148 -59 183 -116 L183 -116 Z " />
<glyph glyph-name="cid828" unicode="&#x2475;" horiz-adv-x="900" d="M614 86 L614 12 L282 12 C290 102 319 158 401 244 C471 318 533 346 533 432 C533 484 507 531 462 531 C385 531 381 425 379 391 L295 391 C300 481 329 605 461 605 C541 605 614 553 614 435 C614 349 580 302 502 235 C411 154 402 124 389 86 L614 86 Z M888 301 C888 150 843 8 758 -116 L721 -116 C756 -59 844 94 844 301 C844 508 753 661 718 718 L758 718 C843 594 888 451 888 301 L888 301 Z M183 -116 L143 -116 C58 8 13 150 13 301 C13 451 58 594 143 718 L183 718 C148 661 57 508 57 301 C57 94 148 -59 183 -116 L183 -116 Z " />
<glyph glyph-name="cid829" unicode="&#x2476;" horiz-adv-x="900" d="M448 286 L417 286 L417 349 L440 349 C496 349 523 393 523 443 C523 481 500 531 455 531 C423 531 388 502 381 424 L300 424 C306 552 372 605 456 605 C541 605 604 549 604 452 C604 375 566 339 534 324 C558 312 617 290 617 184 C617 75 552 -4 450 -4 C297 -4 285 140 283 197 L365 197 C369 147 373 71 451 71 C492 71 535 102 535 181 C535 240 510 286 448 286 L448 286 Z M888 301 C888 150 843 8 758 -116 L721 -116 C756 -59 844 94 844 301 C844 508 753 661 718 718 L758 718 C843 594 888 451 888 301 L888 301 Z M183 -116 L143 -116 C58 8 13 150 13 301 C13 451 58 594 143 718 L183 718 C148 661 57 508 57 301 C57 94 148 -59 183 -116 L183 -116 Z " />
<glyph glyph-name="cid830" unicode="&#x2477;" horiz-adv-x="900" d="M261 220 L466 589 L544 589 L544 220 L598 220 L598 145 L544 145 L544 12 L461 12 L461 145 L261 145 L261 220 Z M335 220 L461 220 L461 449 L335 220 Z M888 301 C888 150 843 8 758 -116 L721 -116 C756 -59 844 94 844 301 C844 508 753 661 718 718 L758 718 C843 594 888 451 888 301 L888 301 Z M183 -116 L143 -116 C58 8 13 150 13 301 C13 451 58 594 143 718 L183 718 C148 661 57 508 57 301 C57 94 148 -59 183 -116 L183 -116 Z " />
<glyph glyph-name="cid831" unicode="&#x2478;" horiz-adv-x="900" d="M591 589 L591 516 L416 516 C408 463 402 410 396 358 C405 370 427 393 473 393 C561 393 617 312 617 202 C617 85 552 -4 445 -4 C364 -4 327 44 308 78 C291 111 287 141 285 166 L367 166 C373 133 384 71 445 71 C506 71 533 141 533 204 C533 247 513 326 455 326 C428 326 401 305 386 276 L303 276 C315 380 328 485 341 589 L591 589 Z M888 301 C888 150 843 8 758 -116 L721 -116 C756 -59 844 94 844 301 C844 508 753 661 718 718 L758 718 C843 594 888 451 888 301 L888 301 Z M183 -116 L143 -116 C58 8 13 150 13 301 C13 451 58 594 143 718 L183 718 C148 661 57 508 57 301 C57 94 148 -59 183 -116 L183 -116 Z " />
<glyph glyph-name="cid832" unicode="&#x2479;" horiz-adv-x="900" d="M609 453 L526 453 C519 503 496 530 461 530 C374 530 368 385 366 323 C377 343 402 393 470 393 C526 393 617 351 617 203 C617 78 547 -4 457 -4 C312 -4 283 186 283 292 C283 371 297 459 328 517 C366 586 421 605 461 605 C553 605 600 521 609 453 L609 453 Z M453 71 C498 71 532 117 532 198 C532 246 518 323 455 323 C411 323 374 276 374 202 C374 159 388 71 453 71 L453 71 Z M888 301 C888 150 843 8 758 -116 L721 -116 C756 -59 844 94 844 301 C844 508 753 661 718 718 L758 718 C843 594 888 451 888 301 L888 301 Z M183 -116 L143 -116 C58 8 13 150 13 301 C13 451 58 594 143 718 L183 718 C148 661 57 508 57 301 C57 94 148 -59 183 -116 L183 -116 Z " />
<glyph glyph-name="cid833" unicode="&#x247a;" horiz-adv-x="900" d="M535 507 L297 507 L297 580 L619 580 L619 507 C581 450 543 383 510 302 C470 201 454 114 448 3 L362 3 C372 159 427 339 535 507 L535 507 Z M888 301 C888 150 843 8 758 -116 L721 -116 C756 -59 844 94 844 301 C844 508 753 661 718 718 L758 718 C843 594 888 451 888 301 L888 301 Z M183 -116 L143 -116 C58 8 13 150 13 301 C13 451 58 594 143 718 L183 718 C148 661 57 508 57 301 C57 94 148 -59 183 -116 L183 -116 Z " />
<glyph glyph-name="cid834" unicode="&#x247b;" horiz-adv-x="900" d="M531 321 C552 310 617 285 617 171 C617 70 556 -4 451 -4 C343 -4 283 71 283 171 C283 209 294 248 314 277 C334 304 354 313 369 321 C335 342 300 387 300 450 C300 533 353 605 451 605 C547 605 600 535 600 450 C600 400 581 346 531 321 L531 321 Z M451 531 C390 531 383 465 383 439 C383 390 405 347 451 347 C512 347 517 415 517 439 C517 486 499 531 451 531 L451 531 Z M451 290 C395 290 367 235 367 177 C367 131 385 71 451 71 C516 71 534 133 534 177 C534 231 508 290 451 290 L451 290 Z M888 301 C888 150 843 8 758 -116 L721 -116 C756 -59 844 94 844 301 C844 508 753 661 718 718 L758 718 C843 594 888 451 888 301 L888 301 Z M183 -116 L143 -116 C58 8 13 150 13 301 C13 451 58 594 143 718 L183 718 C148 661 57 508 57 301 C57 94 148 -59 183 -116 L183 -116 Z " />
<glyph glyph-name="cid835" unicode="&#x247c;" horiz-adv-x="900" d="M291 148 L374 148 C382 99 404 71 439 71 C526 71 532 217 535 279 C524 258 498 209 431 209 C374 209 283 251 283 398 C283 524 353 605 443 605 C589 605 617 414 617 309 C617 230 603 141 572 84 C534 16 480 -4 439 -4 C350 -4 301 75 291 148 L291 148 Z M447 531 C402 531 367 484 367 402 C367 337 393 278 444 278 C493 278 526 329 526 400 C526 443 512 531 447 531 L447 531 Z M888 301 C888 150 843 8 758 -116 L721 -116 C756 -59 844 94 844 301 C844 508 753 661 718 718 L758 718 C843 594 888 451 888 301 L888 301 Z M183 -116 L143 -116 C58 8 13 150 13 301 C13 451 58 594 143 718 L183 718 C148 661 57 508 57 301 C57 94 148 -59 183 -116 L183 -116 Z " />
<glyph glyph-name="cid836" unicode="&#x247d;" horiz-adv-x="900" d="M595 594 C732 594 754 421 754 301 C754 179 731 8 595 8 C458 8 435 181 435 301 C435 422 458 594 595 594 L595 594 Z M676 301 C676 399 664 523 595 523 C525 523 514 396 514 301 C514 243 514 79 596 79 C664 79 676 205 676 301 L676 301 Z M240 23 L240 427 L156 427 L156 487 C206 496 241 511 259 579 L324 579 L324 23 L240 23 Z M888 301 C888 150 843 8 758 -116 L721 -116 C756 -59 844 94 844 301 C844 508 753 661 718 718 L758 718 C843 594 888 451 888 301 L888 301 Z M183 -116 L143 -116 C58 8 13 150 13 301 C13 451 58 594 143 718 L183 718 C148 661 57 508 57 301 C57 94 148 -59 183 -116 L183 -116 Z " />
<glyph glyph-name="cid837" unicode="&#x247e;" horiz-adv-x="900" d="M680 23 L597 23 L597 427 L511 427 L511 488 C563 496 597 512 616 579 L680 579 L680 23 Z M326 23 L243 23 L243 427 L157 427 L157 488 C209 496 244 512 261 579 L326 579 L326 23 Z M888 301 C888 150 843 8 758 -116 L721 -116 C756 -59 844 94 844 301 C844 508 753 661 718 718 L758 718 C843 594 888 451 888 301 L888 301 Z M183 -116 L143 -116 C58 8 13 150 13 301 C13 451 58 594 143 718 L183 718 C148 661 57 508 57 301 C57 94 148 -59 183 -116 L183 -116 Z " />
<glyph glyph-name="cid838" unicode="&#x247f;" horiz-adv-x="900" d="M323 23 L240 23 L240 427 L155 427 L155 487 C206 496 241 511 259 579 L323 579 L323 23 Z M752 94 L752 23 L433 23 C440 107 465 162 546 246 C619 323 674 337 674 427 C674 490 639 523 606 523 C531 523 526 421 524 388 L445 388 C451 485 481 594 605 594 C685 594 752 536 752 431 C752 354 719 303 644 238 C556 160 549 136 534 94 L752 94 Z M888 301 C888 150 843 8 758 -116 L721 -116 C756 -59 844 94 844 301 C844 508 753 661 718 718 L758 718 C843 594 888 451 888 301 L888 301 Z M183 -116 L143 -116 C58 8 13 150 13 301 C13 451 58 594 143 718 L183 718 C148 661 57 508 57 301 C57 94 148 -59 183 -116 L183 -116 Z " />
<glyph glyph-name="cid839" unicode="&#x2480;" horiz-adv-x="900" d="M323 23 L240 23 L240 427 L155 427 L155 487 C206 496 241 511 259 579 L323 579 L323 23 Z M588 287 L559 287 L559 347 L582 347 C636 347 662 389 662 438 C662 487 633 523 597 523 C533 523 527 448 524 419 L447 419 C453 546 525 594 597 594 C680 594 742 539 742 447 C742 356 692 332 673 323 C696 312 752 290 752 188 C752 83 690 8 590 8 C482 8 436 95 431 200 L509 200 C512 152 517 79 592 79 C630 79 674 107 674 186 C674 245 648 287 588 287 L588 287 Z M888 301 C888 150 843 8 758 -116 L721 -116 C756 -59 844 94 844 301 C844 508 753 661 718 718 L758 718 C843 594 888 451 888 301 L888 301 Z M183 -116 L143 -116 C58 8 13 150 13 301 C13 451 58 594 143 718 L183 718 C148 661 57 508 57 301 C57 94 148 -59 183 -116 L183 -116 Z " />
<glyph glyph-name="cid840" unicode="&#x2481;" horiz-adv-x="900" d="M427 222 L622 579 L697 579 L697 222 L750 222 L750 151 L697 151 L697 23 L619 23 L619 151 L427 151 L427 222 Z M496 222 L619 222 L619 443 L496 222 Z M323 23 L240 23 L240 427 L155 427 L155 487 C206 496 241 511 259 579 L323 579 L323 23 Z M888 301 C888 150 843 8 758 -116 L721 -116 C756 -59 844 94 844 301 C844 508 753 661 718 718 L758 718 C843 594 888 451 888 301 L888 301 Z M183 -116 L143 -116 C58 8 13 150 13 301 C13 451 58 594 143 718 L183 718 C148 661 57 508 57 301 C57 94 148 -59 183 -116 L183 -116 Z " />
<glyph glyph-name="cid841" unicode="&#x2482;" horiz-adv-x="900" d="M323 23 L240 23 L240 427 L155 427 L155 487 C206 496 241 511 259 579 L323 579 L323 23 Z M730 579 L730 508 L560 508 C554 457 548 406 541 356 C550 366 571 389 618 389 C700 389 755 314 755 206 C755 95 696 8 588 8 C451 8 439 137 436 171 L514 171 C520 138 531 78 589 78 C649 78 675 146 675 208 C675 253 655 325 599 325 C584 325 550 312 532 277 L451 277 L489 579 L730 579 Z M888 301 C888 150 843 8 758 -116 L721 -116 C756 -59 844 94 844 301 C844 508 753 661 718 718 L758 718 C843 594 888 451 888 301 L888 301 Z M183 -116 L143 -116 C58 8 13 150 13 301 C13 451 58 594 143 718 L183 718 C148 661 57 508 57 301 C57 94 148 -59 183 -116 L183 -116 Z " />
<glyph glyph-name="cid9042" unicode="&#x2483;" horiz-adv-x="805" d="M249 53 L249 439 L183 392 L183 459 L261 513 L315 513 L315 53 L249 53 Z M565 209 C565 252 557 299 507 299 C456 299 448 244 448 201 C448 154 456 96 510 96 C557 96 565 147 565 209 L565 209 Z M522 353 C581 353 631 318 631 197 C631 115 596 41 507 41 C409 41 390 115 386 193 C386 193 382 279 382 279 C382 279 386 369 386 369 C390 447 409 521 507 521 C577 521 627 478 624 404 L557 404 C557 439 538 470 507 470 C464 470 448 435 448 318 C464 342 491 353 522 353 L522 353 Z M783 287 C783 123 717 18 663 -41 L604 -41 C682 65 705 170 705 287 C705 400 682 517 604 615 L663 615 C717 560 783 451 783 287 L783 287 Z M202 -41 L140 -41 C93 18 23 123 23 287 C23 451 93 560 140 615 L202 615 C124 517 101 400 101 287 C101 170 128 65 202 -41 L202 -41 Z " />
<glyph glyph-name="cid9043" unicode="&#x2484;" horiz-adv-x="805" d="M249 53 L249 439 L183 392 L183 459 L261 513 L315 513 L315 53 L249 53 Z M608 517 L608 459 L487 53 L413 53 L538 455 L366 455 L366 517 L608 517 Z M783 287 C783 123 717 18 663 -41 L604 -41 C682 65 705 170 705 287 C705 400 682 517 604 615 L663 615 C717 560 783 451 783 287 L783 287 Z M202 -41 L140 -41 C93 18 23 123 23 287 C23 451 93 560 140 615 L202 615 C124 517 101 400 101 287 C101 170 128 65 202 -41 L202 -41 Z " />
<glyph glyph-name="cid9044" unicode="&#x2485;" horiz-adv-x="805" d="M249 53 L249 439 L183 392 L183 459 L261 513 L315 513 L315 53 L249 53 Z M503 268 C448 268 444 217 444 178 C444 139 460 96 503 96 C546 96 561 139 561 178 C561 217 557 268 503 268 L503 268 Z M542 295 C608 287 627 232 627 178 C627 92 585 41 503 41 C421 41 378 92 378 178 C378 232 393 283 452 295 C405 310 386 353 386 404 C386 478 429 521 503 521 C577 521 620 478 620 404 C620 353 596 307 542 295 L542 295 Z M503 470 C468 470 448 439 448 404 C448 373 460 326 503 326 C546 326 557 373 557 404 C557 439 538 470 503 470 L503 470 Z M783 287 C783 123 717 18 663 -41 L604 -41 C682 65 705 170 705 287 C705 400 682 517 604 615 L663 615 C717 560 783 451 783 287 L783 287 Z M202 -41 L140 -41 C93 18 23 123 23 287 C23 451 93 560 140 615 L202 615 C124 517 101 400 101 287 C101 170 128 65 202 -41 L202 -41 Z " />
<glyph glyph-name="cid9045" unicode="&#x2486;" horiz-adv-x="805" d="M249 53 L249 439 L183 392 L183 459 L261 513 L315 513 L315 53 L249 53 Z M503 287 C553 287 561 334 561 381 C561 420 549 470 503 470 C452 470 444 420 444 381 C444 334 452 287 503 287 L503 287 Z M487 232 C448 232 378 252 378 377 C378 482 440 521 503 521 C600 521 620 447 627 369 L627 193 C620 115 600 41 503 41 C432 41 386 88 390 166 L452 166 C452 131 468 96 503 96 C557 96 561 154 561 268 C546 240 518 232 487 232 L487 232 Z M783 287 C783 123 717 18 663 -41 L604 -41 C682 65 705 170 705 287 C705 400 682 517 604 615 L663 615 C717 560 783 451 783 287 L783 287 Z M202 -41 L140 -41 C93 18 23 123 23 287 C23 451 93 560 140 615 L202 615 C124 517 101 400 101 287 C101 170 128 65 202 -41 L202 -41 Z " />
<glyph glyph-name="cid9046" unicode="&#x2487;" horiz-adv-x="805" d="M659 373 L659 209 C655 139 635 69 546 69 C452 69 432 139 429 209 C429 209 425 291 425 291 C425 291 429 373 429 373 C432 447 448 517 546 517 C635 517 655 447 659 373 L659 373 Z M495 174 C503 143 514 123 546 123 C569 123 585 143 592 174 L596 225 L596 279 C596 396 596 459 546 459 C491 459 491 396 491 279 L491 225 L495 174 Z M296 310 C319 349 327 373 327 412 C327 443 312 463 280 463 C241 463 234 431 234 392 L171 392 C163 466 206 517 276 517 C354 517 393 482 393 404 C393 353 378 322 354 283 L241 139 L401 139 L401 80 L167 80 L167 135 L296 310 Z M783 287 C783 123 717 18 663 -41 L604 -41 C682 65 705 170 705 287 C705 400 682 517 604 615 L663 615 C717 560 783 451 783 287 L783 287 Z M202 -41 L140 -41 C93 18 23 123 23 287 C23 451 93 560 140 615 L202 615 C124 517 101 400 101 287 C101 170 128 65 202 -41 L202 -41 Z " />
<glyph glyph-name="cid801" unicode="&#x249c;" horiz-adv-x="900" d="M873 300 C873 99 794 -34 739 -105 L694 -105 C778 21 807 159 807 300 C807 438 779 581 694 705 L739 705 C795 631 873 500 873 300 L873 300 Z M206 -105 L161 -105 C106 -34 27 99 27 300 C27 500 105 631 161 705 L206 705 C121 581 93 438 93 300 C93 159 122 21 206 -105 L206 -105 Z M659 70 L571 70 C563 86 558 104 557 125 C532 93 478 61 419 55 C342 48 275 84 266 165 C257 246 302 301 363 322 C410 337 462 339 500 348 C526 353 557 363 557 398 C557 431 530 462 464 462 C402 462 368 427 373 383 L288 383 C281 479 365 542 465 542 C563 542 644 486 644 397 L644 143 C644 104 658 72 659 70 L659 70 Z M557 249 L557 295 C550 286 531 278 514 273 C482 265 428 259 406 250 C370 236 348 212 355 177 C361 145 409 137 445 144 C509 156 557 206 557 249 L557 249 Z " />
<glyph glyph-name="cid802" unicode="&#x249d;" horiz-adv-x="900" d="M873 300 C873 99 794 -34 739 -105 L694 -105 C778 21 807 159 807 300 C807 438 779 581 694 705 L739 705 C795 631 873 500 873 300 L873 300 Z M206 -105 L161 -105 C106 -34 27 99 27 300 C27 500 105 631 161 705 L206 705 C121 581 93 438 93 300 C93 159 122 21 206 -105 L206 -105 Z M664 212 C664 69 591 -32 481 -32 C428 -32 383 -9 352 30 L352 -16 L266 -16 L266 611 L352 611 L352 394 C383 434 428 457 481 457 C591 457 664 355 664 212 L664 212 Z M575 212 C575 307 534 373 464 373 C394 373 352 307 352 212 C352 119 394 53 464 53 C534 53 575 119 575 212 L575 212 Z " />
<glyph glyph-name="cid803" unicode="&#x249e;" horiz-adv-x="900" d="M873 300 C873 99 794 -34 739 -105 L694 -105 C778 21 807 159 807 300 C807 438 779 581 694 705 L739 705 C795 631 873 500 873 300 L873 300 Z M206 -105 L161 -105 C106 -34 27 99 27 300 C27 500 105 631 161 705 L206 705 C121 581 93 438 93 300 C93 159 122 21 206 -105 L206 -105 Z M648 213 C630 133 567 54 459 54 C335 54 259 164 259 299 C259 433 335 543 459 543 C568 543 635 456 648 385 L554 385 C547 414 520 459 460 459 C391 459 347 387 347 299 C347 211 391 140 460 140 C513 140 545 178 554 213 L648 213 Z " />
<glyph glyph-name="cid804" unicode="&#x249f;" horiz-adv-x="900" d="M873 300 C873 99 794 -34 739 -105 L694 -105 C778 21 807 159 807 300 C807 438 779 581 694 705 L739 705 C795 631 873 500 873 300 L873 300 Z M206 -105 L161 -105 C106 -34 27 99 27 300 C27 500 105 631 161 705 L206 705 C121 581 93 438 93 300 C93 159 122 21 206 -105 L206 -105 Z M635 -13 L548 -13 L548 33 C517 -6 473 -29 420 -29 C308 -29 235 73 235 216 C235 358 308 460 420 460 C473 460 517 438 548 400 L548 615 L635 615 L635 -13 Z M548 216 C548 310 509 376 437 376 C365 376 326 310 326 216 C326 123 365 56 437 56 C509 56 548 123 548 216 L548 216 Z " />
<glyph glyph-name="cid805" unicode="&#x24a0;" horiz-adv-x="900" d="M873 300 C873 99 794 -34 739 -105 L694 -105 C778 21 807 159 807 300 C807 438 779 581 694 705 L739 705 C795 631 873 500 873 300 L873 300 Z M206 -105 L161 -105 C106 -34 27 99 27 300 C27 500 105 631 161 705 L206 705 C121 581 93 438 93 300 C93 159 122 21 206 -105 L206 -105 Z M649 265 L341 265 C342 208 386 139 450 139 C502 139 529 172 538 194 L635 194 C616 130 565 54 452 54 C333 54 249 163 249 298 C249 434 328 544 450 544 C558 544 657 452 649 265 L649 265 Z M555 345 C549 403 511 458 450 458 C390 458 352 409 344 345 L555 345 Z " />
<glyph glyph-name="cid806" unicode="&#x24a1;" horiz-adv-x="900" d="M873 300 C873 99 794 -34 739 -105 L694 -105 C778 21 807 159 807 300 C807 438 779 581 694 705 L739 705 C795 631 873 500 873 300 L873 300 Z M545 362 L488 362 L488 -11 L402 -11 L402 362 L352 362 L352 441 L402 441 L402 493 C402 536 408 558 425 579 C440 598 464 611 495 611 L545 611 L545 532 C529 532 513 534 502 524 C490 512 488 500 488 477 L488 441 L545 441 L545 362 Z M206 -105 L161 -105 C106 -34 27 99 27 300 C27 500 105 631 161 705 L206 705 C121 581 93 438 93 300 C93 159 122 21 206 -105 L206 -105 Z " />
<glyph glyph-name="cid807" unicode="&#x24a2;" horiz-adv-x="900" d="M644 181 C644 35 540 -9 449 -9 C334 -9 265 63 260 141 L347 141 C348 105 387 70 450 70 C518 70 557 107 557 176 L557 232 C525 194 480 172 428 172 C321 172 244 269 244 395 C244 521 318 617 428 617 C480 617 525 595 557 560 L557 601 L644 601 L644 181 Z M873 300 C873 99 794 -34 739 -105 L694 -105 C778 21 807 159 807 300 C807 438 779 581 694 705 L739 705 C795 631 873 500 873 300 L873 300 Z M206 -105 L161 -105 C106 -34 27 99 27 300 C27 500 105 631 161 705 L206 705 C121 581 93 438 93 300 C93 159 122 21 206 -105 L206 -105 Z M557 395 C557 478 512 534 445 534 C377 534 334 478 334 395 C334 312 377 256 445 256 C512 256 557 312 557 395 L557 395 Z " />
<glyph glyph-name="cid808" unicode="&#x24a3;" horiz-adv-x="900" d="M873 300 C873 99 794 -34 739 -105 L694 -105 C778 21 807 159 807 300 C807 438 779 581 694 705 L739 705 C795 631 873 500 873 300 L873 300 Z M206 -105 L161 -105 C106 -34 27 99 27 300 C27 500 105 631 161 705 L206 705 C121 581 93 438 93 300 C93 159 122 21 206 -105 L206 -105 Z M633 -15 L547 -15 L547 258 C547 332 521 365 465 365 C407 365 365 316 365 246 L365 -15 L279 -15 L279 613 L365 613 L365 396 C394 429 442 464 511 456 C595 448 633 365 633 302 L633 -15 Z " />
<glyph glyph-name="cid809" unicode="&#x24a4;" horiz-adv-x="900" d="M493 518 L407 518 L407 614 L493 614 L493 518 Z M873 300 C873 99 794 -34 739 -105 L694 -105 C778 21 807 159 807 300 C807 438 779 581 694 705 L739 705 C795 631 873 500 873 300 L873 300 Z M206 -105 L161 -105 C106 -34 27 99 27 300 C27 500 105 631 161 705 L206 705 C121 581 93 438 93 300 C93 159 122 21 206 -105 L206 -105 Z M493 -14 L407 -14 L407 443 L493 443 L493 -14 Z " />
<glyph glyph-name="cid810" unicode="&#x24a5;" horiz-adv-x="900" d="M507 592 L420 592 L420 687 L507 687 L507 592 Z M873 300 C873 99 794 -34 739 -105 L694 -105 C778 21 807 159 807 300 C807 438 779 581 694 705 L739 705 C795 631 873 500 873 300 L873 300 Z M206 -105 L161 -105 C106 -34 27 99 27 300 C27 500 105 631 161 705 L206 705 C121 581 93 438 93 300 C93 159 122 21 206 -105 L206 -105 Z M507 34 C507 -9 500 -37 484 -55 C468 -73 444 -86 411 -86 L364 -86 L364 -6 C381 -6 396 -8 408 3 C420 15 420 27 420 50 L420 507 L507 507 L507 34 Z " />
<glyph glyph-name="cid811" unicode="&#x24a6;" horiz-adv-x="900" d="M873 300 C873 99 794 -34 739 -105 L694 -105 C778 21 807 159 807 300 C807 438 779 581 694 705 L739 705 C795 631 873 500 873 300 L873 300 Z M647 -13 L549 -13 L397 207 L354 164 L354 -13 L268 -13 L268 614 L354 614 L354 276 L513 443 L618 443 L456 271 L647 -13 Z M206 -105 L161 -105 C106 -34 27 99 27 300 C27 500 105 631 161 705 L206 705 C121 581 93 438 93 300 C93 159 122 21 206 -105 L206 -105 Z " />
<glyph glyph-name="cid812" unicode="&#x24a7;" horiz-adv-x="900" d="M873 300 C873 99 794 -34 739 -105 L694 -105 C778 21 807 159 807 300 C807 438 779 581 694 705 L739 705 C795 631 873 500 873 300 L873 300 Z M493 -14 L407 -14 L407 614 L493 614 L493 -14 Z M206 -105 L161 -105 C106 -34 27 99 27 300 C27 500 105 631 161 705 L206 705 C121 581 93 438 93 300 C93 159 122 21 206 -105 L206 -105 Z " />
<glyph glyph-name="cid813" unicode="&#x24a8;" horiz-adv-x="900" d="M873 300 C873 99 794 -34 739 -105 L694 -105 C778 21 807 159 807 300 C807 438 779 581 694 705 L739 705 C795 631 873 500 873 300 L873 300 Z M718 64 L632 64 L632 347 C632 410 622 450 570 448 C522 445 493 405 493 335 L493 64 L407 64 L407 347 C407 410 397 450 345 448 C298 445 267 405 267 335 L267 64 L182 64 L182 520 L267 520 L267 471 C288 499 323 539 387 536 C429 534 462 509 478 468 C496 492 529 544 614 535 C689 527 718 455 718 381 L718 64 Z M206 -105 L161 -105 C106 -34 27 99 27 300 C27 500 105 631 161 705 L206 705 C121 581 93 438 93 300 C93 159 122 21 206 -105 L206 -105 Z " />
<glyph glyph-name="cid814" unicode="&#x24a9;" horiz-adv-x="900" d="M873 300 C873 99 794 -34 739 -105 L694 -105 C778 21 807 159 807 300 C807 438 779 581 694 705 L739 705 C795 631 873 500 873 300 L873 300 Z M206 -105 L161 -105 C106 -34 27 99 27 300 C27 500 105 631 161 705 L206 705 C121 581 93 438 93 300 C93 159 122 21 206 -105 L206 -105 Z M626 61 L540 61 L540 334 C540 407 514 442 458 442 C400 442 358 392 358 322 L358 61 L272 61 L272 518 L358 518 L358 472 C387 506 435 540 504 532 C588 523 626 440 626 377 L626 61 Z " />
<glyph glyph-name="cid815" unicode="&#x24aa;" horiz-adv-x="900" d="M873 300 C873 99 794 -34 739 -105 L694 -105 C778 21 807 159 807 300 C807 438 779 581 694 705 L739 705 C795 631 873 500 873 300 L873 300 Z M206 -105 L161 -105 C106 -34 27 99 27 300 C27 500 105 631 161 705 L206 705 C121 581 93 438 93 300 C93 159 122 21 206 -105 L206 -105 Z M651 298 C651 164 574 54 451 54 C327 54 250 164 250 298 C250 433 327 544 451 544 C574 544 651 433 651 298 L651 298 Z M561 298 C561 386 518 458 451 458 C383 458 340 386 340 298 C340 211 383 139 451 139 C518 139 561 211 561 298 L561 298 Z " />
<glyph glyph-name="cid816" unicode="&#x24ab;" horiz-adv-x="900" d="M672 374 C672 231 599 129 488 129 C436 129 392 151 359 191 L359 -2 L273 -2 L273 601 L359 601 L359 556 C392 594 436 618 488 618 C599 618 672 516 672 374 L672 374 Z M873 300 C873 99 794 -34 739 -105 L694 -105 C778 21 807 159 807 300 C807 438 779 581 694 705 L739 705 C795 631 873 500 873 300 L873 300 Z M206 -105 L161 -105 C106 -34 27 99 27 300 C27 500 105 631 161 705 L206 705 C121 581 93 438 93 300 C93 159 122 21 206 -105 L206 -105 Z M582 374 C582 467 541 534 472 534 C402 534 359 467 359 374 C359 279 402 214 472 214 C541 214 582 279 582 374 L582 374 Z " />
<glyph glyph-name="cid817" unicode="&#x24ac;" horiz-adv-x="900" d="M625 -1 L538 -1 L538 191 C506 152 462 129 410 129 C299 129 225 231 225 374 C225 516 299 618 410 618 C462 618 506 596 538 556 L538 602 L625 602 L625 -1 Z M873 300 C873 99 794 -34 739 -105 L694 -105 C778 21 807 159 807 300 C807 438 779 581 694 705 L739 705 C795 631 873 500 873 300 L873 300 Z M206 -105 L161 -105 C106 -34 27 99 27 300 C27 500 105 631 161 705 L206 705 C121 581 93 438 93 300 C93 159 122 21 206 -105 L206 -105 Z M538 374 C538 468 495 534 426 534 C356 534 315 468 315 374 C315 280 356 214 426 214 C495 214 538 280 538 374 L538 374 Z " />
<glyph glyph-name="cid818" unicode="&#x24ad;" horiz-adv-x="900" d="M576 449 C552 449 527 446 505 431 C466 404 444 365 444 294 L444 72 L358 72 L358 529 L444 529 L444 463 C463 494 482 513 516 530 C540 542 574 545 576 545 L576 449 Z M873 300 C873 99 794 -34 739 -105 L694 -105 C778 21 807 159 807 300 C807 438 779 581 694 705 L739 705 C795 631 873 500 873 300 L873 300 Z M206 -105 L161 -105 C106 -34 27 99 27 300 C27 500 105 631 161 705 L206 705 C121 581 93 438 93 300 C93 159 122 21 206 -105 L206 -105 Z " />
<glyph glyph-name="cid819" unicode="&#x24ae;" horiz-adv-x="900" d="M873 300 C873 99 794 -34 739 -105 L694 -105 C778 21 807 159 807 300 C807 438 779 581 694 705 L739 705 C795 631 873 500 873 300 L873 300 Z M206 -105 L161 -105 C106 -34 27 99 27 300 C27 500 105 631 161 705 L206 705 C121 581 93 438 93 300 C93 159 122 21 206 -105 L206 -105 Z M625 196 C620 117 545 54 457 55 C319 56 276 161 275 215 L358 215 C362 174 392 139 454 139 C506 139 532 163 536 192 C539 214 527 234 500 246 C458 265 401 274 367 289 C314 312 285 353 290 412 C293 476 350 543 449 543 C555 543 614 467 612 400 L530 400 C531 425 508 460 451 460 C399 460 376 436 374 411 C373 380 390 368 422 357 C454 345 515 333 555 311 C594 291 627 253 625 196 L625 196 Z " />
<glyph glyph-name="cid820" unicode="&#x24af;" horiz-adv-x="900" d="M873 300 C873 99 794 -34 739 -105 L694 -105 C778 21 807 159 807 300 C807 438 779 581 694 705 L739 705 C795 631 873 500 873 300 L873 300 Z M206 -105 L161 -105 C106 -34 27 99 27 300 C27 500 105 631 161 705 L206 705 C121 581 93 438 93 300 C93 159 122 21 206 -105 L206 -105 Z M545 1 L495 1 C464 1 442 15 426 35 C410 54 402 79 402 122 L402 378 L353 378 L353 458 L402 458 L402 597 L489 597 L489 458 L545 458 L545 378 L489 378 L489 138 C489 114 490 104 502 92 C513 81 529 81 545 81 L545 1 Z " />
<glyph glyph-name="cid821" unicode="&#x24b0;" horiz-adv-x="900" d="M873 300 C873 99 794 -34 739 -105 L694 -105 C778 21 807 159 807 300 C807 438 779 581 694 705 L739 705 C795 631 873 500 873 300 L873 300 Z M206 -105 L161 -105 C106 -34 27 99 27 300 C27 500 105 631 161 705 L206 705 C121 581 93 438 93 300 C93 159 122 21 206 -105 L206 -105 Z M626 80 L540 80 L540 128 C517 94 468 61 409 63 C332 66 275 131 275 224 L275 536 L362 536 L362 262 C362 187 390 153 445 155 C501 157 540 199 540 276 L540 536 L626 536 L626 80 Z " />
<glyph glyph-name="cid822" unicode="&#x24b1;" horiz-adv-x="900" d="M873 300 C873 99 794 -34 739 -105 L694 -105 C778 21 807 159 807 300 C807 438 779 581 694 705 L739 705 C795 631 873 500 873 300 L873 300 Z M653 526 L501 74 L401 74 L249 526 L342 526 L452 187 L561 526 L653 526 Z M206 -105 L161 -105 C106 -34 27 99 27 300 C27 500 105 631 161 705 L206 705 C121 581 93 438 93 300 C93 159 122 21 206 -105 L206 -105 Z " />
<glyph glyph-name="cid823" unicode="&#x24b2;" horiz-adv-x="900" d="M873 300 C873 99 794 -34 739 -105 L694 -105 C778 21 807 159 807 300 C807 438 779 581 694 705 L739 705 C795 631 873 500 873 300 L873 300 Z M206 -105 L161 -105 C106 -34 27 99 27 300 C27 500 105 631 161 705 L206 705 C121 581 93 438 93 300 C93 159 122 21 206 -105 L206 -105 Z M723 522 L613 71 L519 71 L450 364 L382 71 L288 71 L178 522 L264 522 L336 216 L404 522 L497 522 L566 216 L637 522 L723 522 Z " />
<glyph glyph-name="cid824" unicode="&#x24b3;" horiz-adv-x="900" d="M873 300 C873 99 794 -34 739 -105 L694 -105 C778 21 807 159 807 300 C807 438 779 581 694 705 L739 705 C795 631 873 500 873 300 L873 300 Z M206 -105 L161 -105 C106 -34 27 99 27 300 C27 500 105 631 161 705 L206 705 C121 581 93 438 93 300 C93 159 122 21 206 -105 L206 -105 Z M648 71 L547 71 L451 224 L355 71 L254 71 L401 303 L262 523 L362 523 L451 383 L540 523 L640 523 L501 303 L648 71 Z " />
<glyph glyph-name="cid825" unicode="&#x24b4;" horiz-adv-x="900" d="M873 300 C873 99 794 -34 739 -105 L694 -105 C778 21 807 159 807 300 C807 438 779 581 694 705 L739 705 C795 631 873 500 873 300 L873 300 Z M206 -105 L161 -105 C106 -34 27 99 27 300 C27 500 105 631 161 705 L206 705 C121 581 93 438 93 300 C93 159 122 21 206 -105 L206 -105 Z M653 608 L469 71 C458 37 437 15 417 3 C392 -11 370 -11 347 -11 L308 -11 L308 69 L348 69 C370 69 388 86 394 104 L409 148 L250 608 L342 608 L452 277 L563 608 L653 608 Z " />
<glyph glyph-name="cid826" unicode="&#x24b5;" horiz-adv-x="900" d="M873 300 C873 99 794 -34 739 -105 L694 -105 C778 21 807 159 807 300 C807 438 779 581 694 705 L739 705 C795 631 873 500 873 300 L873 300 Z M206 -105 L161 -105 C106 -34 27 99 27 300 C27 500 105 631 161 705 L206 705 C121 581 93 438 93 300 C93 159 122 21 206 -105 L206 -105 Z M632 71 L282 71 L282 151 L511 448 L303 448 L303 528 L618 528 L618 448 L387 151 L632 151 L632 71 Z " />
<glyph glyph-name="cid8388" unicode="&#x24b6;" horiz-adv-x="805" d="M780 287 C780 80 612 -87 405 -87 C195 -87 23 80 23 287 C23 498 195 665 405 665 C612 665 780 498 780 287 L780 287 Z M448 541 L616 76 L538 76 L503 190 L308 190 L273 76 L198 76 L362 541 L448 541 Z M327 248 L483 248 L405 482 L327 248 Z M717 291 C717 463 577 607 401 607 C230 607 85 463 85 291 C85 115 230 -29 401 -29 C577 -29 717 115 717 291 L717 291 Z " />
<glyph glyph-name="cid8389" unicode="&#x24b7;" horiz-adv-x="805" d="M780 287 C780 80 612 -87 405 -87 C195 -87 23 80 23 287 C23 498 195 665 405 665 C612 665 780 498 780 287 L780 287 Z M432 115 C503 115 526 154 526 190 C526 256 475 271 409 271 L343 271 L343 115 L432 115 Z M436 330 C483 330 510 361 510 404 C510 439 487 463 432 463 L343 463 L343 330 L436 330 Z M491 299 C565 291 596 252 596 190 C596 69 499 57 440 57 L273 57 L273 521 L440 521 C514 521 538 502 557 474 C577 447 577 420 577 412 C577 353 557 314 491 299 L491 299 Z M717 291 C717 463 577 607 401 607 C230 607 85 463 85 291 C85 115 230 -29 401 -29 C577 -29 717 115 717 291 L717 291 Z " />
<glyph glyph-name="cid8390" unicode="&#x24b8;" horiz-adv-x="805" d="M780 287 C780 80 612 -87 405 -87 C195 -87 23 80 23 287 C23 498 195 665 405 665 C612 665 780 498 780 287 L780 287 Z M468 451 C452 466 425 470 409 470 C358 470 339 443 335 435 C323 404 319 377 319 342 L319 225 C319 112 362 100 409 100 C429 100 487 108 487 197 L557 197 C561 49 448 45 413 45 C351 45 249 49 249 229 L249 357 C249 490 315 529 417 529 C518 529 557 474 553 385 L479 385 C479 412 479 439 468 451 L468 451 Z M717 291 C717 463 577 607 401 607 C230 607 85 463 85 291 C85 115 230 -29 401 -29 C577 -29 717 115 717 291 L717 291 Z " />
<glyph glyph-name="cid8391" unicode="&#x24b9;" horiz-adv-x="805" d="M780 287 C780 80 612 -87 405 -87 C195 -87 23 80 23 287 C23 498 195 665 405 665 C612 665 780 498 780 287 L780 287 Z M401 115 C491 115 522 147 522 252 L522 338 C522 431 491 463 425 463 L343 463 L343 115 L401 115 Z M432 521 C495 521 546 502 569 451 C592 412 592 318 592 303 C592 205 585 151 561 115 C534 76 479 57 393 57 L273 57 L273 521 L432 521 Z M717 291 C717 463 577 607 401 607 C230 607 85 463 85 291 C85 115 230 -29 401 -29 C577 -29 717 115 717 291 L717 291 Z " />
<glyph glyph-name="cid8392" unicode="&#x24ba;" horiz-adv-x="805" d="M780 287 C780 80 612 -87 405 -87 C195 -87 23 80 23 287 C23 498 195 665 405 665 C612 665 780 498 780 287 L780 287 Z M280 521 L546 521 L546 459 L351 459 L351 326 L534 326 L534 268 L351 268 L351 115 L549 115 L549 53 L280 53 L280 521 Z M717 291 C717 463 577 607 401 607 C230 607 85 463 85 291 C85 115 230 -29 401 -29 C577 -29 717 115 717 291 L717 291 Z " />
<glyph glyph-name="cid8393" unicode="&#x24bb;" horiz-adv-x="805" d="M780 287 C780 80 612 -87 405 -87 C195 -87 23 80 23 287 C23 498 195 665 405 665 C612 665 780 498 780 287 L780 287 Z M284 505 L542 505 L542 447 L354 447 L354 310 L530 310 L530 248 L354 248 L354 41 L284 41 L284 505 Z M717 291 C717 463 577 607 401 607 C230 607 85 463 85 291 C85 115 230 -29 401 -29 C577 -29 717 115 717 291 L717 291 Z " />
<glyph glyph-name="cid8394" unicode="&#x24bc;" horiz-adv-x="805" d="M780 287 C780 80 612 -87 405 -87 C195 -87 23 80 23 287 C23 498 195 665 405 665 C612 665 780 498 780 287 L780 287 Z M401 474 C382 474 308 470 308 377 L308 229 C308 127 343 104 401 104 C444 104 475 115 487 123 L487 252 L393 252 L393 310 L557 310 L557 84 C514 61 468 45 401 45 C292 45 237 100 237 229 L237 377 C237 470 292 533 401 533 C510 533 565 490 561 392 L487 392 C487 447 464 474 401 474 L401 474 Z M717 291 C717 463 577 607 401 607 C230 607 85 463 85 291 C85 115 230 -29 401 -29 C577 -29 717 115 717 291 L717 291 Z " />
<glyph glyph-name="cid8395" unicode="&#x24bd;" horiz-adv-x="805" d="M780 287 C780 80 612 -87 405 -87 C195 -87 23 80 23 287 C23 498 195 665 405 665 C612 665 780 498 780 287 L780 287 Z M717 291 C717 463 577 607 401 607 C230 607 85 463 85 291 C85 115 230 -29 401 -29 C577 -29 717 115 717 291 L717 291 Z M253 521 L323 521 L323 326 L495 326 L495 521 L565 521 L565 57 L495 57 L495 268 L323 268 L323 57 L253 57 L253 521 Z " />
<glyph glyph-name="cid8396" unicode="&#x24be;" horiz-adv-x="805" d="M780 287 C780 80 612 -87 405 -87 C195 -87 23 80 23 287 C23 498 195 665 405 665 C612 665 780 498 780 287 L780 287 Z M717 291 C717 463 577 607 401 607 C230 607 85 463 85 291 C85 115 230 -29 401 -29 C577 -29 717 115 717 291 L717 291 Z M370 49 L370 525 L436 525 L436 49 L370 49 Z " />
<glyph glyph-name="cid8397" unicode="&#x24bf;" horiz-adv-x="805" d="M780 287 C780 80 612 -87 405 -87 C195 -87 23 80 23 287 C23 498 195 665 405 665 C612 665 780 498 780 287 L780 287 Z M319 174 C319 139 331 104 378 104 C444 104 448 154 448 213 L448 521 L518 521 L518 174 C518 147 518 45 378 45 C347 45 292 57 269 92 C245 127 245 166 245 205 L319 205 L319 174 Z M717 291 C717 463 577 607 401 607 C230 607 85 463 85 291 C85 115 230 -29 401 -29 C577 -29 717 115 717 291 L717 291 Z " />
<glyph glyph-name="cid8398" unicode="&#x24c0;" horiz-adv-x="805" d="M780 287 C780 80 612 -87 405 -87 C195 -87 23 80 23 287 C23 498 195 665 405 665 C612 665 780 498 780 287 L780 287 Z M319 291 L319 53 L249 53 L249 517 L319 517 L319 318 L495 517 L573 517 L386 310 L585 53 L495 53 L319 291 Z M717 291 C717 463 577 607 401 607 C230 607 85 463 85 291 C85 115 230 -29 401 -29 C577 -29 717 115 717 291 L717 291 Z " />
<glyph glyph-name="cid8399" unicode="&#x24c1;" horiz-adv-x="805" d="M780 287 C780 80 612 -87 405 -87 C195 -87 23 80 23 287 C23 498 195 665 405 665 C612 665 780 498 780 287 L780 287 Z M300 533 L366 533 L366 127 L553 127 L553 69 L300 69 L300 533 Z M717 291 C717 463 577 607 401 607 C230 607 85 463 85 291 C85 115 230 -29 401 -29 C577 -29 717 115 717 291 L717 291 Z " />
<glyph glyph-name="cid8400" unicode="&#x24c2;" horiz-adv-x="805" d="M780 287 C780 80 612 -87 405 -87 C195 -87 23 80 23 287 C23 498 195 665 405 665 C612 665 780 498 780 287 L780 287 Z M717 291 C717 463 577 607 401 607 C230 607 85 463 85 291 C85 115 230 -29 401 -29 C577 -29 717 115 717 291 L717 291 Z M269 49 L202 49 L202 525 L315 525 L401 154 L487 525 L604 525 L604 49 L534 49 L534 459 L432 49 L366 49 L269 459 L269 49 Z " />
<glyph glyph-name="cid8401" unicode="&#x24c3;" horiz-adv-x="805" d="M780 287 C780 80 612 -87 405 -87 C195 -87 23 80 23 287 C23 498 195 665 405 665 C612 665 780 498 780 287 L780 287 Z M717 291 C717 463 577 607 401 607 C230 607 85 463 85 291 C85 115 230 -29 401 -29 C577 -29 717 115 717 291 L717 291 Z M518 517 L581 517 L581 53 L487 53 L288 447 L288 53 L226 53 L226 517 L319 517 L518 127 L518 517 Z " />
<glyph glyph-name="cid8402" unicode="&#x24c4;" horiz-adv-x="805" d="M780 287 C780 80 612 -87 405 -87 C195 -87 23 80 23 287 C23 498 195 665 405 665 C612 665 780 498 780 287 L780 287 Z M245 369 C245 463 300 525 409 525 C518 525 569 463 569 369 L569 221 C569 92 518 41 409 41 C300 41 245 92 245 221 L245 369 Z M499 369 C499 463 429 466 409 466 C390 466 315 463 315 369 L315 221 C315 119 351 96 409 96 C468 96 499 119 499 221 L499 369 Z M717 291 C717 463 577 607 401 607 C230 607 85 463 85 291 C85 115 230 -29 401 -29 C577 -29 717 115 717 291 L717 291 Z " />
<glyph glyph-name="cid8403" unicode="&#x24c5;" horiz-adv-x="805" d="M780 287 C780 80 612 -87 405 -87 C195 -87 23 80 23 287 C23 498 195 665 405 665 C612 665 780 498 780 287 L780 287 Z M717 291 C717 463 577 607 401 607 C230 607 85 463 85 291 C85 115 230 -29 401 -29 C577 -29 717 115 717 291 L717 291 Z M432 299 C460 299 522 307 522 377 C522 447 468 447 452 447 L366 447 L366 299 L432 299 Z M296 505 L448 505 C518 505 592 486 592 373 C592 268 499 240 448 240 L366 240 L366 41 L296 41 L296 505 Z " />
<glyph glyph-name="cid8404" unicode="&#x24c6;" horiz-adv-x="805" d="M780 287 C780 80 612 -87 405 -87 C195 -87 23 80 23 287 C23 498 195 665 405 665 C612 665 780 498 780 287 L780 287 Z M491 377 C491 470 421 474 401 474 C382 474 308 470 308 377 L308 229 C308 151 327 112 401 112 C475 112 491 151 491 229 L491 377 Z M526 104 L561 112 L592 112 L592 57 L401 57 C331 57 237 61 237 229 L237 377 C237 470 292 529 401 529 C510 529 565 470 565 377 L565 229 C565 197 549 123 526 104 L526 104 Z M717 291 C717 463 577 607 401 607 C230 607 85 463 85 291 C85 115 230 -29 401 -29 C577 -29 717 115 717 291 L717 291 Z " />
<glyph glyph-name="cid8405" unicode="&#x24c7;" horiz-adv-x="805" d="M780 287 C780 80 612 -87 405 -87 C195 -87 23 80 23 287 C23 498 195 665 405 665 C612 665 780 498 780 287 L780 287 Z M432 326 C475 326 495 361 495 404 C495 435 479 466 432 466 L335 466 L335 326 L432 326 Z M557 186 C557 162 565 92 577 61 L507 61 C495 80 491 104 487 127 L483 213 C479 268 432 268 409 268 L335 268 L335 61 L265 61 L265 525 L444 525 C534 525 569 466 569 408 C569 357 538 314 479 303 C534 295 553 271 557 186 L557 186 Z M717 291 C717 463 577 607 401 607 C230 607 85 463 85 291 C85 115 230 -29 401 -29 C577 -29 717 115 717 291 L717 291 Z " />
<glyph glyph-name="cid8406" unicode="&#x24c8;" horiz-adv-x="805" d="M780 287 C780 80 612 -87 405 -87 C195 -87 23 80 23 287 C23 498 195 665 405 665 C612 665 780 498 780 287 L780 287 Z M323 178 C323 119 362 104 405 104 C456 104 495 119 495 170 C495 197 479 213 460 229 L425 252 C390 268 351 283 319 307 C288 326 265 357 265 400 C265 482 327 529 413 529 C507 529 565 482 561 388 L487 388 C487 439 471 466 413 466 C374 466 335 455 335 408 C335 381 351 365 370 349 L448 310 C507 283 565 248 565 174 C565 76 487 45 405 45 C253 41 253 151 253 193 L323 193 L323 178 Z M717 291 C717 463 577 607 401 607 C230 607 85 463 85 291 C85 115 230 -29 401 -29 C577 -29 717 115 717 291 L717 291 Z " />
<glyph glyph-name="cid8407" unicode="&#x24c9;" horiz-adv-x="805" d="M780 287 C780 80 612 -87 405 -87 C195 -87 23 80 23 287 C23 498 195 665 405 665 C612 665 780 498 780 287 L780 287 Z M717 291 C717 463 577 607 401 607 C230 607 85 463 85 291 C85 115 230 -29 401 -29 C577 -29 717 115 717 291 L717 291 Z M577 439 L444 439 L444 34 L374 34 L374 439 L237 439 L237 498 L577 498 L577 439 Z " />
<glyph glyph-name="cid8408" unicode="&#x24ca;" horiz-adv-x="805" d="M780 287 C780 80 612 -87 405 -87 C195 -87 23 80 23 287 C23 498 195 665 405 665 C612 665 780 498 780 287 L780 287 Z M717 291 C717 463 577 607 401 607 C230 607 85 463 85 291 C85 115 230 -29 401 -29 C577 -29 717 115 717 291 L717 291 Z M315 505 L315 209 C315 112 351 88 409 88 C468 88 503 112 503 209 L503 505 L569 505 L569 209 C569 80 518 30 409 30 C300 30 245 80 245 209 L245 505 L315 505 Z " />
<glyph glyph-name="cid8409" unicode="&#x24cb;" horiz-adv-x="805" d="M780 287 C780 80 612 -87 405 -87 C195 -87 23 80 23 287 C23 498 195 665 405 665 C612 665 780 498 780 287 L780 287 Z M717 291 C717 463 577 607 401 607 C230 607 85 463 85 291 C85 115 230 -29 401 -29 C577 -29 717 115 717 291 L717 291 Z M526 498 L600 498 L448 34 L366 34 L218 498 L292 498 L409 104 L526 498 Z " />
<glyph glyph-name="cid8410" unicode="&#x24cc;" horiz-adv-x="805" d="M780 287 C780 80 612 -87 405 -87 C195 -87 23 80 23 287 C23 498 195 665 405 665 C612 665 780 498 780 287 L780 287 Z M331 26 L245 26 L152 470 C109 420 85 353 85 291 C85 115 230 -29 401 -29 C577 -29 717 115 717 291 C717 463 577 607 401 607 C296 607 206 552 152 474 L226 474 L292 112 L362 474 L444 474 L510 112 L585 474 L655 474 L549 26 L468 26 L401 392 L331 26 Z " />
<glyph glyph-name="cid8411" unicode="&#x24cd;" horiz-adv-x="805" d="M780 287 C780 80 612 -87 405 -87 C195 -87 23 80 23 287 C23 498 195 665 405 665 C612 665 780 498 780 287 L780 287 Z M514 53 L393 248 L284 53 L210 53 L358 295 L218 517 L296 517 L397 342 L503 517 L581 517 L440 295 L596 53 L514 53 Z M717 291 C717 463 577 607 401 607 C230 607 85 463 85 291 C85 115 230 -29 401 -29 C577 -29 717 115 717 291 L717 291 Z " />
<glyph glyph-name="cid8412" unicode="&#x24ce;" horiz-adv-x="805" d="M780 287 C780 80 612 -87 405 -87 C195 -87 23 80 23 287 C23 498 195 665 405 665 C612 665 780 498 780 287 L780 287 Z M581 498 L440 209 L440 30 L370 30 L370 209 L234 498 L312 498 L409 279 L510 498 L581 498 Z M717 291 C717 463 577 607 401 607 C230 607 85 463 85 291 C85 115 230 -29 401 -29 C577 -29 717 115 717 291 L717 291 Z " />
<glyph glyph-name="cid8413" unicode="&#x24cf;" horiz-adv-x="805" d="M780 287 C780 80 612 -87 405 -87 C195 -87 23 80 23 287 C23 498 195 665 405 665 C612 665 780 498 780 287 L780 287 Z M249 455 L249 513 L557 513 L557 455 L312 108 L565 108 L565 49 L241 49 L241 119 L483 455 L249 455 Z M717 291 C717 463 577 607 401 607 C230 607 85 463 85 291 C85 115 230 -29 401 -29 C577 -29 717 115 717 291 L717 291 Z " />
<glyph glyph-name="cid707" unicode="&#x24d0;" horiz-adv-x="900" d="M820 300 C820 509 655 678 450 678 C245 678 80 509 80 300 C80 91 245 -78 450 -78 C655 -78 820 91 820 300 L820 300 Z M638 103 L553 103 C544 116 539 132 538 152 C515 124 462 95 405 90 C329 84 265 115 256 187 C246 260 291 307 351 326 C397 339 447 340 482 349 C509 354 539 362 539 394 C539 422 512 451 449 451 C389 451 355 419 360 380 L277 380 C271 466 353 523 450 523 C544 523 623 472 623 393 L623 168 C623 133 637 105 638 103 L638 103 Z M539 261 L539 302 C532 295 514 288 497 284 C466 276 415 271 392 263 C357 250 336 229 343 198 C348 169 394 162 430 168 C491 180 539 223 539 261 L539 261 Z M876 300 C876 62 684 -131 450 -131 C216 -131 24 62 24 300 C24 538 216 731 450 731 C684 731 876 538 876 300 L876 300 Z " />
<glyph glyph-name="cid708" unicode="&#x24d1;" horiz-adv-x="900" d="M820 300 C820 509 655 678 450 678 C245 678 80 509 80 300 C80 91 245 -78 450 -78 C655 -78 820 91 820 300 L820 300 Z M677 224 C677 98 606 8 498 8 C447 8 405 28 373 62 L373 21 L289 21 L289 579 L373 579 L373 386 C405 421 447 441 498 441 C606 441 677 351 677 224 L677 224 Z M590 224 C590 308 549 366 482 366 C415 366 373 308 373 224 C373 141 415 82 482 82 C549 82 590 141 590 224 L590 224 Z M876 300 C876 62 684 -131 450 -131 C216 -131 24 62 24 300 C24 538 216 731 450 731 C684 731 876 538 876 300 L876 300 Z " />
<glyph glyph-name="cid709" unicode="&#x24d2;" horiz-adv-x="900" d="M820 300 C820 509 655 678 450 678 C245 678 80 509 80 300 C80 91 245 -78 450 -78 C655 -78 820 91 820 300 L820 300 Z M640 223 C622 152 561 82 456 82 C336 82 262 180 262 299 C262 418 336 515 456 515 C562 515 628 437 640 374 L549 374 C542 400 516 440 457 440 C390 440 347 376 347 299 C347 221 390 157 457 157 C509 157 539 192 548 223 L640 223 Z M876 300 C876 62 684 -131 450 -131 C216 -131 24 62 24 300 C24 538 216 731 450 731 C684 731 876 538 876 300 L876 300 Z " />
<glyph glyph-name="cid710" unicode="&#x24d3;" horiz-adv-x="900" d="M820 300 C820 509 655 678 450 678 C245 678 80 509 80 300 C80 91 245 -78 450 -78 C655 -78 820 91 820 300 L820 300 Z M612 22 L528 22 L528 62 C497 29 455 8 404 8 C294 8 224 99 224 225 C224 352 294 442 404 442 C455 442 497 422 528 389 L528 579 L612 579 L612 22 Z M528 225 C528 309 490 367 420 367 C351 367 312 309 312 225 C312 142 351 83 420 83 C490 83 528 142 528 225 L528 225 Z M876 300 C876 62 684 -131 450 -131 C216 -131 24 62 24 300 C24 538 216 731 450 731 C684 731 876 538 876 300 L876 300 Z " />
<glyph glyph-name="cid711" unicode="&#x24d4;" horiz-adv-x="900" d="M820 300 C820 509 655 678 450 678 C245 678 80 509 80 300 C80 91 245 -78 450 -78 C655 -78 820 91 820 300 L820 300 Z M645 269 L345 269 C346 218 389 157 452 157 C502 157 528 186 537 205 L631 205 C613 148 564 81 453 81 C337 81 256 179 256 299 C256 418 333 516 451 516 C556 516 654 434 645 269 L645 269 Z M554 339 C547 392 510 440 452 440 C393 440 356 397 347 339 L554 339 Z M876 300 C876 62 684 -131 450 -131 C216 -131 24 62 24 300 C24 538 216 731 450 731 C684 731 876 538 876 300 L876 300 Z " />
<glyph glyph-name="cid712" unicode="&#x24d5;" horiz-adv-x="900" d="M820 300 C820 509 655 678 450 678 C245 678 80 509 80 300 C80 91 245 -78 450 -78 C655 -78 820 91 820 300 L820 300 Z M536 350 L480 350 L480 19 L396 19 L396 350 L348 350 L348 420 L396 420 L396 467 C396 505 403 524 419 542 C434 559 456 572 486 572 L536 572 L536 501 C519 501 505 503 493 494 C482 483 480 472 480 452 L480 420 L536 420 L536 350 Z M876 300 C876 62 684 -131 450 -131 C216 -131 24 62 24 300 C24 538 216 731 450 731 C684 731 876 538 876 300 L876 300 Z " />
<glyph glyph-name="cid713" unicode="&#x24d6;" horiz-adv-x="900" d="M820 300 C820 509 655 678 450 678 C245 678 80 509 80 300 C80 91 245 -78 450 -78 C655 -78 820 91 820 300 L820 300 Z M628 190 C628 60 528 20 440 20 C327 20 260 85 255 154 L339 154 C341 122 379 91 441 91 C506 91 544 123 544 185 L544 235 C512 201 468 181 419 181 C315 181 239 268 239 379 C239 490 312 577 419 577 C469 577 513 557 544 525 L544 563 L628 563 L628 190 Z M544 379 C544 453 501 502 435 502 C370 502 327 453 327 379 C327 305 370 257 435 257 C501 257 544 305 544 379 L544 379 Z M876 300 C876 62 684 -131 450 -131 C216 -131 24 62 24 300 C24 538 216 731 450 731 C684 731 876 538 876 300 L876 300 Z " />
<glyph glyph-name="cid714" unicode="&#x24d7;" horiz-adv-x="900" d="M820 300 C820 509 655 678 450 678 C245 678 80 509 80 300 C80 91 245 -78 450 -78 C655 -78 820 91 820 300 L820 300 Z M622 20 L537 20 L537 263 C537 327 513 358 458 358 C403 358 362 313 362 252 L362 20 L277 20 L277 577 L362 577 L362 385 C390 415 437 445 504 438 C585 431 622 357 622 300 L622 20 Z M876 300 C876 62 684 -131 450 -131 C216 -131 24 62 24 300 C24 538 216 731 450 731 C684 731 876 538 876 300 L876 300 Z " />
<glyph glyph-name="cid715" unicode="&#x24d8;" horiz-adv-x="900" d="M820 300 C820 509 655 678 450 678 C245 678 80 509 80 300 C80 91 245 -78 450 -78 C655 -78 820 91 820 300 L820 300 Z M491 492 L410 492 L410 577 L491 577 L491 492 Z M491 20 L410 20 L410 425 L491 425 L491 20 Z M876 300 C876 62 684 -131 450 -131 C216 -131 24 62 24 300 C24 538 216 731 450 731 C684 731 876 538 876 300 L876 300 Z " />
<glyph glyph-name="cid716" unicode="&#x24d9;" horiz-adv-x="900" d="M820 300 C820 509 655 678 450 678 C245 678 80 509 80 300 C80 91 245 -78 450 -78 C655 -78 820 91 820 300 L820 300 Z M507 545 L423 545 L423 631 L507 631 L507 545 Z M507 75 C507 36 499 11 483 -5 C468 -21 444 -32 413 -32 L367 -32 L367 39 C383 39 398 37 410 48 C422 58 423 69 423 89 L423 478 L507 478 L507 75 Z M876 300 C876 62 684 -131 450 -131 C216 -131 24 62 24 300 C24 538 216 731 450 731 C684 731 876 538 876 300 L876 300 Z " />
<glyph glyph-name="cid717" unicode="&#x24da;" horiz-adv-x="900" d="M820 300 C820 509 655 678 450 678 C245 678 80 509 80 300 C80 91 245 -78 450 -78 C655 -78 820 91 820 300 L820 300 Z M645 21 L548 21 L401 218 L360 179 L360 21 L276 21 L276 579 L360 579 L360 278 L514 426 L617 426 L458 274 L645 21 Z M876 300 C876 62 684 -131 450 -131 C216 -131 24 62 24 300 C24 538 216 731 450 731 C684 731 876 538 876 300 L876 300 Z " />
<glyph glyph-name="cid718" unicode="&#x24db;" horiz-adv-x="900" d="M820 300 C820 509 655 678 450 678 C245 678 80 509 80 300 C80 91 245 -78 450 -78 C655 -78 820 91 820 300 L820 300 Z M491 21 L409 21 L409 579 L491 579 L491 21 Z M876 300 C876 62 684 -131 450 -131 C216 -131 24 62 24 300 C24 538 216 731 450 731 C684 731 876 538 876 300 L876 300 Z " />
<glyph glyph-name="cid719" unicode="&#x24dc;" horiz-adv-x="900" d="M820 300 C820 509 655 678 450 678 C245 678 80 509 80 300 C80 91 245 -78 450 -78 C655 -78 820 91 820 300 L820 300 Z M712 94 L628 94 L628 345 C628 401 618 437 567 435 C520 432 491 397 491 334 L491 94 L410 94 L410 345 C410 401 399 437 348 435 C302 432 273 397 273 334 L273 94 L189 94 L189 499 L273 499 L273 456 C293 480 327 516 390 512 C430 512 462 489 477 453 C494 474 528 520 611 512 C684 506 712 442 712 376 L712 94 Z M876 300 C876 62 684 -131 450 -131 C216 -131 24 62 24 300 C24 538 216 731 450 731 C684 731 876 538 876 300 L876 300 Z " />
<glyph glyph-name="cid720" unicode="&#x24dd;" horiz-adv-x="900" d="M820 300 C820 509 655 678 450 678 C245 678 80 509 80 300 C80 91 245 -78 450 -78 C655 -78 820 91 820 300 L820 300 Z M623 88 L538 88 L538 329 C538 394 514 425 459 425 C404 425 363 381 363 319 L363 88 L278 88 L278 492 L363 492 L363 452 C391 482 437 512 505 506 C586 498 623 424 623 367 L623 88 Z M876 300 C876 62 684 -131 450 -131 C216 -131 24 62 24 300 C24 538 216 731 450 731 C684 731 876 538 876 300 L876 300 Z " />
<glyph glyph-name="cid721" unicode="&#x24de;" horiz-adv-x="900" d="M820 300 C820 509 655 678 450 678 C245 678 80 509 80 300 C80 91 245 -78 450 -78 C655 -78 820 91 820 300 L820 300 Z M645 299 C645 180 571 82 451 82 C330 82 256 180 256 299 C256 419 330 516 451 516 C571 516 645 419 645 299 L645 299 Z M559 299 C559 376 517 440 451 440 C385 440 343 376 343 299 C343 221 385 157 451 157 C517 157 559 221 559 299 L559 299 Z M876 300 C876 62 684 -131 450 -131 C216 -131 24 62 24 300 C24 538 216 731 450 731 C684 731 876 538 876 300 L876 300 Z " />
<glyph glyph-name="cid722" unicode="&#x24df;" horiz-adv-x="900" d="M820 300 C820 509 655 678 450 678 C245 678 80 509 80 300 C80 91 245 -78 450 -78 C655 -78 820 91 820 300 L820 300 Z M670 363 C670 236 598 145 491 145 C440 145 396 166 365 201 L365 30 L281 30 L281 565 L365 565 L365 525 C396 559 440 579 491 579 C598 579 670 489 670 363 L670 363 Z M583 363 C583 446 542 505 474 505 C408 505 365 446 365 363 C365 279 408 221 474 221 C542 221 583 279 583 363 L583 363 Z M876 300 C876 62 684 -131 450 -131 C216 -131 24 62 24 300 C24 538 216 731 450 731 C684 731 876 538 876 300 L876 300 Z " />
<glyph glyph-name="cid723" unicode="&#x24e0;" horiz-adv-x="900" d="M820 300 C820 509 655 678 450 678 C245 678 80 509 80 300 C80 91 245 -78 450 -78 C655 -78 820 91 820 300 L820 300 Z M611 32 L527 32 L527 203 C494 168 452 148 401 148 C293 148 222 238 222 365 C222 491 293 581 401 581 C452 581 494 562 527 526 L527 567 L611 567 L611 32 Z M527 365 C527 448 484 507 418 507 C350 507 309 448 309 365 C309 282 350 222 418 222 C484 222 527 282 527 365 L527 365 Z M876 300 C876 62 684 -131 450 -131 C216 -131 24 62 24 300 C24 538 216 731 450 731 C684 731 876 538 876 300 L876 300 Z " />
<glyph glyph-name="cid724" unicode="&#x24e1;" horiz-adv-x="900" d="M820 300 C820 509 655 678 450 678 C245 678 80 509 80 300 C80 91 245 -78 450 -78 C655 -78 820 91 820 300 L820 300 Z M583 416 C560 416 536 413 513 399 C475 376 455 340 455 278 L455 81 L372 81 L372 486 L455 486 L455 428 C472 456 491 472 525 487 C547 498 582 499 583 499 L583 416 Z M876 300 C876 62 684 -131 450 -131 C216 -131 24 62 24 300 C24 538 216 731 450 731 C684 731 876 538 876 300 L876 300 Z " />
<glyph glyph-name="cid725" unicode="&#x24e2;" horiz-adv-x="900" d="M820 300 C820 509 655 678 450 678 C245 678 80 509 80 300 C80 91 245 -78 450 -78 C655 -78 820 91 820 300 L820 300 Z M620 208 C616 138 542 82 456 83 C322 84 280 177 279 225 L360 225 C364 188 394 157 453 157 C504 157 529 179 533 205 C537 224 524 242 498 252 C458 270 403 277 370 291 C318 311 290 346 293 400 C297 457 353 515 448 515 C553 515 610 448 608 389 L527 389 C528 410 506 442 451 442 C401 442 378 420 376 398 C374 371 391 360 422 350 C453 339 513 328 553 310 C589 293 623 259 620 208 L620 208 Z M876 300 C876 62 684 -131 450 -131 C216 -131 24 62 24 300 C24 538 216 731 450 731 C684 731 876 538 876 300 L876 300 Z " />
<glyph glyph-name="cid726" unicode="&#x24e3;" horiz-adv-x="900" d="M820 300 C820 509 655 678 450 678 C245 678 80 509 80 300 C80 91 245 -78 450 -78 C655 -78 820 91 820 300 L820 300 Z M539 35 L490 35 C461 35 439 48 423 66 C408 83 401 105 401 143 L401 370 L353 370 L353 442 L401 442 L401 565 L484 565 L484 442 L539 442 L539 370 L484 370 L484 158 C484 136 484 128 497 116 C509 107 524 107 539 107 L539 35 Z M876 300 C876 62 684 -131 450 -131 C216 -131 24 62 24 300 C24 538 216 731 450 731 C684 731 876 538 876 300 L876 300 Z " />
<glyph glyph-name="cid727" unicode="&#x24e4;" horiz-adv-x="900" d="M820 300 C820 509 655 678 450 678 C245 678 80 509 80 300 C80 91 245 -78 450 -78 C655 -78 820 91 820 300 L820 300 Z M620 105 L535 105 L535 147 C512 117 465 88 408 90 C334 93 279 150 279 233 L279 510 L363 510 L363 267 C363 200 390 169 443 171 C498 173 535 211 535 279 L535 510 L620 510 L620 105 Z M876 300 C876 62 684 -131 450 -131 C216 -131 24 62 24 300 C24 538 216 731 450 731 C684 731 876 538 876 300 L876 300 Z " />
<glyph glyph-name="cid728" unicode="&#x24e5;" horiz-adv-x="900" d="M820 300 C820 509 655 678 450 678 C245 678 80 509 80 300 C80 91 245 -78 450 -78 C655 -78 820 91 820 300 L820 300 Z M647 476 L501 75 L403 75 L255 476 L345 476 L452 176 L558 476 L647 476 Z M876 300 C876 62 684 -131 450 -131 C216 -131 24 62 24 300 C24 538 216 731 450 731 C684 731 876 538 876 300 L876 300 Z " />
<glyph glyph-name="cid729" unicode="&#x24e6;" horiz-adv-x="900" d="M820 300 C820 509 655 678 450 678 C245 678 80 509 80 300 C80 91 245 -78 450 -78 C655 -78 820 91 820 300 L820 300 Z M714 476 L607 76 L516 76 L449 336 L382 76 L291 76 L183 476 L268 476 L337 205 L405 476 L493 476 L562 205 L630 476 L714 476 Z M876 300 C876 62 684 -131 450 -131 C216 -131 24 62 24 300 C24 538 216 731 450 731 C684 731 876 538 876 300 L876 300 Z " />
<glyph glyph-name="cid730" unicode="&#x24e7;" horiz-adv-x="900" d="M820 300 C820 509 655 678 450 678 C245 678 80 509 80 300 C80 91 245 -78 450 -78 C655 -78 820 91 820 300 L820 300 Z M642 95 L544 95 L450 230 L357 95 L259 95 L402 300 L266 496 L364 496 L450 370 L537 496 L635 496 L499 300 L642 95 Z M876 300 C876 62 684 -131 450 -131 C216 -131 24 62 24 300 C24 538 216 731 450 731 C684 731 876 538 876 300 L876 300 Z " />
<glyph glyph-name="cid731" unicode="&#x24e8;" horiz-adv-x="900" d="M820 300 C820 509 655 678 450 678 C245 678 80 509 80 300 C80 91 245 -78 450 -78 C655 -78 820 91 820 300 L820 300 Z M657 551 L477 73 C466 43 447 23 427 13 C404 0 381 0 359 0 L321 0 L321 71 L360 71 C382 71 399 87 405 103 L419 141 L264 551 L355 551 L460 257 L568 551 L657 551 Z M876 300 C876 62 684 -131 450 -131 C216 -131 24 62 24 300 C24 538 216 731 450 731 C684 731 876 538 876 300 L876 300 Z " />
<glyph glyph-name="cid732" unicode="&#x24e9;" horiz-adv-x="900" d="M820 300 C820 509 655 678 450 678 C245 678 80 509 80 300 C80 91 245 -78 450 -78 C655 -78 820 91 820 300 L820 300 Z M621 97 L280 97 L280 168 L504 432 L301 432 L301 502 L608 502 L608 432 L382 168 L621 168 L621 97 Z M876 300 C876 62 684 -131 450 -131 C216 -131 24 62 24 300 C24 538 216 731 450 731 C684 731 876 538 876 300 L876 300 Z " />
<glyph glyph-name="cid232" unicode="&#x2592;" horiz-adv-x="900" d="M60 690 L839 690 L839 -90 L60 -90 L60 690 Z M109 641 L109 -41 L790 -41 L790 641 L109 641 Z M682 563 C665 563 654 576 654 592 C654 608 665 622 682 622 C699 622 712 609 712 592 C712 575 700 563 682 563 L682 563 Z M527 563 C510 563 499 576 499 592 C499 608 509 622 527 622 C544 622 556 609 556 592 C556 575 543 563 527 563 L527 563 Z M724 368 C707 368 694 380 694 397 C694 414 707 426 723 426 C739 426 752 414 752 397 C752 381 739 368 724 368 L724 368 Z M585 368 C570 368 557 381 557 397 C557 413 570 427 585 427 C602 427 617 414 617 397 C617 380 603 368 585 368 L585 368 Z M372 563 C354 563 343 574 343 591 C343 608 355 621 371 621 C388 621 400 609 400 591 C400 575 388 563 372 563 L372 563 Z M662 173 C646 173 635 186 635 203 C635 218 646 232 662 232 C680 232 693 219 693 203 C693 185 680 173 662 173 L662 173 Z M448 368 C433 368 420 381 420 397 C420 413 432 427 448 427 C465 427 479 414 479 397 C479 380 464 368 448 368 L448 368 Z M215 563 C199 563 187 576 187 592 C187 608 198 622 215 622 C232 622 245 610 245 592 C245 575 233 563 215 563 L215 563 Z M723 -22 C706 -22 694 -9 694 8 C694 24 706 37 723 37 C741 37 752 25 752 8 C752 -10 738 -22 723 -22 L723 -22 Z M517 173 C500 173 489 186 489 203 C489 218 500 232 517 232 C534 232 547 219 547 203 C547 185 534 173 517 173 L517 173 Z M314 368 C296 368 284 379 284 397 C284 413 296 426 312 426 C329 426 342 414 342 397 C342 380 329 368 314 368 L314 368 Z M585 -22 C570 -22 557 -9 557 8 C557 24 570 37 585 37 C603 37 617 25 617 8 C617 -10 602 -22 585 -22 L585 -22 Z M176 368 C161 368 149 381 149 397 C149 413 160 427 176 427 C193 427 207 415 207 397 C207 380 194 368 176 368 L176 368 Z M363 173 C346 173 334 184 334 202 C334 218 346 231 362 231 C379 231 392 219 392 202 C392 185 379 173 363 173 L363 173 Z M448 -22 C432 -22 419 -10 419 8 C419 25 432 37 448 37 C464 37 478 25 478 8 C478 -9 464 -22 448 -22 L448 -22 Z M227 173 C210 173 198 186 198 203 C198 218 210 232 227 232 C243 232 257 220 257 203 C257 185 245 173 227 173 L227 173 Z M312 -22 C294 -22 283 -10 283 8 C283 25 294 37 312 37 C329 37 342 25 342 8 C342 -10 329 -22 312 -22 L312 -22 Z M176 -22 C160 -22 148 -10 148 8 C148 25 160 37 176 37 C194 37 206 25 206 8 C206 -10 193 -22 176 -22 L176 -22 Z " />
<glyph glyph-name="cid165" unicode="&#x25a0;" horiz-adv-x="900" d="M74 676 L825 676 L825 -76 L74 -76 L74 676 Z " />
<glyph glyph-name="cid164" unicode="&#x25a1;" horiz-adv-x="900" d="M827 678 L827 -78 L72 -78 L72 678 L827 678 Z M131 -19 L769 -19 L769 619 L131 619 L131 -19 Z " />
<glyph glyph-name="cid229" unicode="&#x25a3;" horiz-adv-x="900" d="M63 708 L838 708 L838 -102 L63 -102 L63 708 Z M126 653 L126 -45 L779 -45 L779 653 L126 653 Z M246 519 L658 519 L658 87 L246 87 L246 519 Z " />
<glyph glyph-name="cid233" unicode="&#x25a4;" horiz-adv-x="900" d="M60 690 L839 690 L839 -90 L60 -90 L60 690 Z M109 641 L109 515 L790 515 L790 641 L109 641 Z M109 466 L109 324 L790 324 L790 466 L109 466 Z M109 276 L109 134 L790 134 L790 276 L109 276 Z M109 85 L109 -41 L790 -41 L790 85 L109 85 Z " />
<glyph glyph-name="cid234" unicode="&#x25a5;" horiz-adv-x="900" d="M60 690 L839 690 L839 -90 L60 -90 L60 690 Z M664 641 L664 -41 L790 -41 L790 641 L664 641 Z M473 641 L473 -41 L616 -41 L616 641 L473 641 Z M284 641 L284 -41 L426 -41 L426 641 L284 641 Z M109 641 L109 -41 L235 -41 L235 641 L109 641 Z " />
<glyph glyph-name="cid237" unicode="&#x25a6;" horiz-adv-x="900" d="M59 690 L839 690 L839 -91 L59 -91 L59 690 Z M653 638 L653 503 L788 503 L788 638 L653 638 Z M470 638 L470 503 L607 503 L607 638 L470 638 Z M653 457 L653 322 L788 322 L788 457 L653 457 Z M287 638 L287 503 L425 503 L425 638 L287 638 Z M470 457 L470 322 L607 322 L607 457 L470 457 Z M653 277 L653 141 L788 141 L788 277 L653 277 Z M110 638 L110 503 L241 503 L241 638 L110 638 Z M287 457 L287 322 L425 322 L425 457 L287 457 Z M470 277 L470 141 L607 141 L607 277 L470 277 Z M653 95 L653 -39 L788 -39 L788 95 L653 95 Z M110 457 L110 322 L241 322 L241 457 L110 457 Z M287 277 L287 141 L425 141 L425 277 L287 277 Z M470 95 L470 -39 L607 -39 L607 95 L470 95 Z M110 277 L110 141 L241 141 L241 277 L110 277 Z M287 95 L287 -39 L425 -39 L425 95 L287 95 Z M110 95 L110 -39 L241 -39 L241 95 L110 95 Z " />
<glyph glyph-name="cid236" unicode="&#x25a7;" horiz-adv-x="900" d="M60 690 L839 690 L839 -90 L60 -90 L60 690 Z M666 641 L790 517 L790 641 L666 641 Z M598 641 L419 641 L790 269 L790 448 L598 641 Z M350 641 L150 641 L790 0 L790 200 L350 641 Z M110 412 L563 -41 L762 -41 L110 612 L110 412 Z M110 164 L315 -41 L493 -41 L110 341 L110 164 Z M110 -41 L246 -41 L110 95 L110 -41 Z " />
<glyph glyph-name="cid235" unicode="&#x25a8;" horiz-adv-x="900" d="M60 690 L839 690 L839 -90 L60 -90 L60 690 Z M109 200 L109 0 L750 641 L550 641 L109 200 Z M109 517 L233 641 L109 641 L109 517 Z M109 448 L109 269 L481 641 L302 641 L109 448 Z M789 -41 L789 95 L653 -41 L789 -41 Z M137 -41 L336 -41 L789 412 L789 612 L137 -41 Z M406 -41 L584 -41 L789 164 L789 341 L406 -41 Z " />
<glyph glyph-name="cid238" unicode="&#x25a9;" horiz-adv-x="900" d="M60 688 L839 688 L839 -92 L60 -92 L60 688 Z M681 558 L763 639 L599 639 L681 558 Z M709 530 L790 448 L790 612 L709 530 Z M478 530 L565 442 L653 530 L565 618 L478 530 Z M593 414 L681 326 L770 414 L681 502 L593 414 Z M450 558 L532 639 L367 639 L450 558 Z M709 298 L790 216 L790 380 L709 298 Z M246 530 L334 442 L421 530 L334 618 L246 530 Z M362 414 L450 326 L537 414 L450 502 L362 414 Z M478 298 L565 210 L653 298 L565 386 L478 298 Z M593 182 L681 94 L770 182 L681 270 L593 182 Z M218 558 L300 639 L136 639 L218 558 Z M709 66 L790 -16 L790 148 L709 66 Z M109 448 L190 530 L109 612 L109 448 Z M599 -43 L763 -43 L681 38 L599 -43 Z M130 414 L218 326 L306 414 L218 502 L130 414 Z M246 298 L334 210 L421 298 L334 386 L246 298 Z M362 182 L450 94 L537 182 L450 270 L362 182 Z M478 66 L565 -22 L653 66 L565 154 L478 66 Z M367 -43 L532 -43 L450 38 L367 -43 Z M109 216 L190 298 L109 380 L109 216 Z M246 66 L334 -22 L421 66 L334 154 L246 66 Z M130 182 L218 94 L306 182 L218 270 L130 182 Z M109 -16 L190 66 L109 148 L109 -16 Z M136 -43 L300 -43 L218 38 L136 -43 Z " />
<glyph glyph-name="cid8736" unicode="&#x25b1;" d="" />
<glyph glyph-name="cid167" unicode="&#x25b2;" horiz-adv-x="900" d="M450 687 L889 -72 L10 -72 L450 687 Z " />
<glyph glyph-name="cid166" unicode="&#x25b3;" horiz-adv-x="900" d="M893 -74 L6 -74 L450 692 L893 -74 Z M788 -15 L450 570 L111 -15 L788 -15 Z " />
<glyph glyph-name="cid8780" unicode="&#x25b5;" d="" />
<glyph glyph-name="cid220" unicode="&#x25b6;" horiz-adv-x="900" d="M97 747 L862 303 L97 -140 L97 747 Z " />
<glyph glyph-name="cid219" unicode="&#x25b7;" horiz-adv-x="900" d="M87 747 L852 303 L87 -140 L87 747 Z M146 -35 L730 303 L146 642 L146 -35 Z " />
<glyph glyph-name="cid8781" unicode="&#x25b9;" d="" />
<glyph glyph-name="cid169" unicode="&#x25bc;" horiz-adv-x="900" d="M10 673 L889 673 L450 -86 L10 673 Z " />
<glyph glyph-name="cid168" unicode="&#x25bd;" horiz-adv-x="900" d="M893 675 L450 -91 L6 675 L893 675 Z M788 616 L111 616 L450 31 L788 616 Z " />
<glyph glyph-name="cid8779" unicode="&#x25bf;" d="" />
<glyph glyph-name="cid218" unicode="&#x25c0;" horiz-adv-x="900" d="M802 747 L802 -140 L37 303 L802 747 Z " />
<glyph glyph-name="cid217" unicode="&#x25c1;" horiz-adv-x="900" d="M802 747 L802 -140 L37 303 L802 747 Z M158 303 L743 -35 L743 642 L158 303 Z " />
<glyph glyph-name="cid8782" unicode="&#x25c3;" d="" />
<glyph glyph-name="cid163" unicode="&#x25c6;" horiz-adv-x="900" d="M18 300 L450 732 L881 300 L450 -132 L18 300 Z " />
<glyph glyph-name="cid162" unicode="&#x25c7;" horiz-adv-x="900" d="M450 736 L885 300 L450 -136 L14 300 L450 736 Z M450 -52 L801 300 L450 652 L98 300 L450 -52 Z " />
<glyph glyph-name="cid228" unicode="&#x25c8;" horiz-adv-x="900" d="M-27 295 L452 774 L926 299 L447 -181 L-27 295 Z M58 296 L448 -97 L842 298 L451 689 L58 296 Z M176 294 L453 573 L725 299 L447 22 L176 294 Z " />
<glyph glyph-name="cid227" unicode="&#x25c9;" horiz-adv-x="900" d="M454 -122 C212 -122 27 61 27 299 C27 535 214 717 455 717 C690 717 871 535 871 299 C871 60 691 -122 454 -122 L454 -122 Z M445 664 C252 664 91 497 91 296 C91 95 252 -67 452 -67 C650 -67 810 95 810 296 C810 500 647 664 445 664 L445 664 Z M451 100 C335 100 248 183 248 299 C248 415 334 496 451 496 C570 496 654 415 654 300 C654 184 567 100 451 100 L451 100 Z " />
<glyph glyph-name="cid8787" unicode="&#x25ca;" horiz-adv-x="805" d="" />
<glyph glyph-name="cid159" unicode="&#x25cb;" horiz-adv-x="900" d="M50 301 C50 522 229 701 450 701 C671 701 850 523 850 301 C850 80 671 -99 450 -99 C229 -99 50 80 50 301 L50 301 Z M108 301 C108 113 262 -41 450 -41 C637 -41 791 113 791 301 C791 489 637 643 450 643 C262 643 108 490 108 301 L108 301 Z " />
<glyph glyph-name="cid8639" unicode="&#x25cc;" d="" />
<glyph glyph-name="cid161" unicode="&#x25ce;" horiz-adv-x="900" d="M210 300 C210 433 317 540 450 540 C582 540 689 433 689 300 C689 167 582 60 450 60 C317 60 210 167 210 300 L210 300 Z M269 300 C269 200 350 119 450 119 C550 119 630 200 630 300 C630 400 550 481 450 481 C350 481 269 400 269 300 L269 300 Z M50 301 C50 522 229 701 450 701 C671 701 850 523 850 301 C850 80 671 -99 450 -99 C229 -99 50 80 50 301 L50 301 Z M108 301 C108 113 262 -41 450 -41 C637 -41 791 113 791 301 C791 489 637 643 450 643 C262 643 108 490 108 301 L108 301 Z " />
<glyph glyph-name="cid160" unicode="&#x25cf;" horiz-adv-x="900" d="M450 -97 C230 -97 52 81 52 301 C52 521 230 699 450 699 C670 699 847 521 847 301 C847 81 670 -97 450 -97 L450 -97 Z " />
<glyph glyph-name="cid230" unicode="&#x25d0;" horiz-adv-x="900" d="M451 -122 C212 -122 28 63 28 301 C28 538 212 722 450 722 C690 722 871 539 871 301 C871 60 690 -122 451 -122 L451 -122 Z M456 665 L456 -66 C667 -59 810 114 810 300 C810 484 665 658 456 665 L456 665 Z " />
<glyph glyph-name="cid231" unicode="&#x25d1;" horiz-adv-x="900" d="M452 -123 C212 -123 28 60 28 300 C28 518 187 720 457 720 C688 720 870 534 870 300 C870 59 689 -123 452 -123 L452 -123 Z M445 664 C232 657 91 481 91 295 C91 118 236 -59 445 -66 L445 664 Z " />
<glyph glyph-name="cid8775" unicode="&#x25e6;" d="" />
<glyph glyph-name="cid8633" unicode="&#x25ef;" d="" />
<glyph glyph-name="cid158" unicode="&#x2605;" horiz-adv-x="900" d="M729 -97 L447 109 L156 -98 L272 233 L-11 437 L344 437 L453 745 L554 437 L911 437 L621 232 L729 -97 Z " />
<glyph glyph-name="cid157" unicode="&#x2606;" horiz-adv-x="900" d="M448 101 L152 -111 L270 227 L-17 435 L344 435 L454 748 L556 435 L920 435 L626 225 L735 -109 L448 101 Z M389 372 L176 372 L347 252 L279 59 L446 179 L611 60 L550 252 L727 372 L507 372 L453 550 L389 372 Z " />
<glyph glyph-name="cid241" unicode="&#x260e;" horiz-adv-x="900" d="M779 372 C806 371 851 373 869 378 C869 343 843 339 809 340 L729 343 C697 344 673 355 669 389 C705 377 732 374 779 372 L779 372 Z M755 548 C846 522 856 486 866 398 C847 393 801 391 773 392 C726 394 706 398 664 409 C662 440 628 469 593 475 L593 424 C593 391 599 389 625 363 C650 337 665 336 676 303 L752 82 C752 64 743 4 742 1 C742 -3 732 -2 725 -2 L176 -2 C170 -2 160 -3 160 1 C158 4 149 64 149 82 L225 303 C236 336 252 337 276 363 C302 389 308 391 308 424 L308 475 C273 469 239 440 237 409 C196 398 175 394 128 392 C100 391 54 393 35 398 C45 486 55 522 146 548 C243 575 355 587 451 587 C551 587 658 575 755 548 L755 548 Z M123 372 C170 374 197 377 233 389 C228 355 205 344 172 343 L92 340 C58 339 32 343 32 378 C51 373 95 371 123 372 L123 372 Z M537 409 L551 483 C526 485 489 490 450 490 C410 490 374 484 348 482 L362 408 L450 413 L537 409 Z M447 113 C519 113 576 170 576 243 C576 311 520 370 451 370 C382 370 323 316 323 245 C323 176 375 113 447 113 L447 113 Z " />
<glyph glyph-name="cid240" unicode="&#x260f;" horiz-adv-x="900" d="M755 546 C830 525 854 486 866 398 C873 342 843 339 809 340 L729 343 C692 344 674 352 664 409 C658 443 639 464 593 475 L593 424 C593 391 597 386 625 363 C648 343 665 336 676 303 L752 82 C752 64 743 6 742 3 C742 -1 732 0 725 0 L176 0 C170 0 160 -1 160 3 C158 6 149 64 149 82 L225 303 C236 336 253 343 276 363 C305 386 308 391 308 424 L308 475 C262 464 243 443 237 409 C227 352 209 344 172 343 L92 340 C58 339 28 342 35 398 C47 486 71 525 146 546 C239 573 355 587 451 587 C551 587 662 573 755 546 L755 546 Z M514 440 L523 489 C514 490 478 493 450 493 C419 493 385 490 376 489 L385 440 C400 442 428 443 450 443 C471 443 500 442 514 440 L514 440 Z M802 365 C835 364 841 374 833 418 C823 486 787 509 710 529 C630 550 530 559 451 559 C371 559 271 550 191 529 C115 509 79 486 68 418 C61 374 66 364 99 365 L163 367 C191 368 201 377 210 427 C219 479 276 499 332 508 C402 520 499 520 570 508 C625 499 682 479 691 427 C700 377 710 368 738 367 L802 365 Z M724 75 L653 280 C637 326 617 335 593 352 C566 371 563 395 563 428 L563 483 C560 483 554 484 551 484 L537 414 C536 414 489 418 450 418 C410 418 364 413 362 413 L351 485 L338 483 L338 428 C338 395 335 371 308 352 C284 335 264 326 248 280 L178 75 L185 30 L716 30 L724 75 Z M451 370 C520 370 576 311 576 243 C576 170 519 113 447 113 C375 113 323 176 323 245 C323 316 382 370 451 370 L451 370 Z M447 141 C505 141 548 186 548 243 C548 296 505 342 451 342 C397 342 350 300 350 245 C350 191 392 141 447 141 L447 141 Z " />
<glyph glyph-name="cid242" unicode="&#x261c;" horiz-adv-x="900" d="M828 136 L699 136 L699 182 C676 182 651 184 619 170 C537 131 482 140 411 142 C399 122 374 117 351 117 C310 117 229 140 229 192 C229 208 239 224 253 231 C245 239 243 251 243 261 C243 282 256 298 275 306 C270 310 266 321 266 328 C266 341 272 352 281 362 L176 368 C145 370 60 369 60 430 C60 475 130 479 176 480 L337 485 L425 483 C438 493 455 499 473 499 C546 499 608 456 666 426 C680 420 680 419 699 419 L699 462 L828 462 L828 136 Z M765 163 L765 435 L726 435 L726 163 L765 163 Z M699 207 L699 394 C679 394 676 392 665 397 C608 422 538 474 480 474 C451 474 437 465 419 445 L371 396 C362 387 345 372 345 359 C345 341 369 333 383 333 C408 333 429 349 447 364 L491 401 L502 388 L461 341 C472 333 489 317 498 304 C500 304 545 296 583 299 C603 301 626 307 642 312 L648 314 L655 306 L655 300 C653 299 610 282 587 279 C542 274 503 279 501 279 C491 247 484 232 450 226 C450 204 442 182 418 178 L418 163 C480 159 552 161 615 193 C645 209 673 207 699 207 L699 207 Z M441 252 C458 252 475 262 475 283 C475 300 452 325 434 325 C426 325 408 313 382 313 C351 313 327 329 309 352 C301 347 294 341 294 330 C294 306 330 290 347 282 C363 275 424 252 441 252 L441 252 Z M403 460 L320 460 L179 458 C157 458 86 459 86 428 C86 400 123 392 143 391 L275 386 L332 386 L403 460 Z M398 198 C415 198 425 209 423 225 C423 234 410 235 405 237 C378 244 334 264 315 276 C309 279 299 284 292 284 C279 284 270 273 270 261 C270 242 292 225 307 219 C327 211 376 198 398 198 L398 198 Z M351 136 C369 136 394 140 394 162 C394 172 387 176 378 177 C325 185 292 199 271 214 C263 219 254 204 256 189 C260 156 326 136 351 136 L351 136 Z " />
<glyph glyph-name="cid9222" unicode="&#x261d;" d="" />
<glyph glyph-name="cid243" unicode="&#x261e;" horiz-adv-x="900" d="M721 500 C767 499 838 495 838 450 C838 389 753 390 721 388 L617 382 C626 372 633 361 633 348 C633 341 628 330 624 326 C643 318 654 302 654 281 C654 271 653 259 645 251 C658 244 670 228 670 212 C670 160 589 137 546 137 C525 137 500 142 487 162 C417 160 361 151 278 190 C248 204 221 202 199 202 L199 156 L70 156 L70 482 L199 482 L199 439 C219 439 219 440 232 446 C290 476 352 519 425 519 C443 519 460 513 473 503 L562 505 L721 500 Z M755 411 C775 412 812 420 812 448 C812 479 742 478 719 478 L578 480 L494 480 L566 406 L623 406 L755 411 Z M551 302 C567 310 603 326 603 350 C603 361 598 367 590 372 C572 349 546 333 517 333 C491 333 473 345 464 345 C446 345 421 320 421 303 C421 282 439 272 457 272 C474 272 536 295 551 302 L551 302 Z M591 239 C607 245 627 262 627 281 C627 293 618 304 607 304 C599 304 590 299 583 296 C564 284 519 264 493 257 C489 255 475 254 474 245 C473 229 483 218 500 218 C521 218 572 231 591 239 L591 239 Z M547 156 C572 156 638 176 643 209 C644 224 635 239 627 234 C607 219 573 205 519 197 C511 196 503 192 503 182 C503 160 529 156 547 156 L547 156 Z M515 353 C528 353 554 361 554 379 C554 392 536 407 527 416 L480 465 C460 485 447 494 419 494 C360 494 291 442 233 417 C221 412 220 414 199 414 L199 227 C224 227 253 229 284 213 C347 181 419 179 481 183 L481 198 C456 202 448 224 448 246 C412 252 407 267 397 299 C394 299 356 294 311 299 C288 302 245 319 243 320 L243 326 L250 334 L257 332 C273 327 294 321 314 319 C354 316 399 324 401 324 C410 337 427 353 437 361 L396 408 L407 421 L451 384 C467 369 491 353 515 353 L515 353 Z M172 183 L172 455 L133 455 L133 183 L172 183 Z " />
<glyph glyph-name="cid9223" unicode="&#x261f;" d="" />
<glyph glyph-name="cid8664" unicode="&#x262f;" d="" />
<glyph glyph-name="cid147" unicode="&#x2640;" horiz-adv-x="900" d="M493 144 L493 -113 L409 -113 L409 144 L122 144 L122 225 L409 225 L409 295 C291 316 207 406 207 514 C207 638 316 737 448 737 C582 737 691 638 691 514 C691 407 609 318 493 295 L493 225 L779 225 L779 144 L493 144 Z M606 514 C606 593 536 657 448 657 C362 657 293 593 293 514 C293 436 362 371 448 371 C536 371 606 436 606 514 L606 514 Z " />
<glyph glyph-name="cid146" unicode="&#x2642;" horiz-adv-x="900" d="M723 412 L490 614 L490 319 C608 298 691 208 691 100 C691 -24 582 -123 448 -123 C315 -123 206 -24 206 100 C206 207 289 296 403 319 L403 606 L182 396 L122 455 L446 755 L779 479 L723 412 Z M606 100 C606 178 536 243 448 243 C362 243 292 178 292 100 C292 21 362 -43 448 -43 C536 -43 606 21 606 100 L606 100 Z " />
<glyph glyph-name="cid222" unicode="&#x2660;" horiz-adv-x="900" d="M643 56 C587 56 538 64 503 84 C509 -67 572 -87 709 -100 L721 -134 L178 -134 L190 -100 C328 -87 390 -67 396 84 C361 64 312 56 257 56 C167 56 105 126 105 217 C105 313 169 382 238 438 C326 510 410 617 450 801 C489 617 573 510 662 438 C730 382 794 313 794 217 C794 126 733 56 643 56 L643 56 Z " />
<glyph glyph-name="cid223" unicode="&#x2661;" horiz-adv-x="900" d="M814 507 C817 338 639 187 543 62 C508 15 479 -32 450 -130 C420 -32 392 15 356 61 C260 187 82 338 86 507 C88 607 166 683 266 683 C342 683 411 647 451 574 C492 646 558 683 633 683 C734 683 811 608 814 507 L814 507 Z M618 623 C543 618 482 531 450 410 C417 531 356 620 281 624 C194 628 152 569 152 492 C152 404 218 322 275 253 C312 207 350 169 381 131 C408 100 430 70 450 31 C472 69 494 100 519 131 C551 169 587 207 625 253 C681 322 747 404 747 492 C747 570 707 628 618 623 L618 623 Z " />
<glyph glyph-name="cid226" unicode="&#x2663;" horiz-adv-x="900" d="M648 69 C598 69 541 82 501 118 C509 -49 575 -85 709 -98 L721 -132 L176 -132 L189 -98 C323 -85 389 -50 397 118 C357 83 302 70 253 70 C144 70 60 154 60 257 C60 348 129 436 230 446 C245 447 258 448 275 445 C264 470 261 489 261 522 C261 628 356 707 451 707 C543 707 637 630 637 523 C637 491 633 467 620 443 C729 462 839 375 839 257 C839 156 757 69 648 69 L648 69 Z " />
<glyph glyph-name="cid221" unicode="&#x2664;" horiz-adv-x="900" d="M643 56 C594 56 554 68 526 84 C530 -69 572 -87 709 -100 L721 -134 L178 -134 L190 -100 C326 -87 369 -69 374 84 C345 68 305 56 257 56 C167 56 105 126 105 217 C105 313 170 381 238 437 C327 510 410 617 450 801 C489 617 572 510 662 437 C729 381 794 313 794 217 C794 126 733 56 643 56 L643 56 Z M652 364 C637 377 623 388 608 400 C539 458 481 537 450 605 C419 537 360 458 291 401 C262 377 232 355 209 325 C185 295 171 259 173 207 C176 146 219 111 293 117 C336 121 394 154 437 233 C437 57 434 -27 394 -78 L506 -78 C466 -27 463 55 463 233 C507 154 566 121 607 117 C681 111 725 146 726 207 C728 277 700 320 652 364 L652 364 Z " />
<glyph glyph-name="cid224" unicode="&#x2665;" horiz-adv-x="900" d="M814 506 C814 335 641 189 543 62 C508 15 479 -32 450 -130 C420 -32 392 15 356 61 C260 186 86 333 86 505 C86 608 166 682 266 682 C351 682 417 623 450 542 C482 624 548 683 633 683 C734 683 814 609 814 506 L814 506 Z " />
<glyph glyph-name="cid225" unicode="&#x2667;" horiz-adv-x="900" d="M648 69 C603 69 560 86 521 120 C527 -50 575 -85 709 -98 L721 -132 L176 -132 L189 -98 C323 -85 371 -51 376 121 C342 90 298 70 253 70 C144 70 60 154 60 257 C60 348 129 436 230 446 C245 447 258 448 275 445 C264 470 261 489 261 522 C261 628 353 707 451 707 C546 707 637 630 637 523 C637 491 633 467 620 443 C729 462 839 375 839 257 C839 156 757 69 648 69 L648 69 Z M583 365 L526 421 C562 453 572 497 572 536 C572 596 518 651 448 651 C381 651 326 596 326 536 C326 497 335 456 370 425 L314 368 C285 388 264 389 235 388 C176 386 128 328 128 258 C128 190 174 135 239 135 C289 135 337 157 361 204 L438 204 C438 75 432 -23 388 -77 L512 -77 C472 -22 461 73 461 204 L537 204 C561 158 608 134 660 134 C725 134 771 189 771 257 C771 361 666 428 583 365 L583 365 Z " />
<glyph glyph-name="cid239" unicode="&#x2668;" horiz-adv-x="900" d="M616 545 C602 443 655 422 666 311 C676 201 610 139 589 92 C565 44 571 6 557 3 C545 0 542 77 558 121 C583 188 617 287 585 366 C538 481 557 547 585 625 C599 662 593 715 599 716 C607 717 630 662 616 545 L616 545 Z M475 578 C441 468 500 414 521 297 C534 233 473 127 454 88 C419 23 430 -5 418 -4 C405 -3 393 66 423 142 C463 246 437 346 420 383 C360 518 416 591 443 654 C469 716 462 773 464 773 C481 774 507 674 475 578 L475 578 Z M318 542 C302 477 356 381 365 270 C369 225 337 153 305 86 C278 28 289 6 275 7 C267 7 248 62 270 125 C283 166 308 279 278 363 C241 466 258 558 300 641 C315 671 320 720 325 719 C337 717 347 659 318 542 L318 542 Z M700 248 C727 246 884 191 891 92 C901 -43 674 -119 498 -130 C247 -146 7 -64 7 62 C7 182 176 240 238 258 C254 263 260 248 239 241 C228 237 82 181 82 84 C82 -5 263 -60 456 -57 C623 -54 827 14 828 107 C829 169 730 225 697 234 C679 239 687 249 700 248 L700 248 Z " />
<glyph glyph-name="cid253" unicode="&#x2669;" horiz-adv-x="900" d="M541 701 L541 87 C541 -18 463 -91 356 -91 C299 -91 274 -71 274 -25 C274 53 361 112 474 112 L482 112 L482 701 L541 701 Z " />
<glyph glyph-name="cid254" unicode="&#x266a;" horiz-adv-x="900" d="M403 708 L418 709 C436 707 442 703 474 667 C491 649 518 617 536 601 L554 586 C582 560 592 553 598 549 C600 546 601 544 601 544 C602 543 605 541 608 537 C653 493 674 471 692 441 C717 402 727 368 727 330 C727 290 718 253 701 225 C662 158 581 87 544 84 C544 84 542 87 541 89 C537 90 536 95 536 95 C537 97 539 102 557 120 C615 170 653 243 653 296 C653 346 627 393 573 442 C528 480 509 496 458 522 L457 90 C457 -17 383 -93 275 -93 C224 -93 198 -69 198 -29 C198 50 282 110 392 110 C392 110 396 111 403 110 L403 708 Z " />
<glyph glyph-name="cid255" unicode="&#x266c;" horiz-adv-x="900" d="M757 719 L757 171 C757 102 739 63 693 31 C661 2 619 -12 574 -12 C520 -12 491 11 491 50 C491 94 529 149 582 171 C620 188 643 191 699 191 L699 464 L357 385 L357 92 C357 16 336 -29 283 -63 C246 -90 211 -101 170 -101 C118 -101 87 -76 87 -35 C87 37 179 102 283 102 L300 102 L300 619 L757 719 Z M699 552 L699 620 L357 544 L357 475 L699 552 Z " />
<glyph glyph-name="cid252" unicode="&#x266d;" horiz-adv-x="900" d="M411 353 C527 508 723 400 654 189 C584 -34 384 -52 327 -54 L327 672 L411 672 L411 353 Z M412 249 L412 22 C456 30 500 61 527 97 C590 177 591 320 541 338 C455 367 412 256 412 249 L412 249 Z " />
<glyph glyph-name="cid8594" unicode="&#x266f;" horiz-adv-x="805" d="M265 599 L347 599 L347 459 L464 521 L464 681 L546 681 L546 568 L643 622 L643 560 L546 505 L546 236 L643 291 L643 229 L546 174 L546 -52 L464 -52 L464 127 L347 61 L347 -134 L265 -134 L265 18 L159 -41 L159 26 L265 80 L265 349 L159 291 L159 357 L265 412 L265 599 Z M347 392 L347 127 L464 190 L464 459 L347 392 Z " />
<glyph glyph-name="cid8631" unicode="&#x2716;" d="" />
<glyph glyph-name="cid8630" unicode="&#x271a;" d="" />
<glyph glyph-name="cid8604" unicode="&#x273d;" d="" />
<glyph glyph-name="cid8637" unicode="&#x2756;" d="" />
<glyph glyph-name="cid8673" unicode="&#x2776;" d="" />
<glyph glyph-name="cid8674" unicode="&#x2777;" d="" />
<glyph glyph-name="cid8675" unicode="&#x2778;" d="" />
<glyph glyph-name="cid8676" unicode="&#x2779;" d="" />
<glyph glyph-name="cid8677" unicode="&#x277a;" d="" />
<glyph glyph-name="cid8678" unicode="&#x277b;" d="" />
<glyph glyph-name="cid8679" unicode="&#x277c;" d="" />
<glyph glyph-name="cid8680" unicode="&#x277d;" d="" />
<glyph glyph-name="cid8681" unicode="&#x277e;" d="" />
<glyph glyph-name="cid8682" unicode="&#x277f;" d="" />
<glyph glyph-name="cid8342" unicode="&#x278a;" d="" />
<glyph glyph-name="cid8343" unicode="&#x278b;" d="" />
<glyph glyph-name="cid8344" unicode="&#x278c;" d="" />
<glyph glyph-name="cid8345" unicode="&#x278d;" d="" />
<glyph glyph-name="cid8346" unicode="&#x278e;" d="" />
<glyph glyph-name="cid8347" unicode="&#x278f;" d="" />
<glyph glyph-name="cid8348" unicode="&#x2790;" d="" />
<glyph glyph-name="cid8349" unicode="&#x2791;" d="" />
<glyph glyph-name="cid8350" unicode="&#x2792;" d="" />
<glyph glyph-name="cid8351" unicode="&#x2793;" d="" />
<glyph glyph-name="cid8837" unicode="&#x279c;" horiz-adv-x="805" d="M487 193 L156 193 C70 193 27 232 27 295 C27 365 70 392 156 392 L495 392 L456 427 C425 455 409 490 436 521 C464 552 503 544 534 517 L783 303 L542 80 C510 49 464 41 436 73 C409 104 425 139 456 166 L487 193 Z " />
<glyph glyph-name="cid8857" unicode="&#x27a1;" horiz-adv-x="805" d="M787 295 L507 45 L507 186 L39 186 L39 400 L507 400 L507 544 L787 295 Z " />
<glyph glyph-name="&amp;#x3000;" unicode="&#x3000;" horiz-adv-x="900" d="M440 277 L440 310 L469 310 L469 277 L440 277 Z " />
<glyph glyph-name="&amp;#x3164;" unicode="&#x3164;" horiz-adv-x="900" d="M440 277 L440 310 L469 310 L469 277 L440 277 Z " />
<glyph glyph-name="cid8283" unicode="&#x3001;" horiz-adv-x="450" d="M42 30 C34 36 21 53 33 65 C42 73 60 68 83 55 C135 25 179 -13 205 -58 C221 -85 228 -144 186 -161 C147 -177 124 -139 122 -99 C120 -49 92 -7 42 30 L42 30 Z " />
<glyph glyph-name="cid8284" unicode="&#x3002;" horiz-adv-x="450" d="M147 76 C212 76 264 24 264 -41 C264 -106 212 -158 147 -158 C82 -158 30 -106 30 -41 C30 24 82 76 147 76 L147 76 Z M147 -99 C177 -99 203 -72 203 -41 C203 -10 177 17 147 17 C117 17 90 -10 90 -41 C90 -72 117 -99 147 -99 L147 -99 Z " />
<glyph glyph-name="cid108" unicode="&#x3003;" horiz-adv-x="900" d="M420 224 L503 427 C510 446 530 468 564 465 C603 460 607 418 594 400 L462 205 C454 193 442 180 427 186 C414 190 412 205 420 224 L420 224 Z M278 236 L361 439 C369 458 388 481 421 477 C462 472 464 430 452 412 L319 217 C311 205 299 193 284 198 C272 203 270 218 278 236 L278 236 Z " />
<glyph glyph-name="cid120" unicode="&#x3008;" horiz-adv-x="450" d="M185 300 L417 -113 L350 -155 L98 300 L350 757 L419 717 L185 300 Z " />
<glyph glyph-name="cid121" unicode="&#x3009;" horiz-adv-x="450" d="M266 300 L33 717 L102 757 L354 300 L102 -155 L35 -113 L266 300 Z " />
<glyph glyph-name="cid122" unicode="&#x300a;" horiz-adv-x="450" d="M133 295 L364 746 L420 746 L190 295 L420 -152 L364 -152 L133 295 Z M29 295 L260 746 L317 746 L85 295 L317 -152 L260 -152 L29 295 Z " />
<glyph glyph-name="cid123" unicode="&#x300b;" horiz-adv-x="450" d="M134 -152 L364 295 L134 746 L190 746 L421 295 L190 -152 L134 -152 Z M31 -152 L262 295 L31 746 L87 746 L319 295 L87 -152 L31 -152 Z " />
<glyph glyph-name="cid124" unicode="&#x300c;" horiz-adv-x="450" d="M171 726 L171 335 L113 335 L113 785 L421 785 L421 726 L171 726 Z " />
<glyph glyph-name="cid125" unicode="&#x300d;" horiz-adv-x="450" d="M28 -185 L28 -126 L278 -126 L278 265 L337 265 L337 -185 L28 -185 Z " />
<glyph glyph-name="cid126" unicode="&#x300e;" horiz-adv-x="450" d="M222 668 L222 338 L109 338 L109 782 L412 782 L412 668 L222 668 Z M153 382 L178 382 L178 712 L368 712 L368 738 L153 738 L153 382 Z " />
<glyph glyph-name="cid127" unicode="&#x300f;" horiz-adv-x="450" d="M342 262 L342 -182 L38 -182 L38 -68 L228 -68 L228 262 L342 262 Z M272 -112 L82 -112 L82 -138 L298 -138 L298 218 L272 218 L272 -112 Z " />
<glyph glyph-name="cid128" unicode="&#x3010;" horiz-adv-x="450" d="M428 -180 L71 -180 L71 779 L427 779 C271 678 167 500 167 300 C167 99 271 -78 428 -180 L428 -180 Z " />
<glyph glyph-name="cid129" unicode="&#x3011;" horiz-adv-x="450" d="M389 -179 L32 -179 C189 -77 293 100 293 301 C293 501 189 679 33 780 L389 780 L389 -179 Z " />
<glyph glyph-name="cid8700" unicode="&#x3012;" d="" />
<glyph glyph-name="cid175" unicode="&#x3013;" horiz-adv-x="900" d="M791 382 L108 382 L108 456 L791 456 L791 382 Z M791 143 L108 143 L108 218 L791 218 L791 143 Z " />
<glyph glyph-name="cid118" unicode="&#x3014;" horiz-adv-x="450" d="M71 -71 L71 682 L407 771 L407 674 L168 609 L168 1 L407 -70 L407 -172 L71 -71 Z " />
<glyph glyph-name="cid119" unicode="&#x3015;" horiz-adv-x="450" d="M44 -172 L44 -70 L283 1 L283 609 L44 674 L44 771 L380 682 L380 -71 L44 -172 Z " />
<glyph glyph-name="cid8219" unicode="&#x3016;" d="" />
<glyph glyph-name="cid8220" unicode="&#x3017;" d="" />
<glyph glyph-name="cid8221" unicode="&#x3018;" d="" />
<glyph glyph-name="cid8222" unicode="&#x3019;" d="" />
<glyph glyph-name="cid9322" unicode="&#x301e;" d="" />
<glyph glyph-name="cid9323" unicode="&#x301f;" d="" />
<glyph glyph-name="cid8671" unicode="&#x3020;" d="" />
<glyph glyph-name="cid8701" unicode="&#x3036;" d="" />
<glyph glyph-name="cid104" unicode="&#x30fb;" horiz-adv-x="450" d="M294 271 L159 271 L159 398 L294 398 L294 271 Z " />
<glyph glyph-name="cid9330" unicode="&#x30fc;" d="" />
<glyph glyph-name="cid358" unicode="&#x3131;" horiz-adv-x="872" d="M564 46 C587 179 604 324 608 453 L144 453 L144 548 L701 548 C722 548 729 541 729 520 C720 383 702 196 676 46 L564 46 Z " />
<glyph glyph-name="cid359" unicode="&#x3132;" horiz-adv-x="872" d="M603 46 C626 179 645 324 649 453 L466 453 L466 548 L740 548 C761 548 768 541 768 520 C759 383 741 196 715 46 L603 46 Z M274 46 C297 179 316 324 320 453 L126 453 L126 548 L411 548 C432 548 439 541 439 520 C430 383 412 196 386 46 L274 46 Z " />
<glyph glyph-name="cid360" unicode="&#x3133;" horiz-adv-x="872" d="M435 47 L323 47 L323 447 L118 447 L118 540 L407 540 C428 540 435 533 435 512 L435 118 C519 188 566 267 566 426 L566 545 L676 545 L676 426 C676 249 734 170 838 94 L760 42 C698 84 636 167 621 243 C606 167 545 89 482 42 L435 73 L435 47 Z " />
<glyph glyph-name="cid361" unicode="&#x3134;" horiz-adv-x="872" d="M197 60 C176 60 170 67 170 88 L170 536 L286 536 L286 156 L738 156 L738 60 L197 60 Z " />
<glyph glyph-name="cid362" unicode="&#x3135;" horiz-adv-x="872" d="M420 64 C400 59 366 56 335 54 C254 48 188 50 183 50 C162 50 155 57 155 78 L155 540 L265 540 L265 148 L324 148 C356 150 408 155 429 161 L429 139 C498 204 536 283 536 426 L536 447 L408 447 L408 540 L773 540 L773 447 L646 447 L646 426 C646 249 704 170 808 94 L730 42 C668 84 606 167 591 243 C576 167 515 89 452 42 L420 64 Z " />
<glyph glyph-name="cid363" unicode="&#x3136;" horiz-adv-x="872" d="M427 66 C412 61 370 56 333 54 C252 48 188 50 183 50 C162 50 155 57 155 78 L155 540 L265 540 L265 148 L322 148 C351 150 397 154 421 159 C419 167 419 176 419 184 C419 273 483 340 587 340 C691 340 754 273 754 184 C754 92 693 30 587 30 C503 30 447 69 427 130 L427 66 Z M396 440 L774 440 L774 364 L396 364 L396 440 Z M474 549 L696 549 L696 480 L474 480 L474 549 Z M587 260 C546 260 516 231 516 184 C516 137 546 108 587 108 C629 108 658 137 658 184 C658 231 629 260 587 260 L587 260 Z " />
<glyph glyph-name="cid364" unicode="&#x3137;" horiz-adv-x="872" d="M207 538 L734 538 L734 444 L293 444 L293 158 L749 158 L749 62 L207 62 C186 62 179 69 179 90 L179 510 C179 531 186 538 207 538 L207 538 Z " />
<glyph glyph-name="cid365" unicode="&#x3138;" horiz-adv-x="872" d="M479 542 L739 542 L739 446 L564 446 L564 153 L750 153 L750 58 L479 58 C458 58 451 65 451 86 L451 514 C451 535 458 542 479 542 L479 542 Z M176 542 L426 542 L426 446 L261 446 L261 153 L303 154 C344 155 402 162 433 167 L433 76 C399 71 310 60 241 58 L176 58 C155 58 148 65 148 86 L148 514 C148 535 155 542 176 542 L176 542 Z " />
<glyph glyph-name="cid366" unicode="&#x3139;" horiz-adv-x="872" d="M692 249 L280 249 L280 146 L740 146 L740 51 L197 51 C176 51 169 58 169 79 L169 315 C169 336 176 343 197 343 L610 343 L610 454 L168 454 L168 549 L692 549 C713 549 720 542 720 521 L720 277 C720 256 713 249 692 249 L692 249 Z " />
<glyph glyph-name="cid367" unicode="&#x313a;" horiz-adv-x="872" d="M172 333 L333 333 L333 451 L144 451 L144 542 L412 542 C433 542 440 535 440 514 L440 276 C440 255 433 248 412 248 L254 248 L254 150 L340 150 C378 150 465 157 492 162 L492 72 C435 64 336 58 275 58 L172 58 C151 58 144 65 144 86 L144 305 C144 326 151 333 172 333 L172 333 Z M736 542 C757 542 764 535 764 514 L764 47 L650 47 L650 449 L467 449 L467 542 L736 542 Z " />
<glyph glyph-name="cid368" unicode="&#x313b;" horiz-adv-x="872" d="M668 144 L668 454 L572 454 L572 144 L668 144 Z M168 342 L328 342 L328 452 L140 452 L140 542 L404 542 C425 542 432 535 432 514 L432 287 C432 266 425 259 404 259 L248 259 L248 147 L367 147 C385 147 429 149 449 153 L449 64 C424 61 384 57 345 57 L168 57 C147 57 140 64 140 85 L140 314 C140 335 147 342 168 342 L168 342 Z M501 542 L738 542 C759 542 766 535 766 514 L766 85 C766 64 759 57 738 57 L501 57 C480 57 473 64 473 85 L473 514 C473 535 480 542 501 542 L501 542 Z " />
<glyph glyph-name="cid369" unicode="&#x313c;" horiz-adv-x="872" d="M168 343 L317 343 L317 452 L140 452 L140 542 L393 542 C414 542 421 535 421 514 L421 286 C421 265 414 258 393 258 L248 258 L248 147 L361 147 C379 147 423 149 443 153 L443 64 C418 61 378 57 339 57 L168 57 C147 57 140 64 140 85 L140 315 C140 336 147 343 168 343 L168 343 Z M664 147 L664 291 L559 291 L559 147 L664 147 Z M459 88 L459 543 L559 543 L559 378 L664 378 L664 543 L764 543 L764 88 C764 67 757 60 736 60 L487 60 C466 60 459 67 459 88 L459 88 Z " />
<glyph glyph-name="cid370" unicode="&#x313d;" horiz-adv-x="872" d="M172 343 L318 343 L318 452 L144 452 L144 542 L394 542 C415 542 422 535 422 514 L422 286 C422 265 415 258 394 258 L252 258 L252 147 L362 147 C380 147 424 149 444 153 L444 126 C523 193 566 273 566 426 L566 545 L676 545 L676 426 C676 249 734 170 838 94 L760 42 C698 84 636 167 621 243 C606 167 545 89 482 42 L444 67 L444 64 C419 61 379 57 340 57 L172 57 C151 57 144 64 144 85 L144 315 C144 336 151 343 172 343 L172 343 Z " />
<glyph glyph-name="cid371" unicode="&#x313e;" horiz-adv-x="872" d="M168 343 L317 343 L317 452 L140 452 L140 542 L393 542 C414 542 421 535 421 514 L421 286 C421 265 414 258 393 258 L248 258 L248 147 L361 147 C379 147 423 149 443 153 L443 64 C418 61 378 57 339 57 L168 57 C147 57 140 64 140 85 L140 315 C140 336 147 343 168 343 L168 343 Z M494 58 C473 58 466 65 466 86 L466 514 C466 535 473 542 494 542 L755 542 L755 453 L572 453 L572 341 L751 341 L751 256 L572 256 L572 148 L767 148 L767 58 L494 58 Z " />
<glyph glyph-name="cid372" unicode="&#x313f;" horiz-adv-x="872" d="M168 343 L317 343 L317 452 L140 452 L140 542 L393 542 C414 542 421 535 421 514 L421 286 C421 265 414 258 393 258 L248 258 L248 147 L351 147 C369 147 413 149 433 153 L433 64 C408 61 368 57 329 57 L168 57 C147 57 140 64 140 85 L140 315 C140 336 147 343 168 343 L168 343 Z M641 142 L645 457 L585 457 L588 142 L641 142 Z M452 57 L452 142 L498 142 L493 456 L451 456 L451 542 L777 542 L777 456 L735 456 L728 142 L786 142 L786 57 L452 57 Z " />
<glyph glyph-name="cid373" unicode="&#x3140;" horiz-adv-x="872" d="M168 343 L317 343 L317 452 L140 452 L140 542 L393 542 C414 542 421 535 421 514 L421 286 C421 265 414 258 393 258 L248 258 L248 147 L351 147 C369 147 413 149 433 153 L433 64 C408 61 368 57 329 57 L168 57 C147 57 140 64 140 85 L140 315 C140 336 147 343 168 343 L168 343 Z M437 439 L774 439 L774 362 L437 362 L437 439 Z M498 549 L700 549 L700 476 L498 476 L498 549 Z M603 30 C502 30 443 92 443 184 C443 273 505 340 603 340 C701 340 759 273 759 184 C759 92 703 30 603 30 L603 30 Z M603 260 C564 260 535 231 535 184 C535 137 564 108 603 108 C642 108 670 137 670 184 C670 231 642 260 603 260 L603 260 Z " />
<glyph glyph-name="cid374" unicode="&#x3141;" horiz-adv-x="872" d="M609 153 L609 447 L274 447 L274 153 L609 153 Z M191 542 L692 542 C713 542 720 535 720 514 L720 86 C720 65 713 58 692 58 L190 58 C169 58 163 64 163 85 L163 514 C163 535 170 542 191 542 L191 542 Z " />
<glyph glyph-name="cid375" unicode="&#x3142;" horiz-adv-x="872" d="M613 153 L613 308 L278 308 L278 153 L613 153 Z M726 85 C726 64 719 57 698 57 L191 57 C170 57 164 64 164 85 L164 551 L278 551 L278 403 L613 403 L613 551 L726 551 L726 85 Z " />
<glyph glyph-name="cid376" unicode="&#x3143;" horiz-adv-x="872" d="M640 151 L640 305 L495 305 L495 151 L640 151 Z M395 305 L249 305 L249 151 L395 151 L395 305 Z M750 85 C750 64 743 57 722 57 L166 57 C145 57 139 64 139 85 L139 556 L249 556 L249 398 L395 398 L395 550 L495 550 L495 398 L640 398 L640 556 L750 556 L750 85 Z " />
<glyph glyph-name="cid377" unicode="&#x3144;" horiz-adv-x="872" d="M361 150 L361 310 L256 310 L256 150 L361 150 Z M455 60 C450 58 445 57 437 57 L177 57 C156 57 150 64 150 85 L150 551 L256 551 L256 403 L360 403 L360 551 L465 551 L465 145 C530 209 566 287 566 426 L566 545 L676 545 L676 426 C676 249 734 170 838 94 L760 42 C698 84 636 167 621 243 C606 167 545 89 482 42 L455 60 Z " />
<glyph glyph-name="cid378" unicode="&#x3145;" horiz-adv-x="872" d="M95 109 C264 165 386 295 386 447 L386 588 L508 588 L508 447 C507 301 637 154 794 108 L711 30 C590 75 485 168 446 272 C404 160 312 83 183 29 L95 109 Z " />
<glyph glyph-name="cid379" unicode="&#x3146;" horiz-adv-x="872" d="M731 43 C663 93 612 153 589 218 C568 157 520 91 448 42 C377 92 330 156 308 216 C283 151 240 96 167 42 L81 114 C198 186 253 290 253 430 L253 541 L366 541 L366 432 C366 322 392 248 449 173 C502 236 533 331 533 432 L533 541 L647 541 L647 430 C647 285 703 186 813 115 L731 43 Z " />
<glyph glyph-name="cid380" unicode="&#x3147;" horiz-adv-x="872" d="M446 30 C253 30 148 150 148 298 C148 447 252 568 446 568 C641 568 746 447 746 298 C746 150 640 30 446 30 L446 30 Z M446 473 C342 473 266 405 266 298 C266 192 342 125 446 125 C552 125 629 192 629 298 C629 405 552 473 446 473 L446 473 Z " />
<glyph glyph-name="cid381" unicode="&#x3148;" horiz-adv-x="872" d="M751 454 L512 454 L512 398 C512 261 650 156 802 117 L732 33 C608 67 479 157 447 243 C412 151 294 74 163 32 L90 117 C254 164 384 255 384 398 L384 454 L145 454 L145 549 L751 549 L751 454 Z " />
<glyph glyph-name="cid382" unicode="&#x3149;" horiz-adv-x="872" d="M83 117 C168 168 249 277 249 391 L249 455 L144 455 L144 549 L437 549 L437 455 L361 455 L361 383 C361 308 401 225 445 178 C492 228 533 307 533 387 L533 455 L456 455 L456 549 L749 549 L749 455 L644 455 L644 389 C644 288 710 181 805 119 L725 46 C659 96 611 153 586 217 C567 164 516 97 446 49 C382 89 327 157 304 217 C282 157 233 96 166 45 L83 117 Z " />
<glyph glyph-name="cid383" unicode="&#x314a;" horiz-adv-x="872" d="M268 591 L623 591 L623 499 L268 499 L268 591 Z M739 339 L511 339 C533 218 654 126 787 90 L713 13 C592 47 483 131 446 223 C413 131 308 54 181 12 L104 90 C248 133 364 214 384 339 L157 339 L157 434 L739 434 L739 339 Z " />
<glyph glyph-name="cid384" unicode="&#x314b;" horiz-adv-x="872" d="M576 46 C588 113 598 182 606 251 C517 232 398 227 282 227 L164 227 L164 322 L342 322 C445 322 524 324 614 336 C618 376 620 416 622 455 L177 455 L177 549 L713 549 C734 549 741 542 741 521 C734 380 715 201 687 46 L576 46 Z " />
<glyph glyph-name="cid385" unicode="&#x314c;" horiz-adv-x="872" d="M195 539 L731 539 L731 446 L282 446 L282 346 L728 346 L728 254 L282 254 L282 155 L741 155 L741 62 L194 62 C173 62 167 69 167 90 L167 511 C167 532 174 539 195 539 L195 539 Z " />
<glyph glyph-name="cid386" unicode="&#x314d;" horiz-adv-x="872" d="M358 447 L361 153 L529 153 L531 447 L358 447 Z M762 57 L129 57 L129 153 L246 153 L244 447 L148 447 L148 543 L742 543 L742 447 L643 447 L641 153 L762 153 L762 57 Z " />
<glyph glyph-name="cid387" unicode="&#x314e;" horiz-adv-x="872" d="M133 455 L755 455 L755 361 L133 361 L133 455 Z M278 599 L608 599 L608 508 L278 508 L278 599 Z M444 15 C290 15 183 76 183 171 C183 270 285 328 444 328 C604 328 707 270 707 171 C707 76 600 15 444 15 L444 15 Z M444 243 C358 243 311 218 311 171 C311 126 357 100 444 100 C532 100 579 126 579 171 C579 218 532 243 444 243 L444 243 Z " />
<glyph glyph-name="cid388" unicode="&#x314f;" horiz-adv-x="872" d="M349 -134 L349 762 L462 762 L462 404 L664 404 L664 302 L462 302 L462 -134 L349 -134 Z " />
<glyph glyph-name="cid389" unicode="&#x3150;" horiz-adv-x="872" d="M285 -91 L285 746 L394 746 L394 411 L492 411 L492 762 L601 762 L601 -134 L492 -134 L492 301 L394 301 L394 -91 L285 -91 Z " />
<glyph glyph-name="cid390" unicode="&#x3151;" horiz-adv-x="872" d="M337 -134 L337 762 L450 762 L450 514 L642 514 L642 412 L450 412 L450 257 L642 257 L642 155 L450 155 L450 -134 L337 -134 Z " />
<glyph glyph-name="cid391" unicode="&#x3152;" horiz-adv-x="872" d="M433 489 L433 306 L532 306 L532 489 L433 489 Z M325 -92 L325 746 L433 746 L433 592 L532 592 L532 761 L641 761 L641 -134 L532 -134 L532 204 L433 204 L433 -92 L325 -92 Z " />
<glyph glyph-name="cid392" unicode="&#x3153;" horiz-adv-x="872" d="M601 -134 L488 -134 L488 302 L286 302 L286 404 L488 404 L488 762 L601 762 L601 -134 Z " />
<glyph glyph-name="cid393" unicode="&#x3154;" horiz-adv-x="872" d="M542 -134 L542 761 L652 761 L652 -134 L542 -134 Z M367 300 L224 300 L224 398 L367 398 L367 746 L477 746 L477 -92 L367 -92 L367 300 Z " />
<glyph glyph-name="cid394" unicode="&#x3155;" horiz-adv-x="872" d="M593 -134 L480 -134 L480 155 L288 155 L288 257 L480 257 L480 412 L288 412 L288 514 L480 514 L480 762 L593 762 L593 -134 Z " />
<glyph glyph-name="cid395" unicode="&#x3156;" horiz-adv-x="872" d="M542 -134 L542 761 L652 761 L652 -134 L542 -134 Z M367 -92 L367 157 L228 157 L228 255 L367 255 L367 409 L231 409 L231 507 L367 507 L367 746 L477 746 L477 -92 L367 -92 Z " />
<glyph glyph-name="cid396" unicode="&#x3157;" horiz-adv-x="872" d="M21 147 L375 147 L375 536 L492 536 L492 147 L847 147 L847 51 L21 51 L21 147 Z " />
<glyph glyph-name="cid397" unicode="&#x3158;" horiz-adv-x="872" d="M19 192 L260 192 L260 456 L375 456 L375 194 C449 198 543 203 604 212 L604 118 C481 101 308 95 121 95 C85 95 59 94 19 95 L19 192 Z M740 761 L740 415 L861 415 L861 311 L740 311 L740 -134 L628 -134 L628 761 L740 761 Z " />
<glyph glyph-name="cid398" unicode="&#x3159;" horiz-adv-x="872" d="M516 -92 L516 746 L626 746 L626 435 L700 435 L700 761 L810 761 L810 -134 L700 -134 L700 326 L626 326 L626 -92 L516 -92 Z M44 189 L222 189 L223 467 L335 467 L334 191 C392 195 461 201 495 207 L495 113 C409 102 253 93 134 93 L44 93 L44 189 Z " />
</font>
</svg>
